<?xml version="1.0" encoding="UTF-8"?>
<svg xmlns="http://www.w3.org/2000/svg" xmlns:xlink="http://www.w3.org/1999/xlink"
     width="847.0" height="137.0" viewBox="-138.5 -68.5 847.0 137.0">
<defs>
<style type="text/css">
.l0d0 {stroke: rgb(255, 0, 0); fill: rgb(255, 0, 0); fill-opacity: 0.5;}
</style>
</defs>
<rect x="-138.5" y="-68.5" width="847.0" height="137.0" fill="#222" stroke="none"/>
<g id="xor_diff" transform="scale(1 -1)">
<polygon class="l0d0" points="123.03,2.579 124.03999999999999,2.6529999999999996 125.051,2.727 126.06099999999999,2.802 127.071,2.8760000000000003 133.131,3.326 134.141,3.4000000000000004 135.152,3.473 137.172,3.6189999999999998 139.192,3.761 140.202,3.831 142.222,3.967 143.232,4.0329999999999995 144.24200000000002,4.098 145.253,4.1610000000000005 146.263,4.222 147.273,4.282 148.28300000000002,4.34 149.293,4.396 150.303,4.451 151.313,4.503 152.323,4.553 153.333,4.6000000000000005 154.34300000000002,4.646 155.35399999999998,4.688 156.364,4.729 157.374,4.766 158.38400000000001,4.8020000000000005 159.394,4.834 160.40400000000002,4.864 161.41400000000002,4.891 162.424,4.915 163.434,4.936 164.44400000000002,4.954 165.455,4.969 166.465,4.981 167.475,4.99 168.485,4.997 168.5,4.997 168.5,18.0 160.0,30.0 -100.0,30.0 -100.0,2.5300000000000002 122.352,2.5300000000000002"/>
<polygon class="l0d0" points="31.9,0.21999999999999997 31.880000000000003,0.3 31.869999999999997,0.37 31.85,0.43999999999999995 31.82,0.51 31.8,0.5700000000000001 31.77,0.64 31.74,0.7000000000000001 31.66,0.8200000000000001 31.619999999999997,0.8699999999999999 31.48,1.01 31.43,1.04 31.38,1.08 31.32,1.11 31.269999999999996,1.1300000000000001 31.150000000000002,1.1700000000000002 31.099999999999998,1.18 31.04,1.19 30.92,1.19 30.8,1.1700000000000002 30.75,1.1500000000000001 30.630000000000003,1.11 30.58,1.08 30.53,1.04 30.48,1.01 30.43,0.96 30.38,0.9199999999999999 30.299999999999997,0.8200000000000001 30.22,0.7000000000000001 30.19,0.64 30.16,0.5700000000000001 30.13,0.51 30.07,0.3 30.06,0.21999999999999997 30.049999999999997,0.15 30.049999999999997,0.07 30.04,0.0 30.049999999999997,-0.07 30.049999999999997,-0.15 30.06,-0.21999999999999997 30.07,-0.3 30.13,-0.51 30.16,-0.5700000000000001 30.19,-0.64 30.22,-0.7000000000000001 30.299999999999997,-0.8200000000000001 30.38,-0.9199999999999999 30.43,-0.96 30.48,-1.01 30.53,-1.04 30.58,-1.08 30.630000000000003,-1.11 30.75,-1.1500000000000001 30.8,-1.1700000000000002 30.92,-1.19 31.04,-1.19 31.099999999999998,-1.18 31.150000000000002,-1.1700000000000002 31.269999999999996,-1.1300000000000001 31.32,-1.11 31.38,-1.08 31.43,-1.04 31.48,-1.01 31.619999999999997,-0.8699999999999999 31.66,-0.8200000000000001 31.74,-0.7000000000000001 31.77,-0.64 31.8,-0.5700000000000001 31.82,-0.51 31.85,-0.43999999999999995 31.869999999999997,-0.37 31.880000000000003,-0.3 31.9,-0.21999999999999997 31.909999999999997,-0.15 31.909999999999997,0.15"/>
<polygon class="l0d0" points="1.48,-1.11 1.53,-1.08 1.58,-1.04 1.6300000000000001,-1.01 1.6800000000000002,-0.96 1.73,-0.9199999999999999 1.81,-0.8200000000000001 1.8900000000000001,-0.7000000000000001 1.92,-0.64 1.9500000000000002,-0.5700000000000001 1.98,-0.51 2.04,-0.3 2.05,-0.21999999999999997 2.06,-0.15 2.06,-0.07 2.07,0.0 2.06,0.07 2.06,0.15 2.05,0.21999999999999997 2.04,0.3 1.98,0.51 1.9500000000000002,0.5700000000000001 1.92,0.64 1.8900000000000001,0.7000000000000001 1.81,0.8200000000000001 1.73,0.9199999999999999 1.6800000000000002,0.96 1.6300000000000001,1.01 1.58,1.04 1.53,1.08 1.48,1.11 1.36,1.1500000000000001 1.31,1.1700000000000002 1.19,1.19 1.07,1.19 1.01,1.18 0.96,1.1700000000000002 0.8400000000000001,1.1300000000000001 0.79,1.11 0.73,1.08 0.68,1.04 0.63,1.01 0.49,0.8699999999999999 0.44999999999999996,0.8200000000000001 0.41000000000000003,0.76 0.38,0.7000000000000001 0.34,0.64 0.31,0.5700000000000001 0.29000000000000004,0.51 0.26,0.43999999999999995 0.24,0.37 0.22999999999999998,0.3 0.21000000000000002,0.21999999999999997 0.2,0.15 0.2,-0.15 0.21000000000000002,-0.21999999999999997 0.22999999999999998,-0.3 0.24,-0.37 0.26,-0.43999999999999995 0.29000000000000004,-0.51 0.31,-0.5700000000000001 0.34,-0.64 0.38,-0.7000000000000001 0.41000000000000003,-0.76 0.44999999999999996,-0.8200000000000001 0.49,-0.8699999999999999 0.63,-1.01 0.68,-1.04 0.73,-1.08 0.79,-1.11 0.8400000000000001,-1.1300000000000001 0.96,-1.1700000000000002 1.01,-1.18 1.07,-1.19 1.19,-1.19 1.31,-1.1700000000000002 1.36,-1.1500000000000001"/>
<polygon class="l0d0" points="18.77,-0.9199999999999999 18.85,-0.8200000000000001 18.93,-0.7000000000000001 18.96,-0.64 18.990000000000002,-0.5700000000000001 19.02,-0.51 19.08,-0.3 19.09,-0.21999999999999997 19.099999999999998,-0.15 19.099999999999998,0.15 19.09,0.21999999999999997 19.08,0.3 19.02,0.51 18.990000000000002,0.5700000000000001 18.96,0.64 18.93,0.7000000000000001 18.85,0.8200000000000001 18.77,0.9199999999999999 18.720000000000002,0.96 18.67,1.01 18.62,1.04 18.57,1.08 18.509999999999998,1.11 18.46,1.1300000000000001 18.400000000000002,1.1500000000000001 18.35,1.1700000000000002 18.23,1.19 18.11,1.19 17.99,1.1700000000000002 17.94,1.1500000000000001 17.88,1.1300000000000001 17.83,1.11 17.77,1.08 17.72,1.04 17.669999999999998,1.01 17.62,0.96 17.57,0.9199999999999999 17.490000000000002,0.8200000000000001 17.41,0.7000000000000001 17.38,0.64 17.35,0.5700000000000001 17.32,0.51 17.259999999999998,0.3 17.25,0.21999999999999997 17.24,0.15 17.24,-0.15 17.25,-0.21999999999999997 17.259999999999998,-0.3 17.32,-0.51 17.35,-0.5700000000000001 17.38,-0.64 17.41,-0.7000000000000001 17.490000000000002,-0.8200000000000001 17.57,-0.9199999999999999 17.62,-0.96 17.669999999999998,-1.01 17.72,-1.04 17.77,-1.08 17.83,-1.11 17.88,-1.1300000000000001 17.94,-1.1500000000000001 17.99,-1.1700000000000002 18.11,-1.19 18.23,-1.19 18.35,-1.1700000000000002 18.400000000000002,-1.1500000000000001 18.46,-1.1300000000000001 18.509999999999998,-1.11 18.57,-1.08 18.62,-1.04 18.67,-1.01 18.720000000000002,-0.96"/>
<polygon class="l0d0" points="-9.93,-0.76 -9.87,-0.64 -9.84,-0.5700000000000001 -9.81,-0.51 -9.75,-0.3 -9.74,-0.21999999999999997 -9.73,-0.15 -9.719999999999999,-0.07 -9.719999999999999,0.07 -9.73,0.15 -9.74,0.21999999999999997 -9.75,0.3 -9.81,0.51 -9.84,0.5700000000000001 -9.87,0.64 -9.93,0.76 -9.97,0.8200000000000001 -10.009999999999998,0.8699999999999999 -10.06,0.9199999999999999 -10.11,0.96 -10.149999999999999,1.01 -10.2,1.04 -10.26,1.08 -10.309999999999999,1.11 -10.37,1.1300000000000001 -10.42,1.1500000000000001 -10.48,1.1700000000000002 -10.600000000000001,1.19 -10.709999999999999,1.19 -10.83,1.1700000000000002 -10.89,1.1500000000000001 -10.940000000000001,1.1300000000000001 -11.0,1.11 -11.05,1.08 -11.11,1.04 -11.16,1.01 -11.200000000000001,0.96 -11.25,0.9199999999999999 -11.29,0.8699999999999999 -11.34,0.8200000000000001 -11.379999999999999,0.76 -11.44,0.64 -11.47,0.5700000000000001 -11.5,0.51 -11.559999999999999,0.3 -11.57,0.21999999999999997 -11.579999999999998,0.15 -11.59,0.07 -11.59,-0.07 -11.579999999999998,-0.15 -11.57,-0.21999999999999997 -11.559999999999999,-0.3 -11.5,-0.51 -11.47,-0.5700000000000001 -11.44,-0.64 -11.379999999999999,-0.76 -11.34,-0.8200000000000001 -11.29,-0.8699999999999999 -11.25,-0.9199999999999999 -11.200000000000001,-0.96 -11.16,-1.01 -11.11,-1.04 -11.05,-1.08 -11.0,-1.11 -10.940000000000001,-1.1300000000000001 -10.89,-1.1500000000000001 -10.83,-1.1700000000000002 -10.709999999999999,-1.19 -10.600000000000001,-1.19 -10.48,-1.1700000000000002 -10.42,-1.1500000000000001 -10.37,-1.1300000000000001 -10.309999999999999,-1.11 -10.26,-1.08 -10.2,-1.04 -10.149999999999999,-1.01 -10.11,-0.96 -10.06,-0.9199999999999999 -10.009999999999998,-0.8699999999999999 -9.97,-0.8200000000000001"/>
<polygon class="l0d0" points="-28.439999999999998,-0.76 -28.410000000000004,-0.7000000000000001 -28.37,-0.64 -28.35,-0.5700000000000001 -28.32,-0.51 -28.26,-0.3 -28.25,-0.21999999999999997 -28.24,-0.15 -28.23,-0.07 -28.23,0.07 -28.24,0.15 -28.25,0.21999999999999997 -28.26,0.3 -28.32,0.51 -28.35,0.5700000000000001 -28.37,0.64 -28.410000000000004,0.7000000000000001 -28.439999999999998,0.76 -28.479999999999997,0.8200000000000001 -28.52,0.8699999999999999 -28.66,1.01 -28.71,1.04 -28.769999999999996,1.08 -28.82,1.11 -28.88,1.1300000000000001 -28.93,1.1500000000000001 -28.990000000000002,1.1700000000000002 -29.11,1.19 -29.220000000000002,1.19 -29.340000000000003,1.1700000000000002 -29.4,1.1500000000000001 -29.45,1.1300000000000001 -29.51,1.11 -29.56,1.08 -29.61,1.04 -29.67,1.01 -29.71,0.96 -29.759999999999998,0.9199999999999999 -29.8,0.8699999999999999 -29.849999999999998,0.8200000000000001 -29.88,0.76 -29.92,0.7000000000000001 -29.950000000000003,0.64 -29.980000000000004,0.5700000000000001 -30.009999999999998,0.51 -30.07,0.3 -30.08,0.21999999999999997 -30.09,0.15 -30.099999999999998,0.07 -30.099999999999998,-0.07 -30.09,-0.15 -30.08,-0.21999999999999997 -30.07,-0.3 -30.009999999999998,-0.51 -29.980000000000004,-0.5700000000000001 -29.950000000000003,-0.64 -29.92,-0.7000000000000001 -29.88,-0.76 -29.849999999999998,-0.8200000000000001 -29.8,-0.8699999999999999 -29.759999999999998,-0.9199999999999999 -29.71,-0.96 -29.67,-1.01 -29.61,-1.04 -29.56,-1.08 -29.51,-1.11 -29.45,-1.1300000000000001 -29.4,-1.1500000000000001 -29.340000000000003,-1.1700000000000002 -29.220000000000002,-1.19 -29.11,-1.19 -28.990000000000002,-1.1700000000000002 -28.93,-1.1500000000000001 -28.88,-1.1300000000000001 -28.82,-1.11 -28.769999999999996,-1.08 -28.71,-1.04 -28.66,-1.01 -28.52,-0.8699999999999999 -28.479999999999997,-0.8200000000000001"/>
<polygon class="l0d0" points="6.65,-0.07 6.65,0.07 6.640000000000001,0.13 6.640000000000001,0.21999999999999997 6.62,0.3 6.61,0.37 6.59,0.43999999999999995 6.5600000000000005,0.51 6.54,0.5700000000000001 6.51,0.64 6.470000000000001,0.7000000000000001 6.44,0.76 6.4,0.8200000000000001 6.36,0.8699999999999999 6.22,1.01 6.17,1.04 6.12,1.08 6.06,1.11 6.01,1.1300000000000001 5.89,1.1700000000000002 5.83,1.18 5.779999999999999,1.19 5.659999999999999,1.19 5.540000000000001,1.1700000000000002 5.49,1.1500000000000001 5.37,1.11 5.32,1.08 5.2700000000000005,1.04 5.220000000000001,1.01 5.17,0.96 5.12,0.9199999999999999 5.04,0.8200000000000001 4.96,0.7000000000000001 4.93,0.64 4.9,0.5700000000000001 4.87,0.51 4.81,0.3 4.8,0.21999999999999997 4.79,0.15 4.779999999999999,0.07 4.779999999999999,-0.07 4.79,-0.15 4.8,-0.21999999999999997 4.81,-0.3 4.87,-0.51 4.9,-0.5700000000000001 4.93,-0.64 4.96,-0.7000000000000001 5.04,-0.8200000000000001 5.12,-0.9199999999999999 5.17,-0.96 5.220000000000001,-1.01 5.2700000000000005,-1.04 5.32,-1.08 5.37,-1.11 5.49,-1.1500000000000001 5.540000000000001,-1.1700000000000002 5.659999999999999,-1.19 5.779999999999999,-1.19 5.83,-1.18 5.89,-1.1700000000000002 6.01,-1.1300000000000001 6.06,-1.11 6.12,-1.08 6.17,-1.04 6.22,-1.01 6.36,-0.8699999999999999 6.4,-0.8200000000000001 6.44,-0.76 6.470000000000001,-0.7000000000000001 6.51,-0.64 6.54,-0.5700000000000001 6.5600000000000005,-0.51 6.59,-0.43999999999999995 6.61,-0.37 6.62,-0.3 6.640000000000001,-0.21999999999999997 6.640000000000001,-0.15"/>
<polygon class="l0d0" points="-2.06,-0.15 -2.05,-0.21999999999999997 -2.04,-0.3 -1.98,-0.51 -1.9500000000000002,-0.5700000000000001 -1.92,-0.64 -1.8900000000000001,-0.7000000000000001 -1.81,-0.8200000000000001 -1.73,-0.9199999999999999 -1.6800000000000002,-0.96 -1.6300000000000001,-1.01 -1.58,-1.04 -1.53,-1.08 -1.48,-1.11 -1.36,-1.1500000000000001 -1.31,-1.1700000000000002 -1.19,-1.19 -1.07,-1.19 -1.01,-1.18 -0.96,-1.1700000000000002 -0.8400000000000001,-1.1300000000000001 -0.79,-1.11 -0.73,-1.08 -0.68,-1.04 -0.63,-1.01 -0.49,-0.8699999999999999 -0.44999999999999996,-0.8200000000000001 -0.41000000000000003,-0.76 -0.38,-0.7000000000000001 -0.34,-0.64 -0.31,-0.5700000000000001 -0.29000000000000004,-0.51 -0.26,-0.43999999999999995 -0.24,-0.37 -0.22999999999999998,-0.3 -0.21000000000000002,-0.21999999999999997 -0.2,-0.15 -0.2,0.15 -0.21000000000000002,0.21999999999999997 -0.22999999999999998,0.3 -0.24,0.37 -0.26,0.43999999999999995 -0.29000000000000004,0.51 -0.31,0.5700000000000001 -0.34,0.64 -0.38,0.7000000000000001 -0.41000000000000003,0.76 -0.44999999999999996,0.8200000000000001 -0.49,0.8699999999999999 -0.63,1.01 -0.68,1.04 -0.73,1.08 -0.79,1.11 -0.8400000000000001,1.1300000000000001 -0.96,1.1700000000000002 -1.01,1.18 -1.07,1.19 -1.19,1.19 -1.31,1.1700000000000002 -1.36,1.1500000000000001 -1.48,1.11 -1.53,1.08 -1.58,1.04 -1.6300000000000001,1.01 -1.6800000000000002,0.96 -1.73,0.9199999999999999 -1.81,0.8200000000000001 -1.8900000000000001,0.7000000000000001 -1.92,0.64 -1.9500000000000002,0.5700000000000001 -1.98,0.51 -2.04,0.3 -2.05,0.21999999999999997 -2.06,0.15 -2.06,0.07 -2.07,0.0 -2.06,-0.07"/>
<polygon class="l0d0" points="-38.06,-0.15 -38.050000000000004,-0.21999999999999997 -38.04,-0.3 -37.980000000000004,-0.51 -37.95,-0.5700000000000001 -37.92,-0.64 -37.89,-0.7000000000000001 -37.81,-0.8200000000000001 -37.730000000000004,-0.9199999999999999 -37.68,-0.96 -37.629999999999995,-1.01 -37.58,-1.04 -37.53,-1.08 -37.480000000000004,-1.11 -37.36,-1.1500000000000001 -37.31,-1.1700000000000002 -37.19,-1.19 -37.07,-1.19 -37.01,-1.18 -36.96,-1.1700000000000002 -36.84,-1.1300000000000001 -36.79,-1.11 -36.730000000000004,-1.08 -36.68,-1.04 -36.629999999999995,-1.01 -36.49,-0.8699999999999999 -36.45,-0.8200000000000001 -36.37,-0.7000000000000001 -36.339999999999996,-0.64 -36.309999999999995,-0.5700000000000001 -36.29,-0.51 -36.26,-0.43999999999999995 -36.24,-0.37 -36.230000000000004,-0.3 -36.21,-0.21999999999999997 -36.2,-0.15 -36.2,0.15 -36.21,0.21999999999999997 -36.230000000000004,0.3 -36.24,0.37 -36.26,0.43999999999999995 -36.29,0.51 -36.309999999999995,0.5700000000000001 -36.339999999999996,0.64 -36.37,0.7000000000000001 -36.45,0.8200000000000001 -36.49,0.8699999999999999 -36.629999999999995,1.01 -36.68,1.04 -36.730000000000004,1.08 -36.79,1.11 -36.84,1.1300000000000001 -36.96,1.1700000000000002 -37.01,1.18 -37.07,1.19 -37.19,1.19 -37.31,1.1700000000000002 -37.36,1.1500000000000001 -37.480000000000004,1.11 -37.53,1.08 -37.58,1.04 -37.629999999999995,1.01 -37.68,0.96 -37.730000000000004,0.9199999999999999 -37.81,0.8200000000000001 -37.89,0.7000000000000001 -37.92,0.64 -37.95,0.5700000000000001 -37.980000000000004,0.51 -38.04,0.3 -38.050000000000004,0.21999999999999997 -38.06,0.15 -38.06,0.07 -38.07,0.0 -38.06,-0.07"/>
<polygon class="l0d0" points="-19.47,-0.15 -19.46,-0.21999999999999997 -19.45,-0.3 -19.39,-0.51 -19.36,-0.5700000000000001 -19.330000000000002,-0.64 -19.3,-0.7000000000000001 -19.22,-0.8200000000000001 -19.14,-0.9199999999999999 -19.09,-0.96 -19.04,-1.01 -18.990000000000002,-1.04 -18.939999999999998,-1.08 -18.89,-1.11 -18.77,-1.1500000000000001 -18.720000000000002,-1.1700000000000002 -18.6,-1.19 -18.48,-1.19 -18.42,-1.18 -18.37,-1.1700000000000002 -18.25,-1.1300000000000001 -18.2,-1.11 -18.14,-1.08 -18.09,-1.04 -18.04,-1.01 -17.9,-0.8699999999999999 -17.86,-0.8200000000000001 -17.82,-0.76 -17.79,-0.7000000000000001 -17.75,-0.64 -17.72,-0.5700000000000001 -17.7,-0.51 -17.669999999999998,-0.43999999999999995 -17.65,-0.37 -17.64,-0.3 -17.62,-0.21999999999999997 -17.61,-0.15 -17.61,0.15 -17.62,0.21999999999999997 -17.64,0.3 -17.65,0.37 -17.669999999999998,0.43999999999999995 -17.7,0.51 -17.72,0.5700000000000001 -17.75,0.64 -17.79,0.7000000000000001 -17.82,0.76 -17.86,0.8200000000000001 -17.9,0.8699999999999999 -18.04,1.01 -18.09,1.04 -18.14,1.08 -18.2,1.11 -18.25,1.1300000000000001 -18.37,1.1700000000000002 -18.42,1.18 -18.48,1.19 -18.6,1.19 -18.720000000000002,1.1700000000000002 -18.77,1.1500000000000001 -18.89,1.11 -18.939999999999998,1.08 -18.990000000000002,1.04 -19.04,1.01 -19.09,0.96 -19.14,0.9199999999999999 -19.22,0.8200000000000001 -19.3,0.7000000000000001 -19.330000000000002,0.64 -19.36,0.5700000000000001 -19.39,0.51 -19.45,0.3 -19.46,0.21999999999999997 -19.47,0.15 -19.47,0.07 -19.48,0.0 -19.47,-0.07"/>
<polygon class="l0d0" points="35.35,-0.1 35.36,-0.13 35.36,-0.16 35.39,-0.25 35.41,-0.28 35.42,-0.31 35.44,-0.33 35.45,-0.36 35.550000000000004,-0.45999999999999996 35.58,-0.47 35.6,-0.48 35.63,-0.5 35.65,-0.5 35.67,-0.51 35.699999999999996,-0.52 35.8,-0.52 35.83,-0.51 35.85,-0.5 35.88,-0.5 35.9,-0.48 35.93,-0.47 35.95,-0.45999999999999996 36.05,-0.36 36.07,-0.33 36.08,-0.31 36.1,-0.28 36.150000000000006,-0.13 36.150000000000006,-0.1 36.160000000000004,-0.07 36.160000000000004,0.07 36.150000000000006,0.1 36.150000000000006,0.13 36.1,0.28 36.08,0.31 36.07,0.33 36.05,0.36 35.95,0.45999999999999996 35.93,0.47 35.9,0.48 35.88,0.5 35.85,0.5 35.83,0.51 35.8,0.52 35.699999999999996,0.52 35.67,0.51 35.65,0.5 35.63,0.5 35.6,0.48 35.58,0.47 35.550000000000004,0.45999999999999996 35.45,0.36 35.44,0.33 35.42,0.31 35.41,0.28 35.39,0.25 35.36,0.16 35.36,0.13 35.35,0.1 35.35,0.07 35.339999999999996,0.03 35.339999999999996,-0.03 35.35,-0.07"/>
<polygon class="l0d0" points="2.49,-0.21999999999999997 2.5,-0.3 2.56,-0.51 2.59,-0.5700000000000001 2.62,-0.64 2.68,-0.76 2.72,-0.8200000000000001 2.7700000000000005,-0.8699999999999999 2.8100000000000005,-0.9199999999999999 2.86,-0.96 2.9,-1.01 2.9499999999999997,-1.04 3.01,-1.08 3.06,-1.11 3.12,-1.1300000000000001 3.17,-1.1500000000000001 3.23,-1.1700000000000002 3.35,-1.19 3.46,-1.19 3.58,-1.1700000000000002 3.6399999999999997,-1.1500000000000001 3.69,-1.1300000000000001 3.75,-1.11 3.8,-1.08 3.8600000000000003,-1.04 3.91,-1.01 3.95,-0.96 4.0,-0.9199999999999999 4.04,-0.8699999999999999 4.09,-0.8200000000000001 4.13,-0.76 4.1899999999999995,-0.64 4.22,-0.5700000000000001 4.25,-0.51 4.31,-0.3 4.32,-0.21999999999999997 4.33,-0.15 4.34,-0.07 4.34,0.07 4.33,0.15 4.32,0.21999999999999997 4.31,0.3 4.25,0.51 4.22,0.5700000000000001 4.1899999999999995,0.64 4.13,0.76 4.09,0.8200000000000001 4.04,0.8699999999999999 4.0,0.9199999999999999 3.95,0.96 3.91,1.01 3.8600000000000003,1.04 3.8,1.08 3.75,1.11 3.69,1.1300000000000001 3.6399999999999997,1.1500000000000001 3.58,1.1700000000000002 3.46,1.19 3.35,1.19 3.23,1.1700000000000002 3.17,1.1500000000000001 3.12,1.1300000000000001 3.06,1.11 3.01,1.08 2.9499999999999997,1.04 2.9,1.01 2.86,0.96 2.8100000000000005,0.9199999999999999 2.7700000000000005,0.8699999999999999 2.72,0.8200000000000001 2.68,0.76 2.62,0.64 2.59,0.5700000000000001 2.56,0.51 2.5,0.3 2.49,0.21999999999999997 2.48,0.15 2.4699999999999998,0.07 2.4699999999999998,-0.07 2.48,-0.15"/>
<polygon class="l0d0" points="26.78,0.21999999999999997 26.76,0.3 26.75,0.37 26.73,0.43999999999999995 26.7,0.51 26.68,0.5700000000000001 26.65,0.64 26.61,0.7000000000000001 26.58,0.76 26.54,0.8200000000000001 26.5,0.8699999999999999 26.36,1.01 26.31,1.04 26.259999999999998,1.08 26.200000000000003,1.11 26.150000000000002,1.1300000000000001 26.03,1.1700000000000002 25.979999999999997,1.18 25.92,1.19 25.8,1.19 25.68,1.1700000000000002 25.630000000000003,1.1500000000000001 25.51,1.11 25.459999999999997,1.08 25.41,1.04 25.36,1.01 25.310000000000002,0.96 25.259999999999998,0.9199999999999999 25.18,0.8200000000000001 25.099999999999998,0.7000000000000001 25.07,0.64 25.04,0.5700000000000001 25.009999999999998,0.51 24.950000000000003,0.3 24.94,0.21999999999999997 24.93,0.15 24.93,0.05 24.92,0.0 24.93,-0.07 24.93,-0.16 24.94,-0.21999999999999997 24.950000000000003,-0.3 25.009999999999998,-0.51 25.04,-0.5700000000000001 25.07,-0.64 25.099999999999998,-0.7000000000000001 25.18,-0.8200000000000001 25.259999999999998,-0.9199999999999999 25.310000000000002,-0.96 25.36,-1.01 25.41,-1.04 25.459999999999997,-1.08 25.51,-1.11 25.630000000000003,-1.1500000000000001 25.68,-1.1700000000000002 25.8,-1.19 25.92,-1.19 25.979999999999997,-1.18 26.03,-1.1700000000000002 26.150000000000002,-1.1300000000000001 26.200000000000003,-1.11 26.259999999999998,-1.08 26.31,-1.04 26.36,-1.01 26.5,-0.8699999999999999 26.54,-0.8200000000000001 26.58,-0.76 26.61,-0.7000000000000001 26.65,-0.64 26.68,-0.5700000000000001 26.7,-0.51 26.73,-0.43999999999999995 26.75,-0.37 26.76,-0.3 26.78,-0.21999999999999997 26.79,-0.15 26.79,0.15"/>
<polygon class="l0d0" points="-38.86,0.15 -38.87,0.21999999999999997 -38.879999999999995,0.3 -38.94,0.51 -38.97,0.5700000000000001 -39.0,0.64 -39.03,0.7000000000000001 -39.11,0.8200000000000001 -39.19,0.9199999999999999 -39.24,0.96 -39.29,1.01 -39.34,1.04 -39.39,1.08 -39.44,1.11 -39.5,1.1300000000000001 -39.55,1.1500000000000001 -39.61,1.1700000000000002 -39.73,1.19 -39.85,1.19 -39.900000000000006,1.18 -39.96,1.1700000000000002 -40.08,1.1300000000000001 -40.129999999999995,1.11 -40.18,1.08 -40.24,1.04 -40.29,1.01 -40.43,0.8699999999999999 -40.47,0.8200000000000001 -40.510000000000005,0.76 -40.540000000000006,0.7000000000000001 -40.58,0.64 -40.61,0.5700000000000001 -40.629999999999995,0.51 -40.66,0.43999999999999995 -40.67999999999999,0.37 -40.69,0.3 -40.7,0.21999999999999997 -40.709999999999994,0.15 -40.72,0.07 -40.72,-0.07 -40.709999999999994,-0.15 -40.7,-0.21999999999999997 -40.69,-0.3 -40.67999999999999,-0.37 -40.66,-0.43999999999999995 -40.629999999999995,-0.51 -40.61,-0.5700000000000001 -40.58,-0.64 -40.540000000000006,-0.7000000000000001 -40.510000000000005,-0.76 -40.47,-0.8200000000000001 -40.43,-0.8699999999999999 -40.29,-1.01 -40.24,-1.04 -40.18,-1.08 -40.129999999999995,-1.11 -40.08,-1.1300000000000001 -39.96,-1.1700000000000002 -39.900000000000006,-1.18 -39.85,-1.19 -39.73,-1.19 -39.61,-1.1700000000000002 -39.55,-1.1500000000000001 -39.5,-1.1300000000000001 -39.44,-1.11 -39.39,-1.08 -39.34,-1.04 -39.29,-1.01 -39.24,-0.96 -39.19,-0.9199999999999999 -39.11,-0.8200000000000001 -39.03,-0.7000000000000001 -39.0,-0.64 -38.97,-0.5700000000000001 -38.94,-0.51 -38.879999999999995,-0.3 -38.87,-0.21999999999999997 -38.86,-0.15 -38.849999999999994,-0.07 -38.849999999999994,0.07"/>
<polygon class="l0d0" points="9.62,-0.21999999999999997 9.64,-0.3 9.65,-0.37 9.67,-0.43999999999999995 9.7,-0.51 9.719999999999999,-0.5700000000000001 9.75,-0.64 9.79,-0.7000000000000001 9.82,-0.76 9.86,-0.8200000000000001 9.9,-0.8699999999999999 10.04,-1.01 10.09,-1.04 10.14,-1.08 10.2,-1.11 10.25,-1.1300000000000001 10.37,-1.1700000000000002 10.43,-1.18 10.48,-1.19 10.600000000000001,-1.19 10.72,-1.1700000000000002 10.780000000000001,-1.1500000000000001 10.83,-1.1300000000000001 10.89,-1.11 10.940000000000001,-1.08 10.99,-1.04 11.040000000000001,-1.01 11.09,-0.96 11.14,-0.9199999999999999 11.22,-0.8200000000000001 11.299999999999999,-0.7000000000000001 11.33,-0.64 11.36,-0.5700000000000001 11.39,-0.51 11.45,-0.3 11.459999999999999,-0.21999999999999997 11.47,-0.15 11.479999999999999,-0.07 11.479999999999999,0.07 11.47,0.15 11.459999999999999,0.21999999999999997 11.45,0.3 11.39,0.51 11.36,0.5700000000000001 11.33,0.64 11.299999999999999,0.7000000000000001 11.22,0.8200000000000001 11.14,0.9199999999999999 11.09,0.96 11.040000000000001,1.01 10.99,1.04 10.940000000000001,1.08 10.89,1.11 10.83,1.1300000000000001 10.780000000000001,1.1500000000000001 10.72,1.1700000000000002 10.600000000000001,1.19 10.48,1.19 10.43,1.18 10.37,1.1700000000000002 10.25,1.1300000000000001 10.2,1.11 10.14,1.08 10.09,1.04 10.04,1.01 9.9,0.8699999999999999 9.86,0.8200000000000001 9.82,0.76 9.79,0.7000000000000001 9.75,0.64 9.719999999999999,0.5700000000000001 9.7,0.51 9.67,0.43999999999999995 9.65,0.37 9.64,0.3 9.62,0.21999999999999997 9.62,0.15 9.61,0.07 9.61,-0.07 9.62,-0.15"/>
<polygon class="l0d0" points="9.02,0.15 9.01,0.21999999999999997 9.0,0.3 8.94,0.51 8.91,0.5700000000000001 8.88,0.64 8.85,0.7000000000000001 8.81,0.76 8.78,0.8200000000000001 8.73,0.8699999999999999 8.69,0.9199999999999999 8.64,0.96 8.6,1.01 8.54,1.04 8.49,1.08 8.44,1.11 8.379999999999999,1.1300000000000001 8.33,1.1500000000000001 8.27,1.1700000000000002 8.149999999999999,1.19 8.040000000000001,1.19 7.92,1.1700000000000002 7.86,1.1500000000000001 7.8100000000000005,1.1300000000000001 7.75,1.11 7.7,1.08 7.640000000000001,1.04 7.59,1.01 7.45,0.8699999999999999 7.41,0.8200000000000001 7.37,0.76 7.34,0.7000000000000001 7.3,0.64 7.279999999999999,0.5700000000000001 7.25,0.51 7.1899999999999995,0.3 7.18,0.21999999999999997 7.17,0.15 7.16,0.07 7.16,-0.07 7.17,-0.15 7.18,-0.21999999999999997 7.1899999999999995,-0.3 7.25,-0.51 7.279999999999999,-0.5700000000000001 7.3,-0.64 7.34,-0.7000000000000001 7.37,-0.76 7.41,-0.8200000000000001 7.45,-0.8699999999999999 7.59,-1.01 7.640000000000001,-1.04 7.7,-1.08 7.75,-1.11 7.8100000000000005,-1.1300000000000001 7.86,-1.1500000000000001 7.92,-1.1700000000000002 8.040000000000001,-1.19 8.149999999999999,-1.19 8.27,-1.1700000000000002 8.33,-1.1500000000000001 8.379999999999999,-1.1300000000000001 8.44,-1.11 8.49,-1.08 8.54,-1.04 8.6,-1.01 8.64,-0.96 8.69,-0.9199999999999999 8.73,-0.8699999999999999 8.78,-0.8200000000000001 8.81,-0.76 8.85,-0.7000000000000001 8.88,-0.64 8.91,-0.5700000000000001 8.94,-0.51 9.0,-0.3 9.01,-0.21999999999999997 9.02,-0.15 9.030000000000001,-0.07 9.030000000000001,0.07"/>
<polygon class="l0d0" points="-6.65,-0.21999999999999997 -6.640000000000001,-0.3 -6.630000000000001,-0.37 -6.61,-0.43999999999999995 -6.58,-0.51 -6.5600000000000005,-0.5700000000000001 -6.53,-0.64 -6.49,-0.7000000000000001 -6.46,-0.76 -6.42,-0.8200000000000001 -6.38,-0.8699999999999999 -6.24,-1.01 -6.1899999999999995,-1.04 -6.13,-1.08 -6.08,-1.11 -6.029999999999999,-1.1300000000000001 -5.91,-1.1700000000000002 -5.85,-1.18 -5.8,-1.19 -5.68,-1.19 -5.5600000000000005,-1.1700000000000002 -5.5,-1.1500000000000001 -5.45,-1.1300000000000001 -5.390000000000001,-1.11 -5.34,-1.08 -5.29,-1.04 -5.24,-1.01 -5.19,-0.96 -5.140000000000001,-0.9199999999999999 -5.0600000000000005,-0.8200000000000001 -4.98,-0.7000000000000001 -4.95,-0.64 -4.92,-0.5700000000000001 -4.89,-0.51 -4.83,-0.3 -4.82,-0.21999999999999997 -4.81,-0.15 -4.8,-0.07 -4.8,0.07 -4.81,0.15 -4.82,0.21999999999999997 -4.83,0.3 -4.89,0.51 -4.92,0.5700000000000001 -4.95,0.64 -4.98,0.7000000000000001 -5.0600000000000005,0.8200000000000001 -5.140000000000001,0.9199999999999999 -5.19,0.96 -5.24,1.01 -5.29,1.04 -5.34,1.08 -5.390000000000001,1.11 -5.45,1.1300000000000001 -5.5,1.1500000000000001 -5.5600000000000005,1.1700000000000002 -5.68,1.19 -5.8,1.19 -5.85,1.18 -5.91,1.1700000000000002 -6.029999999999999,1.1300000000000001 -6.08,1.11 -6.13,1.08 -6.1899999999999995,1.04 -6.24,1.01 -6.38,0.8699999999999999 -6.42,0.8200000000000001 -6.46,0.76 -6.49,0.7000000000000001 -6.53,0.64 -6.5600000000000005,0.5700000000000001 -6.58,0.51 -6.61,0.43999999999999995 -6.630000000000001,0.37 -6.640000000000001,0.3 -6.65,0.21999999999999997 -6.66,0.15 -6.67,0.07 -6.67,-0.07 -6.66,-0.15"/>
<polygon class="l0d0" points="14.690000000000001,-0.21999999999999997 14.7,-0.3 14.76,-0.51 14.790000000000001,-0.5700000000000001 14.82,-0.64 14.850000000000001,-0.7000000000000001 14.930000000000001,-0.8200000000000001 15.009999999999998,-0.9199999999999999 15.06,-0.96 15.11,-1.01 15.16,-1.04 15.209999999999999,-1.08 15.26,-1.11 15.32,-1.1300000000000001 15.37,-1.1500000000000001 15.43,-1.1700000000000002 15.549999999999999,-1.19 15.67,-1.19 15.72,-1.18 15.780000000000001,-1.1700000000000002 15.9,-1.1300000000000001 15.95,-1.11 16.009999999999998,-1.08 16.060000000000002,-1.04 16.11,-1.01 16.25,-0.8699999999999999 16.29,-0.8200000000000001 16.33,-0.76 16.36,-0.7000000000000001 16.4,-0.64 16.43,-0.5700000000000001 16.45,-0.51 16.48,-0.43999999999999995 16.5,-0.37 16.51,-0.3 16.53,-0.21999999999999997 16.53,-0.15 16.54,-0.07 16.54,0.07 16.53,0.15 16.53,0.21999999999999997 16.51,0.3 16.5,0.37 16.48,0.43999999999999995 16.45,0.51 16.43,0.5700000000000001 16.4,0.64 16.36,0.7000000000000001 16.33,0.76 16.29,0.8200000000000001 16.25,0.8699999999999999 16.11,1.01 16.060000000000002,1.04 16.009999999999998,1.08 15.95,1.11 15.9,1.1300000000000001 15.780000000000001,1.1700000000000002 15.72,1.18 15.67,1.19 15.549999999999999,1.19 15.43,1.1700000000000002 15.37,1.1500000000000001 15.32,1.1300000000000001 15.26,1.11 15.209999999999999,1.08 15.16,1.04 15.11,1.01 15.06,0.96 15.009999999999998,0.9199999999999999 14.930000000000001,0.8200000000000001 14.850000000000001,0.7000000000000001 14.82,0.64 14.790000000000001,0.5700000000000001 14.76,0.51 14.7,0.3 14.690000000000001,0.21999999999999997 14.68,0.15 14.670000000000002,0.07 14.670000000000002,-0.07 14.68,-0.15"/>
<polygon class="l0d0" points="19.810000000000002,-0.21999999999999997 19.830000000000002,-0.3 19.84,-0.37 19.86,-0.43999999999999995 19.89,-0.51 19.91,-0.5700000000000001 19.94,-0.64 19.98,-0.7000000000000001 20.009999999999998,-0.76 20.049999999999997,-0.8200000000000001 20.09,-0.8699999999999999 20.23,-1.01 20.28,-1.04 20.33,-1.08 20.39,-1.11 20.44,-1.1300000000000001 20.560000000000002,-1.1700000000000002 20.619999999999997,-1.18 20.67,-1.19 20.790000000000003,-1.19 20.910000000000004,-1.1700000000000002 20.96,-1.1500000000000001 21.080000000000002,-1.11 21.13,-1.08 21.18,-1.04 21.230000000000004,-1.01 21.28,-0.96 21.33,-0.9199999999999999 21.41,-0.8200000000000001 21.490000000000002,-0.7000000000000001 21.520000000000003,-0.64 21.549999999999997,-0.5700000000000001 21.58,-0.51 21.64,-0.3 21.65,-0.21999999999999997 21.66,-0.15 21.669999999999998,-0.07 21.669999999999998,0.07 21.66,0.15 21.65,0.21999999999999997 21.64,0.3 21.58,0.51 21.549999999999997,0.5700000000000001 21.520000000000003,0.64 21.490000000000002,0.7000000000000001 21.41,0.8200000000000001 21.33,0.9199999999999999 21.28,0.96 21.230000000000004,1.01 21.18,1.04 21.13,1.08 21.080000000000002,1.11 20.96,1.1500000000000001 20.910000000000004,1.1700000000000002 20.790000000000003,1.19 20.67,1.19 20.619999999999997,1.18 20.560000000000002,1.1700000000000002 20.44,1.1300000000000001 20.39,1.11 20.33,1.08 20.28,1.04 20.23,1.01 20.09,0.8699999999999999 20.049999999999997,0.8200000000000001 20.009999999999998,0.76 19.98,0.7000000000000001 19.94,0.64 19.91,0.5700000000000001 19.89,0.51 19.86,0.43999999999999995 19.84,0.37 19.830000000000002,0.3 19.810000000000002,0.21999999999999997 19.810000000000002,0.15 19.8,0.07 19.8,-0.07 19.810000000000002,-0.15"/>
<polygon class="l0d0" points="22.38,-0.21999999999999997 22.39,-0.3 22.450000000000003,-0.51 22.480000000000004,-0.5700000000000001 22.509999999999998,-0.64 22.54,-0.7000000000000001 22.58,-0.76 22.61,-0.8200000000000001 22.66,-0.8699999999999999 22.7,-0.9199999999999999 22.75,-0.96 22.79,-1.01 22.839999999999996,-1.04 22.9,-1.08 22.95,-1.11 23.01,-1.1300000000000001 23.060000000000002,-1.1500000000000001 23.119999999999997,-1.1700000000000002 23.24,-1.19 23.35,-1.19 23.47,-1.1700000000000002 23.53,-1.1500000000000001 23.580000000000002,-1.1300000000000001 23.64,-1.11 23.69,-1.08 23.75,-1.04 23.799999999999997,-1.01 23.84,-0.96 23.889999999999997,-0.9199999999999999 23.94,-0.8699999999999999 23.98,-0.8200000000000001 24.020000000000003,-0.76 24.08,-0.64 24.11,-0.5700000000000001 24.14,-0.51 24.2,-0.3 24.209999999999997,-0.21999999999999997 24.220000000000002,-0.15 24.23,-0.07 24.23,0.07 24.220000000000002,0.15 24.209999999999997,0.21999999999999997 24.2,0.3 24.14,0.51 24.11,0.5700000000000001 24.08,0.64 24.020000000000003,0.76 23.98,0.8200000000000001 23.94,0.8699999999999999 23.889999999999997,0.9199999999999999 23.84,0.96 23.799999999999997,1.01 23.75,1.04 23.69,1.08 23.64,1.11 23.580000000000002,1.1300000000000001 23.53,1.1500000000000001 23.47,1.1700000000000002 23.35,1.19 23.24,1.19 23.119999999999997,1.1700000000000002 23.060000000000002,1.1500000000000001 23.01,1.1300000000000001 22.95,1.11 22.9,1.08 22.839999999999996,1.04 22.79,1.01 22.75,0.96 22.7,0.9199999999999999 22.66,0.8699999999999999 22.61,0.8200000000000001 22.58,0.76 22.54,0.7000000000000001 22.509999999999998,0.64 22.480000000000004,0.5700000000000001 22.450000000000003,0.51 22.39,0.3 22.38,0.21999999999999997 22.37,0.15 22.360000000000003,0.07 22.360000000000003,-0.07 22.37,-0.15"/>
<polygon class="l0d0" points="-14.16,-0.21999999999999997 -14.15,-0.3 -14.09,-0.51 -14.059999999999999,-0.5700000000000001 -14.030000000000001,-0.64 -13.97,-0.76 -13.93,-0.8200000000000001 -13.879999999999999,-0.8699999999999999 -13.84,-0.9199999999999999 -13.79,-0.96 -13.75,-1.01 -13.700000000000001,-1.04 -13.64,-1.08 -13.59,-1.11 -13.53,-1.1300000000000001 -13.48,-1.1500000000000001 -13.420000000000002,-1.1700000000000002 -13.3,-1.19 -13.19,-1.19 -13.07,-1.1700000000000002 -13.01,-1.1500000000000001 -12.96,-1.1300000000000001 -12.9,-1.11 -12.85,-1.08 -12.79,-1.04 -12.74,-1.01 -12.7,-0.96 -12.649999999999999,-0.9199999999999999 -12.61,-0.8699999999999999 -12.56,-0.8200000000000001 -12.52,-0.76 -12.46,-0.64 -12.430000000000001,-0.5700000000000001 -12.4,-0.51 -12.34,-0.3 -12.330000000000002,-0.21999999999999997 -12.32,-0.15 -12.31,-0.07 -12.31,0.07 -12.32,0.15 -12.330000000000002,0.21999999999999997 -12.34,0.3 -12.4,0.51 -12.430000000000001,0.5700000000000001 -12.46,0.64 -12.52,0.76 -12.56,0.8200000000000001 -12.61,0.8699999999999999 -12.649999999999999,0.9199999999999999 -12.7,0.96 -12.74,1.01 -12.79,1.04 -12.85,1.08 -12.9,1.11 -12.96,1.1300000000000001 -13.01,1.1500000000000001 -13.07,1.1700000000000002 -13.19,1.19 -13.3,1.19 -13.420000000000002,1.1700000000000002 -13.48,1.1500000000000001 -13.53,1.1300000000000001 -13.59,1.11 -13.64,1.08 -13.700000000000001,1.04 -13.75,1.01 -13.79,0.96 -13.84,0.9199999999999999 -13.879999999999999,0.8699999999999999 -13.93,0.8200000000000001 -13.97,0.76 -14.030000000000001,0.64 -14.059999999999999,0.5700000000000001 -14.09,0.51 -14.15,0.3 -14.16,0.21999999999999997 -14.17,0.15 -14.18,0.07 -14.18,-0.07 -14.17,-0.15"/>
<polygon class="l0d0" points="-24.77,-0.21999999999999997 -24.759999999999998,-0.3 -24.700000000000003,-0.51 -24.67,-0.5700000000000001 -24.64,-0.64 -24.61,-0.7000000000000001 -24.529999999999998,-0.8200000000000001 -24.45,-0.9199999999999999 -24.4,-0.96 -24.35,-1.01 -24.3,-1.04 -24.25,-1.08 -24.2,-1.11 -24.14,-1.1300000000000001 -24.089999999999996,-1.1500000000000001 -24.03,-1.1700000000000002 -23.91,-1.19 -23.79,-1.19 -23.740000000000002,-1.18 -23.68,-1.1700000000000002 -23.56,-1.1300000000000001 -23.509999999999998,-1.11 -23.450000000000003,-1.08 -23.4,-1.04 -23.35,-1.01 -23.21,-0.8699999999999999 -23.17,-0.8200000000000001 -23.130000000000003,-0.76 -23.1,-0.7000000000000001 -23.060000000000002,-0.64 -23.03,-0.5700000000000001 -23.01,-0.51 -22.98,-0.43999999999999995 -22.959999999999997,-0.37 -22.95,-0.3 -22.93,-0.21999999999999997 -22.93,-0.15 -22.919999999999998,-0.07 -22.919999999999998,0.07 -22.93,0.15 -22.93,0.21999999999999997 -22.95,0.3 -22.959999999999997,0.37 -22.98,0.43999999999999995 -23.01,0.51 -23.03,0.5700000000000001 -23.060000000000002,0.64 -23.1,0.7000000000000001 -23.130000000000003,0.76 -23.17,0.8200000000000001 -23.21,0.8699999999999999 -23.35,1.01 -23.4,1.04 -23.450000000000003,1.08 -23.509999999999998,1.11 -23.56,1.1300000000000001 -23.68,1.1700000000000002 -23.740000000000002,1.18 -23.79,1.19 -23.91,1.19 -24.03,1.1700000000000002 -24.089999999999996,1.1500000000000001 -24.14,1.1300000000000001 -24.2,1.11 -24.25,1.08 -24.3,1.04 -24.35,1.01 -24.4,0.96 -24.45,0.9199999999999999 -24.529999999999998,0.8200000000000001 -24.61,0.7000000000000001 -24.64,0.64 -24.67,0.5700000000000001 -24.700000000000003,0.51 -24.759999999999998,0.3 -24.77,0.21999999999999997 -24.78,0.15 -24.79,0.07 -24.79,-0.07 -24.78,-0.15"/>
<polygon class="l0d0" points="34.1,0.10999999999999999 34.1,0.16 34.08,0.26 34.06,0.32 34.05,0.36 34.03,0.41000000000000003 34.0,0.45999999999999996 33.980000000000004,0.5 33.96,0.55 33.93,0.59 33.9,0.62 33.87,0.66 33.83,0.6900000000000001 33.8,0.72 33.76,0.75 33.72,0.77 33.690000000000005,0.8 33.650000000000006,0.81 33.6,0.8300000000000001 33.519999999999996,0.8500000000000001 33.48,0.8500000000000001 33.44,0.8599999999999999 33.4,0.8500000000000001 33.35,0.8500000000000001 33.269999999999996,0.8300000000000001 33.23,0.81 33.19,0.8 33.15,0.77 33.11,0.75 33.08,0.72 33.04,0.6900000000000001 33.010000000000005,0.66 32.980000000000004,0.62 32.95,0.59 32.92,0.55 32.89,0.5 32.87,0.45999999999999996 32.83,0.36 32.81,0.32 32.8,0.26 32.77,0.10999999999999999 32.77,-0.10999999999999999 32.8,-0.26 32.81,-0.32 32.83,-0.36 32.87,-0.45999999999999996 32.89,-0.5 32.92,-0.55 32.95,-0.59 32.980000000000004,-0.62 33.010000000000005,-0.66 33.04,-0.6900000000000001 33.08,-0.72 33.11,-0.75 33.15,-0.77 33.19,-0.8 33.23,-0.81 33.269999999999996,-0.8300000000000001 33.35,-0.8500000000000001 33.4,-0.8500000000000001 33.44,-0.8599999999999999 33.48,-0.8500000000000001 33.519999999999996,-0.8500000000000001 33.6,-0.8300000000000001 33.650000000000006,-0.81 33.690000000000005,-0.8 33.72,-0.77 33.76,-0.75 33.8,-0.72 33.83,-0.6900000000000001 33.87,-0.66 33.9,-0.62 33.93,-0.59 33.96,-0.55 33.980000000000004,-0.5 34.0,-0.45999999999999996 34.03,-0.41000000000000003 34.05,-0.36 34.06,-0.32 34.08,-0.26 34.1,-0.16 34.1,-0.10999999999999999 34.11,-0.05 34.11,0.05"/>
<polygon class="l0d0" points="-32.730000000000004,-0.3 -32.67,-0.51 -32.64,-0.5700000000000001 -32.61,-0.64 -32.58,-0.7000000000000001 -32.5,-0.8200000000000001 -32.42,-0.9199999999999999 -32.370000000000005,-0.96 -32.32,-1.01 -32.269999999999996,-1.04 -32.22,-1.08 -32.160000000000004,-1.11 -32.11,-1.1300000000000001 -31.99,-1.1700000000000002 -31.939999999999998,-1.18 -31.880000000000003,-1.19 -31.76,-1.19 -31.64,-1.1700000000000002 -31.589999999999996,-1.1500000000000001 -31.53,-1.1300000000000001 -31.48,-1.11 -31.419999999999998,-1.08 -31.37,-1.04 -31.32,-1.01 -31.269999999999996,-0.96 -31.22,-0.9199999999999999 -31.14,-0.8200000000000001 -31.06,-0.7000000000000001 -31.03,-0.64 -31.0,-0.5700000000000001 -30.97,-0.51 -30.910000000000004,-0.3 -30.9,-0.21999999999999997 -30.89,-0.15 -30.89,0.15 -30.9,0.21999999999999997 -30.910000000000004,0.3 -30.97,0.51 -31.0,0.5700000000000001 -31.03,0.64 -31.06,0.7000000000000001 -31.14,0.8200000000000001 -31.22,0.9199999999999999 -31.269999999999996,0.96 -31.32,1.01 -31.37,1.04 -31.419999999999998,1.08 -31.48,1.11 -31.53,1.1300000000000001 -31.589999999999996,1.1500000000000001 -31.64,1.1700000000000002 -31.76,1.19 -31.880000000000003,1.19 -31.939999999999998,1.18 -31.99,1.1700000000000002 -32.11,1.1300000000000001 -32.160000000000004,1.11 -32.22,1.08 -32.269999999999996,1.04 -32.32,1.01 -32.370000000000005,0.96 -32.42,0.9199999999999999 -32.5,0.8200000000000001 -32.58,0.7000000000000001 -32.61,0.64 -32.64,0.5700000000000001 -32.67,0.51 -32.730000000000004,0.3 -32.74,0.21999999999999997 -32.75,0.15 -32.75,-0.15 -32.74,-0.21999999999999997"/>
<polygon class="l0d0" points="27.519999999999996,-0.3 27.53,-0.37 27.57,-0.51 27.599999999999998,-0.5700000000000001 27.63,-0.64 27.66,-0.7000000000000001 27.740000000000002,-0.8200000000000001 27.82,-0.9199999999999999 27.869999999999997,-0.96 27.919999999999998,-1.01 27.970000000000002,-1.04 28.02,-1.08 28.08,-1.11 28.130000000000003,-1.1300000000000001 28.25,-1.1700000000000002 28.3,-1.18 28.36,-1.19 28.479999999999997,-1.19 28.599999999999998,-1.1700000000000002 28.650000000000002,-1.1500000000000001 28.71,-1.1300000000000001 28.759999999999998,-1.11 28.82,-1.08 28.87,-1.04 28.919999999999998,-1.01 28.97,-0.96 29.020000000000003,-0.9199999999999999 29.1,-0.8200000000000001 29.18,-0.7000000000000001 29.209999999999997,-0.64 29.24,-0.5700000000000001 29.27,-0.51 29.33,-0.3 29.340000000000003,-0.21999999999999997 29.35,-0.15 29.35,-0.07 29.36,0.0 29.35,0.07 29.35,0.15 29.340000000000003,0.21999999999999997 29.33,0.3 29.27,0.51 29.24,0.5700000000000001 29.209999999999997,0.64 29.18,0.7000000000000001 29.1,0.8200000000000001 29.020000000000003,0.9199999999999999 28.97,0.96 28.919999999999998,1.01 28.87,1.04 28.82,1.08 28.759999999999998,1.11 28.71,1.1300000000000001 28.650000000000002,1.1500000000000001 28.599999999999998,1.1700000000000002 28.479999999999997,1.19 28.36,1.19 28.3,1.18 28.25,1.1700000000000002 28.130000000000003,1.1300000000000001 28.08,1.11 28.02,1.08 27.970000000000002,1.04 27.919999999999998,1.01 27.869999999999997,0.96 27.82,0.9199999999999999 27.740000000000002,0.8200000000000001 27.66,0.7000000000000001 27.63,0.64 27.599999999999998,0.5700000000000001 27.57,0.51 27.53,0.37 27.519999999999996,0.3 27.5,0.21999999999999997 27.490000000000002,0.15 27.490000000000002,-0.15 27.5,-0.21999999999999997"/>
<polygon class="l0d0" points="-25.58,0.07 -25.58,0.15 -25.590000000000003,0.21999999999999997 -25.6,0.3 -25.659999999999997,0.51 -25.689999999999998,0.5700000000000001 -25.72,0.64 -25.75,0.7000000000000001 -25.830000000000002,0.8200000000000001 -25.910000000000004,0.9199999999999999 -25.96,0.96 -26.009999999999998,1.01 -26.06,1.04 -26.110000000000003,1.08 -26.16,1.11 -26.28,1.1500000000000001 -26.33,1.1700000000000002 -26.45,1.19 -26.57,1.19 -26.63,1.18 -26.68,1.1700000000000002 -26.8,1.1300000000000001 -26.85,1.11 -26.909999999999997,1.08 -26.96,1.04 -27.01,1.01 -27.15,0.8699999999999999 -27.189999999999998,0.8200000000000001 -27.229999999999997,0.76 -27.259999999999998,0.7000000000000001 -27.3,0.64 -27.330000000000002,0.5700000000000001 -27.349999999999998,0.51 -27.38,0.43999999999999995 -27.400000000000002,0.37 -27.41,0.3 -27.43,0.21999999999999997 -27.44,0.15 -27.44,-0.15 -27.43,-0.21999999999999997 -27.41,-0.3 -27.400000000000002,-0.37 -27.38,-0.43999999999999995 -27.349999999999998,-0.51 -27.330000000000002,-0.5700000000000001 -27.3,-0.64 -27.259999999999998,-0.7000000000000001 -27.229999999999997,-0.76 -27.189999999999998,-0.8200000000000001 -27.15,-0.8699999999999999 -27.01,-1.01 -26.96,-1.04 -26.909999999999997,-1.08 -26.85,-1.11 -26.8,-1.1300000000000001 -26.68,-1.1700000000000002 -26.63,-1.18 -26.57,-1.19 -26.45,-1.19 -26.33,-1.1700000000000002 -26.28,-1.1500000000000001 -26.16,-1.11 -26.110000000000003,-1.08 -26.06,-1.04 -26.009999999999998,-1.01 -25.96,-0.96 -25.910000000000004,-0.9199999999999999 -25.830000000000002,-0.8200000000000001 -25.75,-0.7000000000000001 -25.72,-0.64 -25.689999999999998,-0.5700000000000001 -25.659999999999997,-0.51 -25.6,-0.3 -25.590000000000003,-0.21999999999999997 -25.58,-0.15 -25.58,-0.07 -25.57,0.0"/>
<polygon class="l0d0" points="-7.22,0.07 -7.22,0.15 -7.2299999999999995,0.21999999999999997 -7.24,0.3 -7.3,0.51 -7.33,0.5700000000000001 -7.359999999999999,0.64 -7.39,0.7000000000000001 -7.47,0.8200000000000001 -7.55,0.9199999999999999 -7.6,0.96 -7.65,1.01 -7.7,1.04 -7.75,1.08 -7.800000000000001,1.11 -7.92,1.1500000000000001 -7.970000000000001,1.1700000000000002 -8.09,1.19 -8.209999999999999,1.19 -8.27,1.18 -8.32,1.1700000000000002 -8.44,1.1300000000000001 -8.49,1.11 -8.55,1.08 -8.6,1.04 -8.65,1.01 -8.79,0.8699999999999999 -8.83,0.8200000000000001 -8.870000000000001,0.76 -8.9,0.7000000000000001 -8.94,0.64 -8.97,0.5700000000000001 -8.99,0.51 -9.02,0.43999999999999995 -9.040000000000001,0.37 -9.05,0.3 -9.07,0.21999999999999997 -9.08,0.15 -9.08,-0.15 -9.07,-0.21999999999999997 -9.05,-0.3 -9.040000000000001,-0.37 -9.02,-0.43999999999999995 -8.99,-0.51 -8.97,-0.5700000000000001 -8.94,-0.64 -8.9,-0.7000000000000001 -8.870000000000001,-0.76 -8.83,-0.8200000000000001 -8.79,-0.8699999999999999 -8.65,-1.01 -8.6,-1.04 -8.55,-1.08 -8.49,-1.11 -8.44,-1.1300000000000001 -8.32,-1.1700000000000002 -8.27,-1.18 -8.209999999999999,-1.19 -8.09,-1.19 -7.970000000000001,-1.1700000000000002 -7.92,-1.1500000000000001 -7.800000000000001,-1.11 -7.75,-1.08 -7.7,-1.04 -7.65,-1.01 -7.6,-0.96 -7.55,-0.9199999999999999 -7.47,-0.8200000000000001 -7.39,-0.7000000000000001 -7.359999999999999,-0.64 -7.33,-0.5700000000000001 -7.3,-0.51 -7.24,-0.3 -7.2299999999999995,-0.21999999999999997 -7.22,-0.15 -7.22,-0.07 -7.21,0.0"/>
<polygon class="l0d0" points="-20.270000000000003,0.15 -20.28,0.21999999999999997 -20.29,0.3 -20.35,0.51 -20.38,0.5700000000000001 -20.41,0.64 -20.44,0.7000000000000001 -20.52,0.8200000000000001 -20.6,0.9199999999999999 -20.65,0.96 -20.7,1.01 -20.75,1.04 -20.8,1.08 -20.85,1.11 -20.910000000000004,1.1300000000000001 -20.96,1.1500000000000001 -21.02,1.1700000000000002 -21.14,1.19 -21.259999999999998,1.19 -21.31,1.18 -21.37,1.1700000000000002 -21.490000000000002,1.1300000000000001 -21.54,1.11 -21.6,1.08 -21.65,1.04 -21.7,1.01 -21.840000000000003,0.8699999999999999 -21.880000000000003,0.8200000000000001 -21.92,0.76 -21.95,0.7000000000000001 -21.99,0.64 -22.02,0.5700000000000001 -22.040000000000003,0.51 -22.07,0.43999999999999995 -22.09,0.37 -22.09,0.36 -22.1,0.3 -22.12,0.21999999999999997 -22.12,0.15 -22.130000000000003,0.07 -22.130000000000003,-0.07 -22.12,-0.15 -22.12,-0.21999999999999997 -22.1,-0.3 -22.09,-0.37 -22.07,-0.43999999999999995 -22.040000000000003,-0.51 -22.02,-0.5700000000000001 -21.99,-0.64 -21.95,-0.7000000000000001 -21.92,-0.76 -21.880000000000003,-0.8200000000000001 -21.840000000000003,-0.8699999999999999 -21.7,-1.01 -21.65,-1.04 -21.6,-1.08 -21.54,-1.11 -21.490000000000002,-1.1300000000000001 -21.37,-1.1700000000000002 -21.31,-1.18 -21.259999999999998,-1.19 -21.14,-1.19 -21.02,-1.1700000000000002 -20.96,-1.1500000000000001 -20.910000000000004,-1.1300000000000001 -20.85,-1.11 -20.8,-1.08 -20.75,-1.04 -20.7,-1.01 -20.65,-0.96 -20.6,-0.9199999999999999 -20.52,-0.8200000000000001 -20.44,-0.7000000000000001 -20.41,-0.64 -20.38,-0.5700000000000001 -20.35,-0.51 -20.29,-0.3 -20.28,-0.21999999999999997 -20.270000000000003,-0.15 -20.259999999999998,-0.07 -20.259999999999998,0.07"/>
<polygon class="l0d0" points="-2.48,0.15 -2.49,0.21999999999999997 -2.5,0.3 -2.56,0.51 -2.59,0.5700000000000001 -2.62,0.64 -2.6500000000000004,0.7000000000000001 -2.7300000000000004,0.8200000000000001 -2.8100000000000005,0.9199999999999999 -2.86,0.96 -2.9099999999999997,1.01 -2.96,1.04 -3.01,1.08 -3.06,1.11 -3.18,1.1500000000000001 -3.23,1.1700000000000002 -3.35,1.19 -3.4699999999999998,1.19 -3.53,1.18 -3.58,1.1700000000000002 -3.7,1.1300000000000001 -3.75,1.11 -3.81,1.08 -3.8600000000000003,1.04 -3.91,1.01 -4.050000000000001,0.8699999999999999 -4.09,0.8200000000000001 -4.13,0.76 -4.16,0.7000000000000001 -4.2,0.64 -4.2299999999999995,0.5700000000000001 -4.25,0.51 -4.28,0.43999999999999995 -4.3,0.37 -4.31,0.3 -4.33,0.21999999999999997 -4.34,0.15 -4.34,-0.15 -4.33,-0.21999999999999997 -4.31,-0.3 -4.3,-0.37 -4.28,-0.43999999999999995 -4.25,-0.51 -4.2299999999999995,-0.5700000000000001 -4.2,-0.64 -4.16,-0.7000000000000001 -4.13,-0.76 -4.09,-0.8200000000000001 -4.050000000000001,-0.8699999999999999 -3.91,-1.01 -3.8600000000000003,-1.04 -3.81,-1.08 -3.75,-1.11 -3.7,-1.1300000000000001 -3.58,-1.1700000000000002 -3.53,-1.18 -3.4699999999999998,-1.19 -3.35,-1.19 -3.23,-1.1700000000000002 -3.18,-1.1500000000000001 -3.06,-1.11 -3.01,-1.08 -2.96,-1.04 -2.9099999999999997,-1.01 -2.86,-0.96 -2.8100000000000005,-0.9199999999999999 -2.7300000000000004,-0.8200000000000001 -2.6500000000000004,-0.7000000000000001 -2.62,-0.64 -2.59,-0.5700000000000001 -2.56,-0.51 -2.5,-0.3 -2.49,-0.21999999999999997 -2.48,-0.15 -2.48,-0.07 -2.4699999999999998,0.0 -2.48,0.07"/>
<polygon class="l0d0" points="13.979999999999999,0.15 13.97,0.21999999999999997 13.959999999999999,0.3 13.899999999999999,0.51 13.870000000000001,0.5700000000000001 13.84,0.64 13.78,0.76 13.740000000000002,0.8200000000000001 13.700000000000001,0.8699999999999999 13.56,1.01 13.51,1.04 13.45,1.08 13.4,1.11 13.34,1.1300000000000001 13.29,1.1500000000000001 13.23,1.1700000000000002 13.11,1.19 13.0,1.19 12.88,1.1700000000000002 12.82,1.1500000000000001 12.77,1.1300000000000001 12.709999999999999,1.11 12.66,1.08 12.61,1.04 12.549999999999999,1.01 12.509999999999998,0.96 12.46,0.9199999999999999 12.42,0.8699999999999999 12.370000000000001,0.8200000000000001 12.34,0.76 12.3,0.7000000000000001 12.270000000000001,0.64 12.24,0.5700000000000001 12.21,0.51 12.15,0.3 12.14,0.21999999999999997 12.13,0.15 12.12,0.07 12.12,-0.07 12.13,-0.15 12.14,-0.21999999999999997 12.15,-0.3 12.21,-0.51 12.24,-0.5700000000000001 12.270000000000001,-0.64 12.3,-0.7000000000000001 12.34,-0.76 12.370000000000001,-0.8200000000000001 12.42,-0.8699999999999999 12.46,-0.9199999999999999 12.509999999999998,-0.96 12.549999999999999,-1.01 12.61,-1.04 12.66,-1.08 12.709999999999999,-1.11 12.77,-1.1300000000000001 12.82,-1.1500000000000001 12.88,-1.1700000000000002 13.0,-1.19 13.11,-1.19 13.23,-1.1700000000000002 13.29,-1.1500000000000001 13.34,-1.1300000000000001 13.4,-1.11 13.45,-1.08 13.51,-1.04 13.56,-1.01 13.700000000000001,-0.8699999999999999 13.740000000000002,-0.8200000000000001 13.78,-0.76 13.84,-0.64 13.870000000000001,-0.5700000000000001 13.899999999999999,-0.51 13.959999999999999,-0.3 13.97,-0.21999999999999997 13.979999999999999,-0.15 13.99,-0.07 13.99,0.07"/>
<polygon class="l0d0" points="-33.54,0.07 -33.55,0.15 -33.56,0.21999999999999997 -33.57,0.3 -33.63,0.51 -33.660000000000004,0.5700000000000001 -33.690000000000005,0.64 -33.72,0.7000000000000001 -33.76,0.76 -33.79,0.8200000000000001 -33.839999999999996,0.8699999999999999 -33.879999999999995,0.9199999999999999 -33.93,0.96 -33.97,1.01 -34.03,1.04 -34.08,1.08 -34.129999999999995,1.11 -34.19,1.1300000000000001 -34.24,1.1500000000000001 -34.300000000000004,1.1700000000000002 -34.42,1.19 -34.53,1.19 -34.65,1.1700000000000002 -34.71,1.1500000000000001 -34.76,1.1300000000000001 -34.82,1.11 -34.870000000000005,1.08 -34.93,1.04 -34.980000000000004,1.01 -35.019999999999996,0.96 -35.07,0.9199999999999999 -35.12,0.8699999999999999 -35.16,0.8200000000000001 -35.2,0.76 -35.26,0.64 -35.29,0.5700000000000001 -35.32,0.51 -35.379999999999995,0.3 -35.39,0.21999999999999997 -35.4,0.15 -35.41,0.07 -35.41,-0.07 -35.4,-0.15 -35.39,-0.21999999999999997 -35.379999999999995,-0.3 -35.32,-0.51 -35.29,-0.5700000000000001 -35.26,-0.64 -35.2,-0.76 -35.16,-0.8200000000000001 -35.12,-0.8699999999999999 -35.07,-0.9199999999999999 -35.019999999999996,-0.96 -34.980000000000004,-1.01 -34.93,-1.04 -34.870000000000005,-1.08 -34.82,-1.11 -34.76,-1.1300000000000001 -34.71,-1.1500000000000001 -34.65,-1.1700000000000002 -34.53,-1.19 -34.42,-1.19 -34.300000000000004,-1.1700000000000002 -34.24,-1.1500000000000001 -34.19,-1.1300000000000001 -34.129999999999995,-1.11 -34.08,-1.08 -34.03,-1.04 -33.97,-1.01 -33.93,-0.96 -33.879999999999995,-0.9199999999999999 -33.839999999999996,-0.8699999999999999 -33.79,-0.8200000000000001 -33.76,-0.76 -33.72,-0.7000000000000001 -33.690000000000005,-0.64 -33.660000000000004,-0.5700000000000001 -33.63,-0.51 -33.57,-0.3 -33.56,-0.21999999999999997 -33.55,-0.15 -33.54,-0.07"/>
<polygon class="l0d0" points="-14.96,0.15 -14.97,0.21999999999999997 -14.98,0.3 -15.04,0.51 -15.069999999999999,0.5700000000000001 -15.1,0.64 -15.129999999999999,0.7000000000000001 -15.169999999999998,0.76 -15.2,0.8200000000000001 -15.25,0.8699999999999999 -15.29,0.9199999999999999 -15.34,0.96 -15.389999999999999,1.01 -15.440000000000001,1.04 -15.489999999999998,1.08 -15.540000000000001,1.11 -15.600000000000001,1.1300000000000001 -15.649999999999999,1.1500000000000001 -15.709999999999999,1.1700000000000002 -15.83,1.19 -15.940000000000001,1.19 -16.060000000000002,1.1700000000000002 -16.12,1.1500000000000001 -16.17,1.1300000000000001 -16.23,1.11 -16.279999999999998,1.08 -16.34,1.04 -16.39,1.01 -16.53,0.8699999999999999 -16.57,0.8200000000000001 -16.61,0.76 -16.64,0.7000000000000001 -16.68,0.64 -16.71,0.5700000000000001 -16.73,0.51 -16.759999999999998,0.43999999999999995 -16.77,0.37 -16.79,0.3 -16.8,0.21999999999999997 -16.810000000000002,0.15 -16.82,0.07 -16.82,-0.07 -16.810000000000002,-0.15 -16.8,-0.21999999999999997 -16.79,-0.3 -16.77,-0.37 -16.759999999999998,-0.43999999999999995 -16.73,-0.51 -16.71,-0.5700000000000001 -16.68,-0.64 -16.64,-0.7000000000000001 -16.61,-0.76 -16.57,-0.8200000000000001 -16.53,-0.8699999999999999 -16.39,-1.01 -16.34,-1.04 -16.279999999999998,-1.08 -16.23,-1.11 -16.17,-1.1300000000000001 -16.12,-1.1500000000000001 -16.060000000000002,-1.1700000000000002 -15.940000000000001,-1.19 -15.83,-1.19 -15.709999999999999,-1.1700000000000002 -15.649999999999999,-1.1500000000000001 -15.600000000000001,-1.1300000000000001 -15.540000000000001,-1.11 -15.489999999999998,-1.08 -15.440000000000001,-1.04 -15.389999999999999,-1.01 -15.34,-0.96 -15.29,-0.9199999999999999 -15.25,-0.8699999999999999 -15.2,-0.8200000000000001 -15.169999999999998,-0.76 -15.129999999999999,-0.7000000000000001 -15.1,-0.64 -15.069999999999999,-0.5700000000000001 -15.04,-0.51 -14.98,-0.3 -14.97,-0.21999999999999997 -14.96,-0.15 -14.950000000000001,-0.07 -14.950000000000001,0.07"/>
<polygon class="l0d0" points="171.5,4.997 171.515,4.997 172.525,4.99 173.535,4.981 174.545,4.969 175.55599999999998,4.954 176.566,4.936 177.576,4.915 178.58599999999998,4.891 179.59599999999998,4.864 180.606,4.834 181.61599999999999,4.8020000000000005 182.62599999999998,4.766 183.63600000000002,4.729 184.64600000000002,4.688 185.65699999999998,4.646 186.66699999999997,4.6000000000000005 187.67700000000002,4.553 188.687,4.503 189.697,4.451 190.707,4.396 191.717,4.34 192.727,4.282 193.737,4.222 194.74699999999999,4.1610000000000005 195.758,4.098 196.768,4.0329999999999995 197.778,3.967 199.798,3.831 200.808,3.761 202.82800000000003,3.6189999999999998 204.848,3.473 205.85899999999998,3.4000000000000004 206.86900000000003,3.326 212.929,2.8760000000000003 213.939,2.802 214.949,2.727 215.96,2.6529999999999996 216.97,2.579 217.64800000000002,2.5300000000000002 220.0,2.5300000000000002 520.0,0.6 520.0,-0.6 220.0,-2.5300000000000002 217.64800000000002,-2.5300000000000002 216.97,-2.579 215.96,-2.6529999999999996 214.949,-2.727 213.939,-2.802 212.929,-2.8760000000000003 206.86900000000003,-3.326 205.85899999999998,-3.4000000000000004 204.848,-3.473 202.82800000000003,-3.6189999999999998 200.808,-3.761 199.798,-3.831 197.778,-3.967 196.768,-4.0329999999999995 195.758,-4.098 194.74699999999999,-4.1610000000000005 193.737,-4.222 192.727,-4.282 191.717,-4.34 190.707,-4.396 189.697,-4.451 188.687,-4.503 187.67700000000002,-4.553 186.66699999999997,-4.6000000000000005 185.65699999999998,-4.646 184.64600000000002,-4.688 183.63600000000002,-4.729 182.62599999999998,-4.766 181.61599999999999,-4.8020000000000005 180.606,-4.834 179.59599999999998,-4.864 178.58599999999998,-4.891 177.576,-4.915 176.566,-4.936 175.55599999999998,-4.954 174.545,-4.969 173.535,-4.981 172.525,-4.99 171.515,-4.997 171.5,-4.997 171.5,-18.0 180.0,-30.0 670.0,-30.0 670.0,30.0 180.0,30.0 171.5,18.0"/>
<polygon class="l0d0" points="-100.0,-30.0 160.0,-30.0 168.5,-18.0 168.5,-4.997 168.485,-4.997 167.475,-4.99 166.465,-4.981 165.455,-4.969 164.44400000000002,-4.954 163.434,-4.936 162.424,-4.915 161.41400000000002,-4.891 160.40400000000002,-4.864 159.394,-4.834 158.38400000000001,-4.8020000000000005 157.374,-4.766 156.364,-4.729 155.35399999999998,-4.688 154.34300000000002,-4.646 153.333,-4.6000000000000005 152.323,-4.553 151.313,-4.503 150.303,-4.451 149.293,-4.396 148.28300000000002,-4.34 147.273,-4.282 146.263,-4.222 145.253,-4.1610000000000005 144.24200000000002,-4.098 143.232,-4.0329999999999995 142.222,-3.967 140.202,-3.831 139.192,-3.761 137.172,-3.6189999999999998 135.152,-3.473 134.141,-3.4000000000000004 133.131,-3.326 127.071,-2.8760000000000003 126.06099999999999,-2.802 125.051,-2.727 124.03999999999999,-2.6529999999999996 123.03,-2.579 122.352,-2.5300000000000002 -100.0,-2.5300000000000002"/>
</g>
</svg>