<?xml version="1.0" encoding="UTF-8"?>
<svg xmlns="http://www.w3.org/2000/svg" xmlns:xlink="http://www.w3.org/1999/xlink"
     width="742.5" height="127.5" viewBox="-86.25 -63.75 742.5 127.5">
<defs>
<style type="text/css">
.l0d0 {stroke: rgb(255, 0, 0); fill: rgb(255, 0, 0); fill-opacity: 0.5;}
</style>
</defs>
<rect x="-86.25" y="-63.75" width="742.5" height="127.5" fill="#222" stroke="none"/>
<g id="xor_diff" transform="scale(1 -1)">
<polygon class="l0d0" points="72.5,2.362 74.52,2.506 75.53,2.579 76.53999999999999,2.6529999999999996 77.551,2.727 78.56099999999999,2.802 79.571,2.8760000000000003 85.631,3.326 86.64099999999999,3.4000000000000004 87.652,3.473 89.672,3.6189999999999998 91.69200000000001,3.761 92.70200000000001,3.831 94.72200000000001,3.967 95.732,4.0329999999999995 96.742,4.098 97.753,4.1610000000000005 98.763,4.222 99.773,4.282 100.783,4.34 101.79299999999999,4.396 102.803,4.451 103.81299999999999,4.503 104.82300000000001,4.553 105.833,4.6000000000000005 106.843,4.646 107.85399999999998,4.688 108.864,4.729 109.874,4.766 110.884,4.8020000000000005 111.89399999999999,4.834 112.904,4.864 113.91400000000002,4.891 114.924,4.915 115.93400000000001,4.936 116.944,4.954 117.95500000000001,4.969 118.965,4.981 119.97500000000001,4.99 120.985,4.997 121.0,4.997 121.0,18.0 112.5,30.0 -52.5,30.0 -52.5,2.3400000000000003 72.5,2.3400000000000003"/>
<polygon class="l0d0" points="9.350000000000001,-1.1500000000000001 9.389999999999999,-1.12 9.43,-1.08 9.51,-0.98 9.54,-0.9299999999999999 9.629999999999999,-0.75 9.66,-0.68 9.719999999999999,-0.47 9.73,-0.39 9.75,-0.32 9.76,-0.24 9.76,-0.16 9.77,-0.08 9.77,0.08 9.76,0.16 9.76,0.24 9.75,0.32 9.73,0.39 9.719999999999999,0.47 9.66,0.68 9.629999999999999,0.75 9.54,0.9299999999999999 9.51,0.98 9.43,1.08 9.389999999999999,1.12 9.350000000000001,1.1500000000000001 9.31,1.19 9.23,1.23 9.18,1.25 9.14,1.26 9.09,1.27 9.05,1.28 8.95,1.26 8.91,1.25 8.870000000000001,1.23 8.82,1.21 8.78,1.19 8.74,1.1500000000000001 8.7,1.12 8.66,1.08 8.58,0.98 8.55,0.9299999999999999 8.459999999999999,0.75 8.43,0.68 8.37,0.47 8.36,0.39 8.34,0.32 8.33,0.24 8.33,0.16 8.32,0.08 8.32,-0.08 8.33,-0.16 8.33,-0.24 8.34,-0.32 8.36,-0.39 8.37,-0.47 8.43,-0.68 8.459999999999999,-0.75 8.55,-0.9299999999999999 8.58,-0.98 8.66,-1.08 8.7,-1.12 8.74,-1.1500000000000001 8.78,-1.19 8.82,-1.21 8.870000000000001,-1.23 8.91,-1.25 8.95,-1.26 9.05,-1.28 9.09,-1.27 9.14,-1.26 9.18,-1.25 9.23,-1.23 9.31,-1.19"/>
<polygon class="l0d0" points="-40.78,-0.32 -40.75,-0.08 -40.75,0.08 -40.78,0.32 -40.79,0.39 -40.8,0.47 -40.839999999999996,0.61 -40.87,0.68 -40.89,0.75 -40.98,0.9299999999999999 -41.02,0.98 -41.050000000000004,1.03 -41.09,1.08 -41.13,1.12 -41.17,1.1500000000000001 -41.21000000000001,1.19 -41.25,1.21 -41.3,1.23 -41.34,1.25 -41.39,1.26 -41.43,1.27 -41.48,1.28 -41.52,1.27 -41.57,1.26 -41.61,1.25 -41.660000000000004,1.23 -41.74,1.19 -41.790000000000006,1.1500000000000001 -41.83,1.12 -41.870000000000005,1.08 -41.900000000000006,1.03 -41.94,0.98 -41.97,0.9299999999999999 -42.06,0.75 -42.089999999999996,0.68 -42.15,0.47 -42.169999999999995,0.39 -42.18,0.32 -42.199999999999996,0.16 -42.199999999999996,-0.16 -42.18,-0.32 -42.169999999999995,-0.39 -42.15,-0.47 -42.089999999999996,-0.68 -42.06,-0.75 -41.97,-0.9299999999999999 -41.94,-0.98 -41.900000000000006,-1.03 -41.870000000000005,-1.08 -41.83,-1.12 -41.790000000000006,-1.1500000000000001 -41.74,-1.19 -41.660000000000004,-1.23 -41.61,-1.25 -41.57,-1.26 -41.52,-1.27 -41.48,-1.28 -41.43,-1.27 -41.39,-1.26 -41.34,-1.25 -41.3,-1.23 -41.25,-1.21 -41.21000000000001,-1.19 -41.17,-1.1500000000000001 -41.13,-1.12 -41.09,-1.08 -41.050000000000004,-1.03 -41.02,-0.98 -40.98,-0.9299999999999999 -40.89,-0.75 -40.87,-0.68 -40.839999999999996,-0.61 -40.8,-0.47 -40.79,-0.39"/>
<polygon class="l0d0" points="-29.93,-1.23 -29.88,-1.21 -29.84,-1.19 -29.8,-1.1500000000000001 -29.759999999999998,-1.12 -29.72,-1.08 -29.64,-0.98 -29.61,-0.9299999999999999 -29.52,-0.75 -29.49,-0.68 -29.43,-0.47 -29.42,-0.39 -29.4,-0.32 -29.39,-0.24 -29.39,-0.16 -29.380000000000003,-0.08 -29.380000000000003,0.08 -29.39,0.16 -29.39,0.24 -29.4,0.32 -29.42,0.39 -29.43,0.47 -29.49,0.68 -29.52,0.75 -29.61,0.9299999999999999 -29.64,0.98 -29.72,1.08 -29.759999999999998,1.12 -29.8,1.1500000000000001 -29.84,1.19 -29.88,1.21 -29.93,1.23 -29.97,1.25 -30.009999999999998,1.26 -30.11,1.28 -30.150000000000002,1.27 -30.2,1.26 -30.240000000000002,1.25 -30.29,1.23 -30.369999999999997,1.19 -30.41,1.1500000000000001 -30.45,1.12 -30.49,1.08 -30.57,0.98 -30.6,0.9299999999999999 -30.689999999999998,0.75 -30.72,0.68 -30.779999999999998,0.47 -30.790000000000003,0.39 -30.81,0.32 -30.82,0.24 -30.82,0.14 -30.830000000000002,0.08 -30.830000000000002,-0.08 -30.82,-0.16 -30.82,-0.27 -30.81,-0.32 -30.790000000000003,-0.39 -30.779999999999998,-0.47 -30.72,-0.68 -30.689999999999998,-0.75 -30.6,-0.9299999999999999 -30.57,-0.98 -30.49,-1.08 -30.45,-1.12 -30.41,-1.1500000000000001 -30.369999999999997,-1.19 -30.29,-1.23 -30.240000000000002,-1.25 -30.2,-1.26 -30.150000000000002,-1.27 -30.11,-1.28 -30.009999999999998,-1.26 -29.97,-1.25"/>
<polygon class="l0d0" points="-0.47,-0.27 -0.47,-0.16 -0.45999999999999996,-0.08 -0.45999999999999996,0.08 -0.47,0.14 -0.47,0.24 -0.48,0.32 -0.5,0.39 -0.51,0.47 -0.5700000000000001,0.68 -0.6,0.75 -0.6900000000000001,0.9299999999999999 -0.72,0.98 -0.8,1.08 -0.8400000000000001,1.12 -0.8799999999999999,1.1500000000000001 -0.9199999999999999,1.19 -0.96,1.21 -1.01,1.23 -1.05,1.25 -1.1,1.26 -1.1400000000000001,1.27 -1.19,1.28 -1.23,1.27 -1.28,1.26 -1.32,1.25 -1.37,1.23 -1.45,1.19 -1.49,1.1500000000000001 -1.53,1.12 -1.57,1.08 -1.6500000000000001,0.98 -1.6800000000000002,0.9299999999999999 -1.77,0.75 -1.7999999999999998,0.68 -1.8599999999999999,0.47 -1.87,0.39 -1.8900000000000001,0.32 -1.9,0.24 -1.9,0.16 -1.9100000000000001,0.08 -1.9100000000000001,-0.08 -1.9,-0.16 -1.9,-0.24 -1.8900000000000001,-0.32 -1.87,-0.39 -1.8599999999999999,-0.47 -1.7999999999999998,-0.68 -1.77,-0.75 -1.6800000000000002,-0.9299999999999999 -1.6500000000000001,-0.98 -1.57,-1.08 -1.53,-1.12 -1.49,-1.1500000000000001 -1.45,-1.19 -1.37,-1.23 -1.32,-1.25 -1.28,-1.26 -1.23,-1.27 -1.19,-1.28 -1.1400000000000001,-1.27 -1.1,-1.26 -1.05,-1.25 -1.01,-1.23 -0.96,-1.21 -0.9199999999999999,-1.19 -0.8799999999999999,-1.1500000000000001 -0.8400000000000001,-1.12 -0.8,-1.08 -0.72,-0.98 -0.6900000000000001,-0.9299999999999999 -0.6,-0.75 -0.5700000000000001,-0.68 -0.51,-0.47 -0.5,-0.39 -0.48,-0.32"/>
<polygon class="l0d0" points="-26.77,-0.9299999999999999 -26.73,-0.8699999999999999 -26.7,-0.81 -26.68,-0.75 -26.65,-0.68 -26.589999999999996,-0.47 -26.57,-0.39 -26.560000000000002,-0.32 -26.54,-0.16 -26.54,0.16 -26.560000000000002,0.32 -26.57,0.39 -26.589999999999996,0.47 -26.65,0.68 -26.68,0.75 -26.7,0.81 -26.73,0.8699999999999999 -26.77,0.9299999999999999 -26.8,0.98 -26.840000000000003,1.03 -26.869999999999997,1.08 -26.909999999999997,1.12 -26.95,1.1500000000000001 -27.0,1.19 -27.080000000000002,1.23 -27.130000000000003,1.25 -27.17,1.26 -27.22,1.27 -27.259999999999998,1.28 -27.31,1.27 -27.349999999999998,1.26 -27.400000000000002,1.25 -27.44,1.23 -27.490000000000002,1.21 -27.53,1.19 -27.57,1.1500000000000001 -27.61,1.12 -27.650000000000002,1.08 -27.69,1.03 -27.72,0.98 -27.759999999999998,0.9299999999999999 -27.85,0.75 -27.869999999999997,0.68 -27.9,0.61 -27.94,0.47 -27.95,0.39 -27.959999999999997,0.32 -27.98,0.16 -27.98,0.08 -27.99,0.0 -27.98,-0.08 -27.98,-0.16 -27.959999999999997,-0.32 -27.95,-0.39 -27.94,-0.47 -27.9,-0.61 -27.869999999999997,-0.68 -27.85,-0.75 -27.759999999999998,-0.9299999999999999 -27.72,-0.98 -27.69,-1.03 -27.650000000000002,-1.08 -27.61,-1.12 -27.57,-1.1500000000000001 -27.53,-1.19 -27.490000000000002,-1.21 -27.44,-1.23 -27.400000000000002,-1.25 -27.349999999999998,-1.26 -27.31,-1.27 -27.259999999999998,-1.28 -27.22,-1.27 -27.17,-1.26 -27.130000000000003,-1.25 -27.080000000000002,-1.23 -27.0,-1.19 -26.95,-1.1500000000000001 -26.909999999999997,-1.12 -26.869999999999997,-1.08 -26.840000000000003,-1.03 -26.8,-0.98"/>
<polygon class="l0d0" points="15.26,0.0 15.25,0.05 15.25,0.16 15.229999999999999,0.32 15.22,0.39 15.209999999999999,0.47 15.169999999999998,0.61 15.14,0.68 15.120000000000001,0.75 15.03,0.9299999999999999 14.990000000000002,0.98 14.96,1.03 14.92,1.08 14.879999999999999,1.12 14.84,1.1500000000000001 14.8,1.19 14.76,1.21 14.71,1.23 14.670000000000002,1.25 14.62,1.26 14.58,1.27 14.530000000000001,1.28 14.49,1.27 14.44,1.26 14.399999999999999,1.25 14.350000000000001,1.23 14.27,1.19 14.219999999999999,1.1500000000000001 14.18,1.12 14.139999999999999,1.08 14.11,1.03 14.07,0.98 14.04,0.9299999999999999 14.0,0.8699999999999999 13.97,0.81 13.95,0.75 13.919999999999998,0.68 13.86,0.47 13.84,0.39 13.83,0.32 13.81,0.16 13.81,-0.16 13.83,-0.32 13.84,-0.39 13.86,-0.47 13.919999999999998,-0.68 13.95,-0.75 13.97,-0.81 14.0,-0.8699999999999999 14.04,-0.9299999999999999 14.07,-0.98 14.11,-1.03 14.139999999999999,-1.08 14.18,-1.12 14.219999999999999,-1.1500000000000001 14.27,-1.19 14.350000000000001,-1.23 14.399999999999999,-1.25 14.44,-1.26 14.49,-1.27 14.530000000000001,-1.28 14.58,-1.27 14.62,-1.26 14.670000000000002,-1.25 14.71,-1.23 14.76,-1.21 14.8,-1.19 14.84,-1.1500000000000001 14.879999999999999,-1.12 14.92,-1.08 14.96,-1.03 14.990000000000002,-0.98 15.03,-0.9299999999999999 15.120000000000001,-0.75 15.14,-0.68 15.169999999999998,-0.61 15.209999999999999,-0.47 15.22,-0.39 15.25,-0.18 15.25,-0.08"/>
<polygon class="l0d0" points="-23.700000000000003,-0.16 -23.700000000000003,0.16 -23.72,0.32 -23.730000000000004,0.39 -23.75,0.47 -23.759999999999998,0.54 -23.78,0.61 -23.81,0.68 -23.83,0.75 -23.919999999999998,0.9299999999999999 -23.96,0.98 -23.990000000000002,1.03 -24.03,1.08 -24.07,1.12 -24.11,1.1500000000000001 -24.15,1.19 -24.2,1.21 -24.28,1.25 -24.33,1.26 -24.369999999999997,1.27 -24.42,1.28 -24.46,1.27 -24.51,1.26 -24.55,1.25 -24.6,1.23 -24.64,1.21 -24.689999999999998,1.19 -24.729999999999997,1.1500000000000001 -24.77,1.12 -24.81,1.08 -24.84,1.03 -24.88,0.98 -24.91,0.9299999999999999 -24.950000000000003,0.8699999999999999 -24.980000000000004,0.81 -25.0,0.75 -25.03,0.68 -25.09,0.47 -25.11,0.39 -25.12,0.32 -25.139999999999997,0.16 -25.139999999999997,-0.16 -25.12,-0.32 -25.11,-0.39 -25.09,-0.47 -25.03,-0.68 -25.0,-0.75 -24.980000000000004,-0.81 -24.950000000000003,-0.8699999999999999 -24.91,-0.9299999999999999 -24.88,-0.98 -24.84,-1.03 -24.81,-1.08 -24.77,-1.12 -24.729999999999997,-1.1500000000000001 -24.689999999999998,-1.19 -24.64,-1.21 -24.6,-1.23 -24.55,-1.25 -24.51,-1.26 -24.46,-1.27 -24.42,-1.28 -24.369999999999997,-1.27 -24.33,-1.26 -24.28,-1.25 -24.2,-1.21 -24.15,-1.19 -24.11,-1.1500000000000001 -24.07,-1.12 -24.03,-1.08 -23.990000000000002,-1.03 -23.96,-0.98 -23.919999999999998,-0.9299999999999999 -23.83,-0.75 -23.81,-0.68 -23.78,-0.61 -23.759999999999998,-0.54 -23.75,-0.47 -23.72,-0.35000000000000003 -23.72,-0.32"/>
<polygon class="l0d0" points="-3.17,-1.08 -3.13,-1.03 -3.1,-0.98 -3.06,-0.9299999999999999 -2.9699999999999998,-0.75 -2.9499999999999997,-0.68 -2.92,-0.61 -2.9,-0.54 -2.8899999999999997,-0.47 -2.8699999999999997,-0.39 -2.86,-0.32 -2.84,-0.16 -2.84,-0.08 -2.8299999999999996,0.0 -2.84,0.08 -2.84,0.16 -2.86,0.32 -2.8699999999999997,0.39 -2.8899999999999997,0.47 -2.9,0.54 -2.92,0.61 -2.9499999999999997,0.68 -2.9699999999999998,0.75 -3.06,0.9299999999999999 -3.1,0.98 -3.13,1.03 -3.17,1.08 -3.21,1.12 -3.25,1.1500000000000001 -3.29,1.19 -3.33,1.21 -3.3800000000000003,1.23 -3.4200000000000004,1.25 -3.4699999999999998,1.26 -3.51,1.27 -3.5599999999999996,1.28 -3.5999999999999996,1.27 -3.65,1.26 -3.69,1.25 -3.74,1.23 -3.8200000000000003,1.19 -3.87,1.1500000000000001 -3.91,1.12 -3.95,1.08 -3.9800000000000004,1.03 -4.0200000000000005,0.98 -4.050000000000001,0.9299999999999999 -4.09,0.8699999999999999 -4.12,0.81 -4.14,0.75 -4.17,0.68 -4.2299999999999995,0.47 -4.25,0.39 -4.26,0.32 -4.28,0.16 -4.28,-0.16 -4.26,-0.32 -4.25,-0.39 -4.2299999999999995,-0.47 -4.17,-0.68 -4.14,-0.75 -4.12,-0.81 -4.09,-0.8699999999999999 -4.050000000000001,-0.9299999999999999 -4.0200000000000005,-0.98 -3.9800000000000004,-1.03 -3.95,-1.08 -3.91,-1.12 -3.87,-1.1500000000000001 -3.8200000000000003,-1.19 -3.74,-1.23 -3.69,-1.25 -3.65,-1.26 -3.5999999999999996,-1.27 -3.5599999999999996,-1.28 -3.51,-1.27 -3.4699999999999998,-1.26 -3.4200000000000004,-1.25 -3.3800000000000003,-1.23 -3.33,-1.21 -3.29,-1.19 -3.25,-1.1500000000000001 -3.21,-1.12"/>
<polygon class="l0d0" points="-44.1,-1.21 -44.050000000000004,-1.19 -44.01,-1.1500000000000001 -43.97,-1.12 -43.93,-1.08 -43.89,-1.03 -43.86,-0.98 -43.81999999999999,-0.9299999999999999 -43.730000000000004,-0.75 -43.650000000000006,-0.47 -43.63,-0.39 -43.620000000000005,-0.32 -43.6,-0.16 -43.6,0.16 -43.620000000000005,0.32 -43.63,0.39 -43.650000000000006,0.47 -43.730000000000004,0.75 -43.81999999999999,0.9299999999999999 -43.86,0.98 -43.89,1.03 -43.93,1.08 -43.97,1.12 -44.01,1.1500000000000001 -44.050000000000004,1.19 -44.1,1.21 -44.18,1.25 -44.230000000000004,1.26 -44.269999999999996,1.27 -44.32000000000001,1.28 -44.370000000000005,1.27 -44.41,1.26 -44.459999999999994,1.25 -44.54,1.21 -44.589999999999996,1.19 -44.63,1.1500000000000001 -44.669999999999995,1.12 -44.71,1.08 -44.75,1.03 -44.78,0.98 -44.82,0.9299999999999999 -44.91,0.75 -44.95,0.61 -44.980000000000004,0.54 -44.989999999999995,0.47 -45.010000000000005,0.39 -45.019999999999996,0.32 -45.03999999999999,0.16 -45.03999999999999,-0.16 -45.019999999999996,-0.32 -45.010000000000005,-0.39 -44.989999999999995,-0.47 -44.980000000000004,-0.54 -44.95,-0.61 -44.91,-0.75 -44.82,-0.9299999999999999 -44.78,-0.98 -44.75,-1.03 -44.71,-1.08 -44.669999999999995,-1.12 -44.63,-1.1500000000000001 -44.589999999999996,-1.19 -44.54,-1.21 -44.459999999999994,-1.25 -44.41,-1.26 -44.370000000000005,-1.27 -44.32000000000001,-1.28 -44.269999999999996,-1.27 -44.230000000000004,-1.26 -44.18,-1.25"/>
<polygon class="l0d0" points="-15.88,-1.23 -15.83,-1.21 -15.79,-1.19 -15.75,-1.1500000000000001 -15.709999999999999,-1.12 -15.67,-1.08 -15.629999999999999,-1.03 -15.600000000000001,-0.98 -15.56,-0.9299999999999999 -15.469999999999999,-0.75 -15.45,-0.68 -15.42,-0.61 -15.4,-0.54 -15.389999999999999,-0.47 -15.37,-0.39 -15.36,-0.32 -15.34,-0.16 -15.34,-0.08 -15.329999999999998,0.0 -15.34,0.08 -15.34,0.16 -15.36,0.32 -15.37,0.39 -15.389999999999999,0.47 -15.4,0.54 -15.42,0.61 -15.45,0.68 -15.469999999999999,0.75 -15.56,0.9299999999999999 -15.600000000000001,0.98 -15.629999999999999,1.03 -15.67,1.08 -15.709999999999999,1.12 -15.75,1.1500000000000001 -15.79,1.19 -15.83,1.21 -15.88,1.23 -15.920000000000002,1.25 -15.969999999999999,1.26 -16.009999999999998,1.27 -16.060000000000002,1.28 -16.1,1.27 -16.15,1.26 -16.19,1.25 -16.240000000000002,1.23 -16.32,1.19 -16.37,1.1500000000000001 -16.41,1.12 -16.45,1.08 -16.48,1.03 -16.52,0.98 -16.55,0.9299999999999999 -16.59,0.8699999999999999 -16.619999999999997,0.81 -16.64,0.75 -16.67,0.68 -16.73,0.47 -16.75,0.39 -16.759999999999998,0.32 -16.78,0.16 -16.78,-0.16 -16.759999999999998,-0.32 -16.75,-0.39 -16.73,-0.47 -16.67,-0.68 -16.64,-0.75 -16.619999999999997,-0.81 -16.59,-0.8699999999999999 -16.55,-0.9299999999999999 -16.52,-0.98 -16.48,-1.03 -16.45,-1.08 -16.41,-1.12 -16.37,-1.1500000000000001 -16.32,-1.19 -16.240000000000002,-1.23 -16.19,-1.25 -16.15,-1.26 -16.1,-1.27 -16.060000000000002,-1.28 -16.009999999999998,-1.27 -15.969999999999999,-1.26 -15.920000000000002,-1.25"/>
<polygon class="l0d0" points="-12.98,-1.03 -12.95,-0.98 -12.91,-0.9299999999999999 -12.82,-0.75 -12.8,-0.68 -12.77,-0.61 -12.729999999999999,-0.47 -12.72,-0.39 -12.709999999999999,-0.32 -12.68,-0.08 -12.68,0.08 -12.709999999999999,0.32 -12.72,0.39 -12.729999999999999,0.47 -12.77,0.61 -12.8,0.68 -12.82,0.75 -12.91,0.9299999999999999 -12.95,0.98 -12.98,1.03 -13.02,1.08 -13.06,1.12 -13.100000000000001,1.1500000000000001 -13.14,1.19 -13.18,1.21 -13.23,1.23 -13.27,1.25 -13.32,1.26 -13.360000000000001,1.27 -13.41,1.28 -13.45,1.27 -13.5,1.26 -13.540000000000001,1.25 -13.59,1.23 -13.67,1.19 -13.72,1.1500000000000001 -13.759999999999998,1.12 -13.799999999999999,1.08 -13.83,1.03 -13.870000000000001,0.98 -13.899999999999999,0.9299999999999999 -13.94,0.8699999999999999 -13.97,0.81 -13.99,0.75 -14.02,0.68 -14.079999999999998,0.47 -14.1,0.39 -14.11,0.32 -14.13,0.16 -14.13,-0.16 -14.11,-0.32 -14.1,-0.39 -14.079999999999998,-0.47 -14.02,-0.68 -13.99,-0.75 -13.97,-0.81 -13.94,-0.8699999999999999 -13.899999999999999,-0.9299999999999999 -13.870000000000001,-0.98 -13.83,-1.03 -13.799999999999999,-1.08 -13.759999999999998,-1.12 -13.72,-1.1500000000000001 -13.67,-1.19 -13.59,-1.23 -13.540000000000001,-1.25 -13.5,-1.26 -13.45,-1.27 -13.41,-1.28 -13.360000000000001,-1.27 -13.32,-1.26 -13.27,-1.25 -13.23,-1.23 -13.18,-1.21 -13.14,-1.19 -13.100000000000001,-1.1500000000000001 -13.06,-1.12 -13.02,-1.08"/>
<polygon class="l0d0" points="11.07,-0.16 11.09,-0.32 11.100000000000001,-0.39 11.120000000000001,-0.47 11.129999999999999,-0.54 11.15,-0.61 11.180000000000001,-0.68 11.200000000000001,-0.75 11.29,-0.9299999999999999 11.33,-0.98 11.36,-1.03 11.399999999999999,-1.08 11.44,-1.12 11.479999999999999,-1.1500000000000001 11.52,-1.19 11.57,-1.21 11.65,-1.25 11.7,-1.26 11.739999999999998,-1.27 11.790000000000001,-1.28 11.83,-1.27 11.879999999999999,-1.26 11.92,-1.25 11.97,-1.23 12.010000000000002,-1.21 12.059999999999999,-1.19 12.1,-1.1500000000000001 12.14,-1.12 12.18,-1.08 12.21,-1.03 12.25,-0.98 12.28,-0.9299999999999999 12.32,-0.8699999999999999 12.350000000000001,-0.81 12.370000000000001,-0.75 12.4,-0.68 12.46,-0.47 12.48,-0.39 12.490000000000002,-0.32 12.509999999999998,-0.16 12.509999999999998,0.16 12.490000000000002,0.32 12.48,0.39 12.46,0.47 12.4,0.68 12.370000000000001,0.75 12.350000000000001,0.81 12.32,0.8699999999999999 12.28,0.9299999999999999 12.25,0.98 12.21,1.03 12.18,1.08 12.14,1.12 12.1,1.1500000000000001 12.059999999999999,1.19 12.010000000000002,1.21 11.97,1.23 11.92,1.25 11.879999999999999,1.26 11.83,1.27 11.790000000000001,1.28 11.739999999999998,1.27 11.7,1.26 11.65,1.25 11.57,1.21 11.52,1.19 11.479999999999999,1.1500000000000001 11.44,1.12 11.399999999999999,1.08 11.36,1.03 11.33,0.98 11.29,0.9299999999999999 11.200000000000001,0.75 11.180000000000001,0.68 11.15,0.61 11.129999999999999,0.54 11.120000000000001,0.47 11.100000000000001,0.39 11.09,0.32 11.07,0.16 11.07,0.08 11.06,0.0 11.07,-0.08"/>
<polygon class="l0d0" points="24.79,-0.14 24.8,-0.18 24.8,-0.22999999999999998 24.830000000000002,-0.35000000000000003 24.849999999999998,-0.39 24.860000000000003,-0.42999999999999994 24.88,-0.47 24.900000000000002,-0.5 24.92,-0.54 24.93,-0.5700000000000001 24.980000000000004,-0.62 25.0,-0.65 25.019999999999996,-0.67 25.049999999999997,-0.68 25.07,-0.7000000000000001 25.099999999999998,-0.71 25.12,-0.72 25.18,-0.74 25.23,-0.74 25.25,-0.73 25.310000000000002,-0.71 25.33,-0.7000000000000001 25.36,-0.68 25.38,-0.67 25.45,-0.6 25.49,-0.54 25.51,-0.5 25.52,-0.47 25.54,-0.42999999999999994 25.55,-0.39 25.57,-0.35000000000000003 25.6,-0.22999999999999998 25.61,-0.18 25.61,-0.1 25.619999999999997,-0.09 25.619999999999997,0.09 25.61,0.14 25.61,0.18 25.6,0.22999999999999998 25.57,0.35000000000000003 25.55,0.39 25.54,0.42999999999999994 25.52,0.47 25.51,0.5 25.49,0.54 25.45,0.6 25.38,0.67 25.36,0.68 25.33,0.7000000000000001 25.310000000000002,0.71 25.25,0.73 25.23,0.74 25.18,0.74 25.12,0.72 25.099999999999998,0.71 25.07,0.7000000000000001 25.049999999999997,0.68 25.019999999999996,0.67 25.0,0.65 24.980000000000004,0.62 24.93,0.5700000000000001 24.92,0.54 24.900000000000002,0.5 24.88,0.47 24.860000000000003,0.42999999999999994 24.849999999999998,0.39 24.830000000000002,0.35000000000000003 24.8,0.22999999999999998 24.8,0.18 24.79,0.14 24.79,0.09 24.78,0.05 24.78,-0.05 24.79,-0.09"/>
<polygon class="l0d0" points="-22.3,-0.24 -22.29,-0.32 -22.27,-0.39 -22.259999999999998,-0.47 -22.200000000000003,-0.68 -22.17,-0.75 -22.080000000000002,-0.9299999999999999 -22.05,-0.98 -21.97,-1.08 -21.939999999999998,-1.12 -21.89,-1.1500000000000001 -21.85,-1.19 -21.77,-1.23 -21.720000000000002,-1.25 -21.68,-1.26 -21.63,-1.27 -21.589999999999996,-1.28 -21.54,-1.27 -21.5,-1.26 -21.45,-1.25 -21.41,-1.23 -21.36,-1.21 -21.32,-1.19 -21.28,-1.1500000000000001 -21.240000000000002,-1.12 -21.200000000000003,-1.08 -21.12,-0.98 -21.09,-0.9299999999999999 -21.0,-0.75 -20.97,-0.68 -20.910000000000004,-0.47 -20.9,-0.39 -20.880000000000003,-0.32 -20.880000000000003,-0.24 -20.86,-0.08 -20.86,0.08 -20.880000000000003,0.24 -20.880000000000003,0.32 -20.9,0.39 -20.910000000000004,0.47 -20.97,0.68 -21.0,0.75 -21.09,0.9299999999999999 -21.12,0.98 -21.200000000000003,1.08 -21.240000000000002,1.12 -21.28,1.1500000000000001 -21.32,1.19 -21.36,1.21 -21.41,1.23 -21.45,1.25 -21.5,1.26 -21.54,1.27 -21.589999999999996,1.28 -21.63,1.27 -21.68,1.26 -21.720000000000002,1.25 -21.77,1.23 -21.85,1.19 -21.89,1.1500000000000001 -21.939999999999998,1.12 -21.97,1.08 -22.05,0.98 -22.080000000000002,0.9299999999999999 -22.17,0.75 -22.200000000000003,0.68 -22.259999999999998,0.47 -22.27,0.39 -22.29,0.32 -22.3,0.24 -22.3,0.16 -22.31,0.08 -22.31,-0.08 -22.3,-0.16"/>
<polygon class="l0d0" points="-11.530000000000001,-0.39 -11.530000000000001,-0.4 -11.52,-0.47 -11.479999999999999,-0.61 -11.45,-0.68 -11.43,-0.75 -11.34,-0.9299999999999999 -11.299999999999999,-0.98 -11.27,-1.03 -11.23,-1.08 -11.19,-1.12 -11.15,-1.1500000000000001 -11.11,-1.19 -11.07,-1.21 -11.020000000000001,-1.23 -10.98,-1.25 -10.93,-1.26 -10.89,-1.27 -10.84,-1.28 -10.8,-1.27 -10.75,-1.26 -10.709999999999999,-1.25 -10.66,-1.23 -10.58,-1.19 -10.53,-1.1500000000000001 -10.489999999999998,-1.12 -10.46,-1.08 -10.38,-0.98 -10.35,-0.9299999999999999 -10.26,-0.75 -10.229999999999999,-0.68 -10.169999999999998,-0.47 -10.149999999999999,-0.39 -10.14,-0.32 -10.120000000000001,-0.16 -10.120000000000001,0.16 -10.14,0.32 -10.149999999999999,0.39 -10.169999999999998,0.47 -10.229999999999999,0.68 -10.26,0.75 -10.35,0.9299999999999999 -10.38,0.98 -10.46,1.08 -10.489999999999998,1.12 -10.53,1.1500000000000001 -10.58,1.19 -10.66,1.23 -10.709999999999999,1.25 -10.75,1.26 -10.8,1.27 -10.84,1.28 -10.89,1.27 -10.93,1.26 -10.98,1.25 -11.020000000000001,1.23 -11.07,1.21 -11.11,1.19 -11.15,1.1500000000000001 -11.19,1.12 -11.23,1.08 -11.27,1.03 -11.299999999999999,0.98 -11.34,0.9299999999999999 -11.43,0.75 -11.45,0.68 -11.479999999999999,0.61 -11.52,0.47 -11.530000000000001,0.39 -11.54,0.32 -11.57,0.08 -11.57,-0.08 -11.54,-0.32"/>
<polygon class="l0d0" points="0.5,-0.24 0.51,-0.32 0.53,-0.39 0.54,-0.47 0.6,-0.68 0.63,-0.75 0.72,-0.9299999999999999 0.75,-0.98 0.8300000000000001,-1.08 0.8699999999999999,-1.12 0.9099999999999999,-1.1500000000000001 0.95,-1.19 0.99,-1.21 1.04,-1.23 1.08,-1.25 1.12,-1.26 1.22,-1.28 1.26,-1.27 1.31,-1.26 1.35,-1.25 1.4000000000000001,-1.23 1.48,-1.19 1.52,-1.1500000000000001 1.56,-1.12 1.6,-1.08 1.6800000000000002,-0.98 1.7100000000000002,-0.9299999999999999 1.7999999999999998,-0.75 1.83,-0.68 1.8900000000000001,-0.47 1.9,-0.39 1.92,-0.32 1.9300000000000002,-0.27 1.9300000000000002,-0.16 1.94,-0.08 1.94,0.08 1.9300000000000002,0.14 1.9300000000000002,0.24 1.92,0.32 1.9,0.39 1.8900000000000001,0.47 1.83,0.68 1.7999999999999998,0.75 1.7100000000000002,0.9299999999999999 1.6800000000000002,0.98 1.6,1.08 1.56,1.12 1.52,1.1500000000000001 1.48,1.19 1.4000000000000001,1.23 1.35,1.25 1.31,1.26 1.26,1.27 1.22,1.28 1.12,1.26 1.08,1.25 1.04,1.23 0.99,1.21 0.95,1.19 0.9099999999999999,1.1500000000000001 0.8699999999999999,1.12 0.8300000000000001,1.08 0.75,0.98 0.72,0.9299999999999999 0.63,0.75 0.6,0.68 0.54,0.47 0.53,0.39 0.51,0.32 0.5,0.24 0.5,0.16 0.49,0.08 0.49,-0.08 0.5,-0.16"/>
<polygon class="l0d0" points="-39.35,-0.24 -39.34,-0.32 -39.32,-0.39 -39.31,-0.47 -39.25,-0.68 -39.22,-0.75 -39.129999999999995,-0.9299999999999999 -39.1,-0.98 -39.02,-1.08 -38.980000000000004,-1.12 -38.94,-1.1500000000000001 -38.9,-1.19 -38.86,-1.21 -38.809999999999995,-1.23 -38.769999999999996,-1.25 -38.72,-1.26 -38.68,-1.27 -38.63,-1.28 -38.59,-1.27 -38.54,-1.26 -38.5,-1.25 -38.45,-1.23 -38.370000000000005,-1.19 -38.33,-1.1500000000000001 -38.29,-1.12 -38.25,-1.08 -38.17,-0.98 -38.14,-0.9299999999999999 -38.050000000000004,-0.75 -38.02,-0.68 -37.96,-0.47 -37.95,-0.4 -37.95,-0.39 -37.93,-0.32 -37.92,-0.24 -37.92,-0.16 -37.91,-0.08 -37.91,0.08 -37.92,0.16 -37.92,0.24 -37.93,0.32 -37.95,0.39 -37.96,0.47 -38.02,0.68 -38.050000000000004,0.75 -38.14,0.9299999999999999 -38.17,0.98 -38.25,1.08 -38.29,1.12 -38.33,1.1500000000000001 -38.370000000000005,1.19 -38.45,1.23 -38.5,1.25 -38.54,1.26 -38.59,1.27 -38.63,1.28 -38.68,1.27 -38.72,1.26 -38.769999999999996,1.25 -38.809999999999995,1.23 -38.86,1.21 -38.9,1.19 -38.94,1.1500000000000001 -38.980000000000004,1.12 -39.02,1.08 -39.1,0.98 -39.129999999999995,0.9299999999999999 -39.22,0.75 -39.25,0.68 -39.31,0.47 -39.32,0.39 -39.34,0.32 -39.35,0.24 -39.35,0.16 -39.36,0.08 -39.36,-0.08 -39.35,-0.16"/>
<polygon class="l0d0" points="16.59,-0.24 16.599999999999998,-0.32 16.619999999999997,-0.39 16.63,-0.47 16.69,-0.68 16.72,-0.75 16.810000000000002,-0.9299999999999999 16.84,-0.98 16.919999999999998,-1.08 16.95,-1.12 17.0,-1.1500000000000001 17.04,-1.19 17.12,-1.23 17.17,-1.25 17.21,-1.26 17.259999999999998,-1.27 17.3,-1.28 17.35,-1.27 17.39,-1.26 17.44,-1.25 17.48,-1.23 17.529999999999998,-1.21 17.57,-1.19 17.61,-1.1500000000000001 17.65,-1.12 17.689999999999998,-1.08 17.77,-0.98 17.8,-0.9299999999999999 17.89,-0.75 17.91,-0.68 17.94,-0.61 17.98,-0.47 17.99,-0.39 18.0,-0.32 18.02,-0.14 18.03,-0.08 18.03,0.08 18.0,0.32 17.99,0.39 17.98,0.47 17.94,0.61 17.91,0.68 17.89,0.75 17.8,0.9299999999999999 17.77,0.98 17.689999999999998,1.08 17.65,1.12 17.61,1.1500000000000001 17.57,1.19 17.529999999999998,1.21 17.48,1.23 17.44,1.25 17.39,1.26 17.35,1.27 17.3,1.28 17.259999999999998,1.27 17.21,1.26 17.17,1.25 17.12,1.23 17.04,1.19 17.0,1.1500000000000001 16.95,1.12 16.919999999999998,1.08 16.84,0.98 16.810000000000002,0.9299999999999999 16.72,0.75 16.69,0.68 16.63,0.47 16.619999999999997,0.39 16.599999999999998,0.32 16.59,0.24 16.59,0.16 16.58,0.08 16.58,-0.08 16.59,-0.16"/>
<polygon class="l0d0" points="-9.05,-0.39 -9.030000000000001,-0.47 -8.95,-0.75 -8.86,-0.9299999999999999 -8.82,-0.98 -8.79,-1.03 -8.75,-1.08 -8.71,-1.12 -8.67,-1.1500000000000001 -8.629999999999999,-1.19 -8.58,-1.21 -8.5,-1.25 -8.45,-1.26 -8.41,-1.27 -8.36,-1.28 -8.309999999999999,-1.27 -8.27,-1.26 -8.219999999999999,-1.25 -8.139999999999999,-1.21 -8.09,-1.19 -8.05,-1.1500000000000001 -8.01,-1.12 -7.970000000000001,-1.08 -7.930000000000001,-1.03 -7.9,-0.98 -7.86,-0.9299999999999999 -7.7700000000000005,-0.75 -7.73,-0.61 -7.7,-0.54 -7.69,-0.47 -7.67,-0.39 -7.66,-0.32 -7.640000000000001,-0.16 -7.640000000000001,0.16 -7.66,0.32 -7.67,0.39 -7.69,0.47 -7.7,0.54 -7.73,0.61 -7.7700000000000005,0.75 -7.86,0.9299999999999999 -7.9,0.98 -7.930000000000001,1.03 -7.970000000000001,1.08 -8.01,1.12 -8.05,1.1500000000000001 -8.09,1.19 -8.139999999999999,1.21 -8.219999999999999,1.25 -8.27,1.26 -8.309999999999999,1.27 -8.36,1.28 -8.41,1.27 -8.45,1.26 -8.5,1.25 -8.58,1.21 -8.629999999999999,1.19 -8.67,1.1500000000000001 -8.71,1.12 -8.75,1.08 -8.79,1.03 -8.82,0.98 -8.86,0.9299999999999999 -8.95,0.75 -9.030000000000001,0.47 -9.05,0.39 -9.06,0.32 -9.08,0.16 -9.08,-0.16 -9.06,-0.32"/>
<polygon class="l0d0" points="-50.72,-0.24 -50.709999999999994,-0.32 -50.69,-0.39 -50.67999999999999,-0.47 -50.620000000000005,-0.68 -50.59,-0.75 -50.5,-0.9299999999999999 -50.47,-0.98 -50.39,-1.08 -50.35,-1.12 -50.309999999999995,-1.1500000000000001 -50.27,-1.19 -50.19,-1.23 -50.14,-1.25 -50.099999999999994,-1.26 -50.05,-1.27 -50.010000000000005,-1.28 -49.96000000000001,-1.27 -49.92,-1.26 -49.870000000000005,-1.25 -49.83,-1.23 -49.78,-1.21 -49.74,-1.19 -49.699999999999996,-1.1500000000000001 -49.660000000000004,-1.12 -49.62,-1.08 -49.54,-0.98 -49.51,-0.9299999999999999 -49.42,-0.75 -49.39,-0.68 -49.33,-0.47 -49.32000000000001,-0.39 -49.3,-0.32 -49.290000000000006,-0.24 -49.290000000000006,-0.16 -49.28,-0.08 -49.28,0.08 -49.290000000000006,0.16 -49.290000000000006,0.24 -49.3,0.32 -49.32000000000001,0.39 -49.33,0.47 -49.39,0.68 -49.42,0.75 -49.51,0.9299999999999999 -49.54,0.98 -49.62,1.08 -49.660000000000004,1.12 -49.699999999999996,1.1500000000000001 -49.74,1.19 -49.78,1.21 -49.83,1.23 -49.870000000000005,1.25 -49.92,1.26 -49.96000000000001,1.27 -50.010000000000005,1.28 -50.05,1.27 -50.099999999999994,1.26 -50.14,1.25 -50.19,1.23 -50.27,1.19 -50.309999999999995,1.1500000000000001 -50.35,1.12 -50.39,1.08 -50.47,0.98 -50.5,0.9299999999999999 -50.59,0.75 -50.620000000000005,0.68 -50.67999999999999,0.47 -50.69,0.39 -50.709999999999994,0.32 -50.72,0.24 -50.72,0.16 -50.730000000000004,0.08 -50.730000000000004,-0.08 -50.72,-0.16"/>
<polygon class="l0d0" points="-47.85,-0.39 -47.839999999999996,-0.47 -47.800000000000004,-0.61 -47.77,-0.68 -47.75,-0.75 -47.66,-0.9299999999999999 -47.62,-0.98 -47.59,-1.03 -47.55,-1.08 -47.510000000000005,-1.12 -47.47,-1.1500000000000001 -47.43000000000001,-1.19 -47.39,-1.21 -47.34,-1.23 -47.300000000000004,-1.25 -47.25,-1.26 -47.21,-1.27 -47.160000000000004,-1.28 -47.12,-1.27 -47.07,-1.26 -47.03,-1.25 -46.980000000000004,-1.23 -46.900000000000006,-1.19 -46.849999999999994,-1.1500000000000001 -46.81,-1.12 -46.78,-1.08 -46.7,-0.98 -46.67,-0.9299999999999999 -46.580000000000005,-0.75 -46.550000000000004,-0.68 -46.49,-0.47 -46.47,-0.39 -46.46,-0.32 -46.44,-0.16 -46.44,0.16 -46.46,0.32 -46.47,0.39 -46.49,0.47 -46.550000000000004,0.68 -46.580000000000005,0.75 -46.67,0.9299999999999999 -46.7,0.98 -46.78,1.08 -46.81,1.12 -46.849999999999994,1.1500000000000001 -46.900000000000006,1.19 -46.980000000000004,1.23 -47.03,1.25 -47.07,1.26 -47.12,1.27 -47.160000000000004,1.28 -47.21,1.27 -47.25,1.26 -47.300000000000004,1.25 -47.34,1.23 -47.39,1.21 -47.43000000000001,1.19 -47.47,1.1500000000000001 -47.510000000000005,1.12 -47.55,1.08 -47.59,1.03 -47.62,0.98 -47.66,0.9299999999999999 -47.75,0.75 -47.77,0.68 -47.800000000000004,0.61 -47.839999999999996,0.47 -47.85,0.39 -47.86,0.32 -47.89,0.08 -47.89,-0.08 -47.86,-0.32"/>
<polygon class="l0d0" points="27.34,-0.17 27.349999999999998,-0.21000000000000002 27.400000000000002,-0.36 27.41,-0.38 27.43,-0.41000000000000003 27.44,-0.42999999999999994 27.480000000000004,-0.47 27.490000000000002,-0.49 27.509999999999998,-0.5 27.53,-0.52 27.59,-0.55 27.61,-0.55 27.63,-0.56 27.669999999999998,-0.56 27.69,-0.55 27.7,-0.55 27.759999999999998,-0.52 27.78,-0.5 27.799999999999997,-0.49 27.82,-0.47 27.83,-0.44999999999999996 27.85,-0.42999999999999994 27.86,-0.41000000000000003 27.88,-0.38 27.89,-0.36 27.94,-0.21000000000000002 27.95,-0.17 27.95,-0.14 27.959999999999997,-0.1 27.959999999999997,0.1 27.95,0.14 27.95,0.17 27.94,0.21000000000000002 27.89,0.36 27.88,0.38 27.86,0.41000000000000003 27.85,0.42999999999999994 27.83,0.44999999999999996 27.82,0.47 27.799999999999997,0.49 27.78,0.5 27.759999999999998,0.52 27.7,0.55 27.69,0.55 27.669999999999998,0.56 27.63,0.56 27.61,0.55 27.59,0.55 27.53,0.52 27.509999999999998,0.5 27.490000000000002,0.49 27.480000000000004,0.47 27.44,0.42999999999999994 27.43,0.41000000000000003 27.41,0.38 27.400000000000002,0.36 27.349999999999998,0.21000000000000002 27.34,0.17 27.34,0.14 27.330000000000002,0.1 27.330000000000002,-0.1 27.34,-0.14"/>
<polygon class="l0d0" points="-36.43,-0.61 -36.4,-0.68 -36.379999999999995,-0.75 -36.29,-0.9299999999999999 -36.25,-0.98 -36.22,-1.03 -36.18,-1.08 -36.14,-1.12 -36.1,-1.1500000000000001 -36.06,-1.19 -36.01,-1.21 -35.93,-1.25 -35.88,-1.26 -35.84,-1.27 -35.79,-1.28 -35.75,-1.27 -35.699999999999996,-1.26 -35.66,-1.25 -35.61,-1.23 -35.57,-1.21 -35.52,-1.19 -35.480000000000004,-1.1500000000000001 -35.44,-1.12 -35.4,-1.08 -35.37,-1.03 -35.33,-0.98 -35.3,-0.9299999999999999 -35.26,-0.8699999999999999 -35.230000000000004,-0.81 -35.21,-0.75 -35.18,-0.68 -35.12,-0.47 -35.099999999999994,-0.39 -35.089999999999996,-0.32 -35.07,-0.16 -35.07,0.16 -35.089999999999996,0.32 -35.099999999999994,0.39 -35.12,0.47 -35.18,0.68 -35.21,0.75 -35.230000000000004,0.81 -35.26,0.8699999999999999 -35.3,0.9299999999999999 -35.33,0.98 -35.37,1.03 -35.4,1.08 -35.44,1.12 -35.480000000000004,1.1500000000000001 -35.52,1.19 -35.57,1.21 -35.61,1.23 -35.66,1.25 -35.699999999999996,1.26 -35.75,1.27 -35.79,1.28 -35.84,1.27 -35.88,1.26 -35.93,1.25 -36.01,1.21 -36.06,1.19 -36.1,1.1500000000000001 -36.14,1.12 -36.18,1.08 -36.22,1.03 -36.25,0.98 -36.29,0.9299999999999999 -36.379999999999995,0.75 -36.4,0.68 -36.43,0.61 -36.45,0.54 -36.46,0.47 -36.480000000000004,0.39 -36.49,0.32 -36.51,0.16 -36.51,0.08 -36.52,0.0 -36.51,-0.08 -36.51,-0.16 -36.49,-0.32 -36.49,-0.34 -36.480000000000004,-0.39 -36.46,-0.47 -36.46,-0.5 -36.45,-0.54"/>
<polygon class="l0d0" points="3.12,-0.75 3.21,-0.9299999999999999 3.25,-0.98 3.2800000000000002,-1.03 3.3200000000000003,-1.08 3.3600000000000003,-1.12 3.4000000000000004,-1.1500000000000001 3.4399999999999995,-1.19 3.4899999999999998,-1.21 3.57,-1.25 3.62,-1.26 3.66,-1.27 3.71,-1.28 3.75,-1.27 3.8,-1.26 3.84,-1.25 3.89,-1.23 3.93,-1.21 3.9800000000000004,-1.19 4.0200000000000005,-1.1500000000000001 4.0600000000000005,-1.12 4.1,-1.08 4.13,-1.03 4.17,-0.98 4.2,-0.9299999999999999 4.24,-0.8699999999999999 4.27,-0.81 4.29,-0.75 4.32,-0.68 4.38,-0.47 4.4,-0.39 4.41,-0.32 4.43,-0.16 4.43,0.16 4.41,0.32 4.4,0.39 4.38,0.47 4.32,0.68 4.29,0.75 4.27,0.81 4.24,0.8699999999999999 4.2,0.9299999999999999 4.17,0.98 4.13,1.03 4.1,1.08 4.0600000000000005,1.12 4.0200000000000005,1.1500000000000001 3.9800000000000004,1.19 3.93,1.21 3.89,1.23 3.84,1.25 3.8,1.26 3.75,1.27 3.71,1.28 3.66,1.27 3.62,1.26 3.57,1.25 3.4899999999999998,1.21 3.4399999999999995,1.19 3.4000000000000004,1.1500000000000001 3.3600000000000003,1.12 3.3200000000000003,1.08 3.2800000000000002,1.03 3.25,0.98 3.21,0.9299999999999999 3.12,0.75 3.1,0.68 3.07,0.61 3.07,0.6 3.05,0.54 3.04,0.47 3.02,0.39 3.01,0.32 2.9899999999999998,0.16 2.9899999999999998,-0.16 3.01,-0.32 3.02,-0.39 3.04,-0.47 3.05,-0.54 3.07,-0.61 3.07,-0.62 3.1,-0.68"/>
<polygon class="l0d0" points="23.189999999999998,0.17 23.189999999999998,0.22999999999999998 23.18,0.28 23.17,0.34 23.15,0.39 23.14,0.43999999999999995 23.1,0.54 23.08,0.5800000000000001 23.060000000000002,0.63 23.04,0.67 23.01,0.71 22.99,0.74 22.9,0.8300000000000001 22.810000000000002,0.8899999999999999 22.75,0.9099999999999999 22.72,0.9099999999999999 22.68,0.9199999999999999 22.650000000000002,0.9099999999999999 22.62,0.9099999999999999 22.59,0.8999999999999999 22.549999999999997,0.8899999999999999 22.46,0.8300000000000001 22.400000000000002,0.77 22.38,0.74 22.349999999999998,0.71 22.330000000000002,0.67 22.3,0.63 22.28,0.5800000000000001 22.259999999999998,0.54 22.240000000000002,0.49 22.229999999999997,0.43999999999999995 22.21,0.39 22.200000000000003,0.34 22.189999999999998,0.28 22.18,0.22999999999999998 22.17,0.17 22.17,0.10999999999999999 22.160000000000004,0.06 22.160000000000004,-0.06 22.17,-0.10999999999999999 22.17,-0.17 22.18,-0.22999999999999998 22.189999999999998,-0.28 22.200000000000003,-0.34 22.21,-0.39 22.229999999999997,-0.43999999999999995 22.240000000000002,-0.49 22.259999999999998,-0.54 22.28,-0.5800000000000001 22.3,-0.63 22.330000000000002,-0.67 22.349999999999998,-0.71 22.38,-0.74 22.400000000000002,-0.77 22.46,-0.8300000000000001 22.549999999999997,-0.8899999999999999 22.59,-0.8999999999999999 22.62,-0.9099999999999999 22.650000000000002,-0.9099999999999999 22.68,-0.9199999999999999 22.72,-0.9099999999999999 22.75,-0.9099999999999999 22.810000000000002,-0.8899999999999999 22.9,-0.8300000000000001 22.99,-0.74 23.01,-0.71 23.04,-0.67 23.060000000000002,-0.63 23.08,-0.5800000000000001 23.1,-0.54 23.14,-0.43999999999999995 23.15,-0.39 23.17,-0.34 23.18,-0.28 23.189999999999998,-0.22999999999999998 23.189999999999998,-0.17 23.2,-0.10999999999999999 23.2,0.10999999999999999"/>
<polygon class="l0d0" points="19.62,-0.8 19.650000000000002,-0.8400000000000001 19.69,-0.8899999999999999 19.72,-0.9199999999999999 19.75,-0.96 19.79,-0.99 19.82,-1.02 19.9,-1.06 19.93,-1.08 19.970000000000002,-1.09 20.009999999999998,-1.09 20.049999999999997,-1.1 20.09,-1.09 20.13,-1.09 20.169999999999998,-1.08 20.21,-1.06 20.240000000000002,-1.04 20.28,-1.02 20.32,-0.99 20.35,-0.96 20.38,-0.9199999999999999 20.419999999999998,-0.8899999999999999 20.45,-0.8400000000000001 20.48,-0.8 20.5,-0.75 20.53,-0.7000000000000001 20.55,-0.64 20.58,-0.59 20.6,-0.53 20.61,-0.47 20.630000000000003,-0.4 20.64,-0.34 20.65,-0.27 20.659999999999997,-0.21000000000000002 20.67,-0.14 20.67,0.14 20.659999999999997,0.21000000000000002 20.65,0.27 20.64,0.34 20.630000000000003,0.4 20.61,0.47 20.6,0.53 20.58,0.59 20.55,0.64 20.53,0.7000000000000001 20.5,0.75 20.48,0.8 20.45,0.8400000000000001 20.419999999999998,0.8899999999999999 20.38,0.9199999999999999 20.35,0.96 20.32,0.99 20.28,1.02 20.240000000000002,1.04 20.21,1.06 20.169999999999998,1.08 20.13,1.09 20.09,1.09 20.049999999999997,1.1 20.009999999999998,1.09 19.970000000000002,1.09 19.93,1.08 19.9,1.06 19.82,1.02 19.79,0.99 19.75,0.96 19.72,0.9199999999999999 19.69,0.8899999999999999 19.650000000000002,0.8400000000000001 19.62,0.8 19.6,0.75 19.57,0.7000000000000001 19.55,0.64 19.53,0.59 19.490000000000002,0.47 19.47,0.4 19.46,0.34 19.45,0.27 19.439999999999998,0.21000000000000002 19.43,0.14 19.43,-0.14 19.439999999999998,-0.21000000000000002 19.45,-0.27 19.46,-0.34 19.47,-0.4 19.490000000000002,-0.47 19.53,-0.59 19.55,-0.64 19.57,-0.7000000000000001 19.6,-0.75"/>
<polygon class="l0d0" points="-19.22,-1.03 -19.18,-1.08 -19.14,-1.12 -19.099999999999998,-1.1500000000000001 -19.06,-1.19 -19.01,-1.21 -18.93,-1.25 -18.88,-1.26 -18.84,-1.27 -18.79,-1.28 -18.740000000000002,-1.27 -18.700000000000003,-1.26 -18.65,-1.25 -18.57,-1.21 -18.52,-1.19 -18.48,-1.1500000000000001 -18.44,-1.12 -18.400000000000002,-1.08 -18.36,-1.03 -18.33,-0.98 -18.29,-0.9299999999999999 -18.2,-0.75 -18.12,-0.47 -18.1,-0.39 -18.09,-0.32 -18.07,-0.16 -18.07,0.16 -18.09,0.32 -18.1,0.39 -18.12,0.47 -18.2,0.75 -18.29,0.9299999999999999 -18.33,0.98 -18.36,1.03 -18.400000000000002,1.08 -18.44,1.12 -18.48,1.1500000000000001 -18.52,1.19 -18.57,1.21 -18.65,1.25 -18.700000000000003,1.26 -18.740000000000002,1.27 -18.79,1.28 -18.84,1.27 -18.88,1.26 -18.93,1.25 -19.01,1.21 -19.06,1.19 -19.099999999999998,1.1500000000000001 -19.14,1.12 -19.18,1.08 -19.22,1.03 -19.25,0.98 -19.29,0.9299999999999999 -19.38,0.75 -19.419999999999998,0.61 -19.45,0.54 -19.46,0.47 -19.48,0.39 -19.490000000000002,0.32 -19.51,0.16 -19.51,-0.16 -19.490000000000002,-0.32 -19.48,-0.39 -19.46,-0.47 -19.45,-0.54 -19.419999999999998,-0.61 -19.38,-0.75 -19.29,-0.9299999999999999 -19.25,-0.98"/>
<polygon class="l0d0" points="-33.26,-1.1500000000000001 -33.21,-1.19 -33.13,-1.23 -33.08,-1.25 -33.04,-1.26 -32.99,-1.27 -32.95,-1.28 -32.9,-1.27 -32.86,-1.26 -32.81,-1.25 -32.77,-1.23 -32.72,-1.21 -32.68,-1.19 -32.64,-1.1500000000000001 -32.599999999999994,-1.12 -32.559999999999995,-1.08 -32.519999999999996,-1.03 -32.49,-0.98 -32.45,-0.9299999999999999 -32.36,-0.75 -32.34,-0.68 -32.31,-0.61 -32.269999999999996,-0.47 -32.26,-0.39 -32.25,-0.32 -32.23,-0.16 -32.23,-0.08 -32.22,0.0 -32.23,0.08 -32.23,0.16 -32.25,0.32 -32.26,0.39 -32.269999999999996,0.47 -32.31,0.61 -32.34,0.68 -32.36,0.75 -32.45,0.9299999999999999 -32.49,0.98 -32.519999999999996,1.03 -32.559999999999995,1.08 -32.599999999999994,1.12 -32.64,1.1500000000000001 -32.68,1.19 -32.72,1.21 -32.77,1.23 -32.81,1.25 -32.86,1.26 -32.9,1.27 -32.95,1.28 -32.99,1.27 -33.04,1.26 -33.08,1.25 -33.13,1.23 -33.21,1.19 -33.26,1.1500000000000001 -33.3,1.12 -33.34,1.08 -33.370000000000005,1.03 -33.410000000000004,0.98 -33.44,0.9299999999999999 -33.48,0.8699999999999999 -33.51,0.81 -33.53,0.75 -33.56,0.68 -33.620000000000005,0.47 -33.64,0.39 -33.650000000000006,0.32 -33.67,0.16 -33.67,-0.16 -33.650000000000006,-0.32 -33.64,-0.39 -33.620000000000005,-0.47 -33.56,-0.68 -33.53,-0.75 -33.51,-0.81 -33.48,-0.8699999999999999 -33.44,-0.9299999999999999 -33.410000000000004,-0.98 -33.370000000000005,-1.03 -33.34,-1.08 -33.3,-1.12"/>
<polygon class="l0d0" points="-6.16,-1.21 -6.08,-1.25 -6.029999999999999,-1.26 -5.99,-1.27 -5.9399999999999995,-1.28 -5.8999999999999995,-1.27 -5.8,-1.25 -5.72,-1.21 -5.67,-1.19 -5.629999999999999,-1.1500000000000001 -5.590000000000001,-1.12 -5.550000000000001,-1.08 -5.5200000000000005,-1.03 -5.48,-0.98 -5.45,-0.9299999999999999 -5.41,-0.8699999999999999 -5.3500000000000005,-0.75 -5.2700000000000005,-0.47 -5.25,-0.39 -5.24,-0.32 -5.220000000000001,-0.16 -5.220000000000001,0.16 -5.24,0.32 -5.25,0.39 -5.2700000000000005,0.47 -5.3500000000000005,0.75 -5.41,0.8699999999999999 -5.45,0.9299999999999999 -5.48,0.98 -5.5200000000000005,1.03 -5.550000000000001,1.08 -5.590000000000001,1.12 -5.629999999999999,1.1500000000000001 -5.67,1.19 -5.72,1.21 -5.8,1.25 -5.8999999999999995,1.27 -5.9399999999999995,1.28 -5.99,1.27 -6.029999999999999,1.26 -6.08,1.25 -6.16,1.21 -6.21,1.19 -6.25,1.1500000000000001 -6.29,1.12 -6.33,1.08 -6.37,1.03 -6.4,0.98 -6.44,0.9299999999999999 -6.53,0.75 -6.550000000000001,0.68 -6.58,0.61 -6.6000000000000005,0.54 -6.61,0.47 -6.630000000000001,0.39 -6.640000000000001,0.32 -6.66,0.16 -6.66,-0.16 -6.640000000000001,-0.32 -6.630000000000001,-0.39 -6.61,-0.47 -6.6000000000000005,-0.54 -6.58,-0.61 -6.550000000000001,-0.68 -6.53,-0.75 -6.44,-0.9299999999999999 -6.4,-0.98 -6.37,-1.03 -6.33,-1.08 -6.29,-1.12 -6.25,-1.1500000000000001 -6.21,-1.19"/>
<polygon class="l0d0" points="6.109999999999999,-1.21 6.15,-1.23 6.2,-1.25 6.24,-1.26 6.29,-1.27 6.33,-1.28 6.38,-1.27 6.42,-1.26 6.470000000000001,-1.25 6.550000000000001,-1.21 6.6000000000000005,-1.19 6.640000000000001,-1.1500000000000001 6.680000000000001,-1.12 6.720000000000001,-1.08 6.760000000000001,-1.03 6.790000000000001,-0.98 6.83,-0.9299999999999999 6.92,-0.75 6.9399999999999995,-0.68 6.97,-0.61 6.989999999999999,-0.54 7.0,-0.47 7.02,-0.39 7.05,-0.18 7.05,0.16 7.029999999999999,0.32 7.02,0.39 7.0,0.47 6.989999999999999,0.54 6.97,0.61 6.9399999999999995,0.68 6.92,0.75 6.83,0.9299999999999999 6.790000000000001,0.98 6.760000000000001,1.03 6.720000000000001,1.08 6.680000000000001,1.12 6.640000000000001,1.1500000000000001 6.6000000000000005,1.19 6.550000000000001,1.21 6.470000000000001,1.25 6.42,1.26 6.38,1.27 6.33,1.28 6.29,1.27 6.24,1.26 6.2,1.25 6.15,1.23 6.109999999999999,1.21 6.06,1.19 6.02,1.1500000000000001 5.9799999999999995,1.12 5.9399999999999995,1.08 5.91,1.03 5.869999999999999,0.98 5.84,0.9299999999999999 5.8,0.8699999999999999 5.77,0.81 5.75,0.75 5.72,0.68 5.659999999999999,0.47 5.64,0.39 5.629999999999999,0.32 5.61,0.16 5.61,-0.16 5.629999999999999,-0.32 5.64,-0.39 5.659999999999999,-0.47 5.72,-0.68 5.75,-0.75 5.77,-0.81 5.8,-0.8699999999999999 5.84,-0.9299999999999999 5.869999999999999,-0.98 5.91,-1.03 5.9399999999999995,-1.08 5.9799999999999995,-1.12 6.02,-1.1500000000000001 6.06,-1.19"/>
<polygon class="l0d0" points="124.0,4.997 124.015,4.997 125.02499999999999,4.99 126.035,4.981 127.04499999999999,4.969 128.056,4.954 129.066,4.936 130.076,4.915 131.08599999999998,4.891 132.096,4.864 133.106,4.834 134.11599999999999,4.8020000000000005 135.126,4.766 136.136,4.729 137.14600000000002,4.688 138.15699999999998,4.646 139.167,4.6000000000000005 140.177,4.553 141.187,4.503 142.197,4.451 143.207,4.396 144.21699999999998,4.34 145.227,4.282 146.237,4.222 147.247,4.1610000000000005 148.25799999999998,4.098 149.268,4.0329999999999995 150.278,3.967 152.298,3.831 153.308,3.761 155.328,3.6189999999999998 157.348,3.473 158.359,3.4000000000000004 159.369,3.326 165.429,2.8760000000000003 166.439,2.802 167.449,2.727 168.46,2.6529999999999996 169.47,2.579 170.48,2.506 172.5,2.362 172.5,2.3400000000000003 472.5,0.6 472.5,-0.6 172.5,-2.3400000000000003 172.5,-2.362 170.48,-2.506 169.47,-2.579 168.46,-2.6529999999999996 167.449,-2.727 166.439,-2.802 165.429,-2.8760000000000003 159.369,-3.326 158.359,-3.4000000000000004 157.348,-3.473 155.328,-3.6189999999999998 153.308,-3.761 152.298,-3.831 150.278,-3.967 149.268,-4.0329999999999995 148.25799999999998,-4.098 147.247,-4.1610000000000005 146.237,-4.222 145.227,-4.282 144.21699999999998,-4.34 143.207,-4.396 142.197,-4.451 141.187,-4.503 140.177,-4.553 139.167,-4.6000000000000005 138.15699999999998,-4.646 137.14600000000002,-4.688 136.136,-4.729 135.126,-4.766 134.11599999999999,-4.8020000000000005 133.106,-4.834 132.096,-4.864 131.08599999999998,-4.891 130.076,-4.915 129.066,-4.936 128.056,-4.954 127.04499999999999,-4.969 126.035,-4.981 125.02499999999999,-4.99 124.015,-4.997 124.0,-4.997 124.0,-18.0 132.5,-30.0 622.5,-30.0 622.5,30.0 132.5,30.0 124.0,18.0"/>
<polygon class="l0d0" points="-52.5,-30.0 112.5,-30.0 121.0,-18.0 121.0,-4.997 120.985,-4.997 119.97500000000001,-4.99 118.965,-4.981 117.95500000000001,-4.969 116.944,-4.954 115.93400000000001,-4.936 114.924,-4.915 113.91400000000002,-4.891 112.904,-4.864 111.89399999999999,-4.834 110.884,-4.8020000000000005 109.874,-4.766 108.864,-4.729 107.85399999999998,-4.688 106.843,-4.646 105.833,-4.6000000000000005 104.82300000000001,-4.553 103.81299999999999,-4.503 102.803,-4.451 101.79299999999999,-4.396 100.783,-4.34 99.773,-4.282 98.763,-4.222 97.753,-4.1610000000000005 96.742,-4.098 95.732,-4.0329999999999995 94.72200000000001,-3.967 92.70200000000001,-3.831 91.69200000000001,-3.761 89.672,-3.6189999999999998 87.652,-3.473 86.64099999999999,-3.4000000000000004 85.631,-3.326 79.571,-2.8760000000000003 78.56099999999999,-2.802 77.551,-2.727 76.53999999999999,-2.6529999999999996 75.53,-2.579 74.52,-2.506 72.5,-2.362 72.5,-2.3400000000000003 -52.5,-2.3400000000000003"/>
</g>
</svg>