<?xml version="1.0" encoding="UTF-8"?>
<svg xmlns="http://www.w3.org/2000/svg" xmlns:xlink="http://www.w3.org/1999/xlink"
     width="847.0" height="137.0" viewBox="-138.5 -68.5 847.0 137.0">
<defs>
<style type="text/css">
.l0d0 {stroke: rgb(255, 0, 0); fill: rgb(255, 0, 0); fill-opacity: 0.5;}
</style>
</defs>
<rect x="-138.5" y="-68.5" width="847.0" height="137.0" fill="#222" stroke="none"/>
<g id="xor_diff" transform="scale(1 -1)">
<polygon class="l0d0" points="122.02,2.506 123.03,2.579 124.03999999999999,2.6529999999999996 125.051,2.727 126.06099999999999,2.802 127.071,2.8760000000000003 133.131,3.326 134.141,3.4000000000000004 135.152,3.473 137.172,3.6189999999999998 139.192,3.761 140.202,3.831 142.222,3.967 143.232,4.0329999999999995 144.24200000000002,4.098 145.253,4.1610000000000005 146.263,4.222 147.273,4.282 148.28300000000002,4.34 149.293,4.396 150.303,4.451 151.313,4.503 152.323,4.553 153.333,4.6000000000000005 154.34300000000002,4.646 155.35399999999998,4.688 156.364,4.729 157.374,4.766 158.38400000000001,4.8020000000000005 159.394,4.834 160.40400000000002,4.864 161.41400000000002,4.891 162.424,4.915 163.434,4.936 164.44400000000002,4.954 165.455,4.969 166.465,4.981 167.475,4.99 168.485,4.997 168.5,4.997 168.5,18.0 160.0,30.0 -100.0,30.0 -100.0,2.5 121.936,2.5"/>
<polygon class="l0d0" points="-33.94,-0.8999999999999999 -33.86,-0.8 -33.82,-0.74 -33.79,-0.6900000000000001 -33.75,-0.62 -33.72,-0.56 -33.7,-0.5 -33.64,-0.29000000000000004 -33.620000000000005,-0.15 -33.61,-0.07 -33.61,0.07 -33.620000000000005,0.15 -33.64,0.29000000000000004 -33.7,0.5 -33.72,0.56 -33.75,0.62 -33.79,0.6900000000000001 -33.82,0.74 -33.86,0.8 -33.94,0.8999999999999999 -34.089999999999996,1.02 -34.24,1.11 -34.300000000000004,1.1300000000000001 -34.35,1.1500000000000001 -34.41,1.1600000000000001 -34.47,1.1600000000000001 -34.519999999999996,1.1700000000000002 -34.58,1.1600000000000001 -34.64,1.1600000000000001 -34.7,1.1500000000000001 -34.75,1.1300000000000001 -34.81,1.11 -34.96,1.02 -35.11,0.8999999999999999 -35.19,0.8 -35.230000000000004,0.74 -35.26,0.6900000000000001 -35.3,0.62 -35.33,0.56 -35.35,0.5 -35.41,0.29000000000000004 -35.43,0.15 -35.44,0.07 -35.44,-0.07 -35.43,-0.15 -35.41,-0.29000000000000004 -35.35,-0.5 -35.33,-0.56 -35.3,-0.62 -35.26,-0.6900000000000001 -35.230000000000004,-0.74 -35.19,-0.8 -35.11,-0.8999999999999999 -34.96,-1.02 -34.81,-1.11 -34.75,-1.1300000000000001 -34.7,-1.1500000000000001 -34.64,-1.1600000000000001 -34.58,-1.1600000000000001 -34.519999999999996,-1.1700000000000002 -34.47,-1.1600000000000001 -34.41,-1.1600000000000001 -34.35,-1.1500000000000001 -34.300000000000004,-1.1300000000000001 -34.24,-1.11 -34.089999999999996,-1.02"/>
<polygon class="l0d0" points="-20.560000000000002,-0.8 -20.52,-0.74 -20.49,-0.6900000000000001 -20.459999999999997,-0.62 -20.4,-0.5 -20.339999999999996,-0.29000000000000004 -20.32,-0.15 -20.32,-0.07 -20.310000000000002,0.0 -20.32,0.07 -20.32,0.15 -20.339999999999996,0.29000000000000004 -20.4,0.5 -20.459999999999997,0.62 -20.49,0.6900000000000001 -20.52,0.74 -20.560000000000002,0.8 -20.6,0.8500000000000001 -20.689999999999998,0.94 -20.790000000000003,1.02 -20.89,1.08 -20.950000000000003,1.11 -21.0,1.1300000000000001 -21.06,1.1500000000000001 -21.110000000000003,1.1600000000000001 -21.17,1.1600000000000001 -21.230000000000004,1.1700000000000002 -21.29,1.1600000000000001 -21.34,1.1600000000000001 -21.400000000000002,1.1500000000000001 -21.45,1.1300000000000001 -21.509999999999998,1.11 -21.560000000000002,1.08 -21.619999999999997,1.05 -21.669999999999998,1.02 -21.720000000000002,0.98 -21.76,0.94 -21.810000000000002,0.8999999999999999 -21.89,0.8 -21.93,0.74 -21.97,0.6900000000000001 -22.0,0.62 -22.029999999999998,0.56 -22.05,0.5 -22.080000000000002,0.42999999999999994 -22.1,0.36 -22.130000000000003,0.15 -22.14,0.07 -22.14,-0.07 -22.130000000000003,-0.15 -22.1,-0.36 -22.080000000000002,-0.42999999999999994 -22.05,-0.5 -22.029999999999998,-0.56 -22.0,-0.62 -21.97,-0.6900000000000001 -21.93,-0.74 -21.89,-0.8 -21.810000000000002,-0.8999999999999999 -21.76,-0.94 -21.720000000000002,-0.98 -21.669999999999998,-1.02 -21.619999999999997,-1.05 -21.560000000000002,-1.08 -21.509999999999998,-1.11 -21.45,-1.1300000000000001 -21.400000000000002,-1.1500000000000001 -21.34,-1.1600000000000001 -21.29,-1.1600000000000001 -21.230000000000004,-1.1700000000000002 -21.17,-1.1600000000000001 -21.110000000000003,-1.1600000000000001 -21.06,-1.1500000000000001 -21.0,-1.1300000000000001 -20.950000000000003,-1.11 -20.89,-1.08 -20.790000000000003,-1.02 -20.689999999999998,-0.94 -20.6,-0.8500000000000001"/>
<polygon class="l0d0" points="16.33,-0.74 16.37,-0.6900000000000001 16.4,-0.62 16.46,-0.5 16.5,-0.36 16.51,-0.29000000000000004 16.53,-0.21999999999999997 16.54,-0.15 16.54,0.15 16.53,0.21999999999999997 16.51,0.29000000000000004 16.5,0.36 16.46,0.5 16.4,0.62 16.37,0.6900000000000001 16.33,0.74 16.299999999999997,0.8 16.25,0.8500000000000001 16.21,0.8999999999999999 16.17,0.94 16.07,1.02 15.969999999999999,1.08 15.91,1.11 15.860000000000001,1.1300000000000001 15.8,1.1500000000000001 15.74,1.1600000000000001 15.69,1.1600000000000001 15.629999999999999,1.1700000000000002 15.57,1.1600000000000001 15.52,1.1600000000000001 15.46,1.1500000000000001 15.4,1.1300000000000001 15.35,1.11 15.29,1.08 15.19,1.02 15.09,0.94 15.0,0.8500000000000001 14.96,0.8 14.930000000000001,0.74 14.89,0.6900000000000001 14.86,0.62 14.8,0.5 14.76,0.36 14.75,0.29000000000000004 14.73,0.21999999999999997 14.719999999999999,0.15 14.719999999999999,-0.15 14.73,-0.21999999999999997 14.75,-0.29000000000000004 14.76,-0.36 14.8,-0.5 14.86,-0.62 14.89,-0.6900000000000001 14.930000000000001,-0.74 14.96,-0.8 15.0,-0.8500000000000001 15.09,-0.94 15.19,-1.02 15.29,-1.08 15.35,-1.11 15.4,-1.1300000000000001 15.46,-1.1500000000000001 15.52,-1.1600000000000001 15.57,-1.1600000000000001 15.629999999999999,-1.1700000000000002 15.69,-1.1600000000000001 15.74,-1.1600000000000001 15.8,-1.1500000000000001 15.860000000000001,-1.1300000000000001 15.91,-1.11 15.969999999999999,-1.08 16.07,-1.02 16.17,-0.94 16.21,-0.8999999999999999 16.25,-0.8500000000000001 16.299999999999997,-0.8"/>
<polygon class="l0d0" points="-7.62,-0.94 -7.58,-0.8999999999999999 -7.54,-0.8500000000000001 -7.49,-0.8 -7.46,-0.74 -7.42,-0.6900000000000001 -7.39,-0.62 -7.33,-0.5 -7.29,-0.36 -7.279999999999999,-0.29000000000000004 -7.26,-0.21999999999999997 -7.25,-0.15 -7.25,0.15 -7.26,0.21999999999999997 -7.279999999999999,0.29000000000000004 -7.29,0.36 -7.33,0.5 -7.39,0.62 -7.42,0.6900000000000001 -7.46,0.74 -7.49,0.8 -7.54,0.8500000000000001 -7.58,0.8999999999999999 -7.62,0.94 -7.720000000000001,1.02 -7.82,1.08 -7.880000000000001,1.11 -7.930000000000001,1.1300000000000001 -7.99,1.1500000000000001 -8.05,1.1600000000000001 -8.100000000000001,1.1600000000000001 -8.16,1.1700000000000002 -8.219999999999999,1.1600000000000001 -8.27,1.1600000000000001 -8.33,1.1500000000000001 -8.39,1.1300000000000001 -8.44,1.11 -8.5,1.08 -8.6,1.02 -8.7,0.94 -8.79,0.8500000000000001 -8.83,0.8 -8.86,0.74 -8.9,0.6900000000000001 -8.93,0.62 -8.99,0.5 -9.030000000000001,0.36 -9.040000000000001,0.29000000000000004 -9.06,0.21999999999999997 -9.07,0.15 -9.07,-0.15 -9.06,-0.21999999999999997 -9.040000000000001,-0.29000000000000004 -9.030000000000001,-0.36 -8.99,-0.5 -8.93,-0.62 -8.9,-0.6900000000000001 -8.86,-0.74 -8.83,-0.8 -8.79,-0.8500000000000001 -8.7,-0.94 -8.6,-1.02 -8.5,-1.08 -8.44,-1.11 -8.39,-1.1300000000000001 -8.33,-1.1500000000000001 -8.27,-1.1600000000000001 -8.219999999999999,-1.1600000000000001 -8.16,-1.1700000000000002 -8.100000000000001,-1.1600000000000001 -8.05,-1.1600000000000001 -7.99,-1.1500000000000001 -7.930000000000001,-1.1300000000000001 -7.880000000000001,-1.11 -7.82,-1.08 -7.720000000000001,-1.02"/>
<polygon class="l0d0" points="4.03,-0.8500000000000001 4.08,-0.8 4.109999999999999,-0.74 4.1499999999999995,-0.6900000000000001 4.18,-0.62 4.24,-0.5 4.28,-0.36 4.29,-0.29000000000000004 4.31,-0.21999999999999997 4.32,-0.15 4.32,0.15 4.31,0.21999999999999997 4.29,0.29000000000000004 4.28,0.36 4.24,0.5 4.18,0.62 4.1499999999999995,0.6900000000000001 4.109999999999999,0.74 4.08,0.8 4.03,0.8500000000000001 3.99,0.8999999999999999 3.95,0.94 3.85,1.02 3.75,1.08 3.69,1.11 3.6399999999999997,1.1300000000000001 3.58,1.1500000000000001 3.5199999999999996,1.1600000000000001 3.4699999999999998,1.1600000000000001 3.41,1.1700000000000002 3.35,1.1600000000000001 3.3000000000000003,1.1600000000000001 3.24,1.1500000000000001 3.18,1.1300000000000001 3.13,1.11 3.07,1.08 2.9699999999999998,1.02 2.8699999999999997,0.94 2.7800000000000002,0.8500000000000001 2.74,0.8 2.71,0.74 2.67,0.6900000000000001 2.64,0.62 2.58,0.5 2.54,0.36 2.5300000000000002,0.29000000000000004 2.51,0.21999999999999997 2.5,0.15 2.5,-0.15 2.51,-0.21999999999999997 2.5300000000000002,-0.29000000000000004 2.54,-0.36 2.58,-0.5 2.64,-0.62 2.67,-0.6900000000000001 2.71,-0.74 2.74,-0.8 2.7800000000000002,-0.8500000000000001 2.8699999999999997,-0.94 2.9699999999999998,-1.02 3.07,-1.08 3.13,-1.11 3.18,-1.1300000000000001 3.24,-1.1500000000000001 3.3000000000000003,-1.1600000000000001 3.35,-1.1600000000000001 3.41,-1.1700000000000002 3.4699999999999998,-1.1600000000000001 3.5199999999999996,-1.1600000000000001 3.58,-1.1500000000000001 3.6399999999999997,-1.1300000000000001 3.69,-1.11 3.75,-1.08 3.85,-1.02 3.95,-0.94 3.99,-0.8999999999999999"/>
<polygon class="l0d0" points="-4.32,-0.15 -4.3,-0.29000000000000004 -4.24,-0.5 -4.18,-0.62 -4.1499999999999995,-0.6900000000000001 -4.12,-0.74 -4.08,-0.8 -4.0,-0.8999999999999999 -3.85,-1.02 -3.7,-1.11 -3.58,-1.1500000000000001 -3.53,-1.1600000000000001 -3.4699999999999998,-1.1600000000000001 -3.41,-1.1700000000000002 -3.3600000000000003,-1.1600000000000001 -3.3000000000000003,-1.1600000000000001 -3.24,-1.1500000000000001 -3.19,-1.1300000000000001 -3.13,-1.11 -3.08,-1.08 -3.02,-1.05 -2.9699999999999998,-1.02 -2.92,-0.98 -2.88,-0.94 -2.8299999999999996,-0.8999999999999999 -2.75,-0.8 -2.71,-0.74 -2.67,-0.6900000000000001 -2.64,-0.62 -2.6100000000000003,-0.56 -2.59,-0.5 -2.56,-0.42999999999999994 -2.54,-0.36 -2.51,-0.15 -2.5,-0.07 -2.5,0.07 -2.51,0.15 -2.54,0.36 -2.56,0.42999999999999994 -2.59,0.5 -2.6100000000000003,0.56 -2.67,0.68 -2.67,0.6900000000000001 -2.71,0.74 -2.75,0.8 -2.8299999999999996,0.8999999999999999 -2.88,0.94 -2.92,0.98 -2.9699999999999998,1.02 -3.02,1.05 -3.08,1.08 -3.13,1.11 -3.19,1.1300000000000001 -3.24,1.1500000000000001 -3.3000000000000003,1.1600000000000001 -3.3600000000000003,1.1600000000000001 -3.41,1.1700000000000002 -3.4699999999999998,1.1600000000000001 -3.53,1.1600000000000001 -3.58,1.1500000000000001 -3.7,1.11 -3.85,1.02 -4.0,0.8999999999999999 -4.08,0.8 -4.12,0.74 -4.1499999999999995,0.6900000000000001 -4.18,0.62 -4.24,0.5 -4.3,0.29000000000000004 -4.32,0.15 -4.32,0.07 -4.33,0.0 -4.32,-0.07"/>
<polygon class="l0d0" points="27.71,-0.1 27.72,-0.13 27.72,-0.16 27.75,-0.25 27.770000000000003,-0.27 27.78,-0.3 27.799999999999997,-0.32 27.810000000000002,-0.35000000000000003 27.91,-0.44999999999999996 27.93,-0.45999999999999996 27.959999999999997,-0.47 28.0,-0.49 28.03,-0.5 28.05,-0.51 28.15,-0.51 28.18,-0.5 28.2,-0.49 28.23,-0.48 28.27,-0.45999999999999996 28.3,-0.44999999999999996 28.380000000000003,-0.37 28.39,-0.35000000000000003 28.410000000000004,-0.32 28.43,-0.3 28.439999999999998,-0.27 28.450000000000003,-0.25 28.5,-0.1 28.5,0.1 28.450000000000003,0.25 28.439999999999998,0.27 28.43,0.3 28.410000000000004,0.32 28.39,0.35000000000000003 28.380000000000003,0.37 28.3,0.44999999999999996 28.27,0.45999999999999996 28.23,0.48 28.2,0.49 28.18,0.5 28.15,0.51 28.05,0.51 28.03,0.5 28.0,0.49 27.959999999999997,0.47 27.93,0.45999999999999996 27.91,0.44999999999999996 27.810000000000002,0.35000000000000003 27.799999999999997,0.32 27.78,0.3 27.770000000000003,0.27 27.75,0.25 27.72,0.16 27.72,0.13 27.71,0.1 27.71,0.03 27.7,0.0 27.71,-0.03"/>
<polygon class="l0d0" points="26.43,0.16 26.400000000000002,0.31 26.38,0.36 26.36,0.4 26.34,0.44999999999999996 26.32,0.49 26.29,0.53 26.269999999999996,0.5700000000000001 26.21,0.65 26.17,0.68 26.14,0.71 26.099999999999998,0.73 26.07,0.76 25.990000000000002,0.8 25.830000000000002,0.8400000000000001 25.75,0.8400000000000001 25.7,0.8300000000000001 25.58,0.8 25.55,0.78 25.51,0.76 25.470000000000002,0.73 25.44,0.71 25.4,0.68 25.369999999999997,0.65 25.28,0.53 25.259999999999998,0.49 25.23,0.44999999999999996 25.21,0.4 25.19,0.36 25.18,0.31 25.16,0.26 25.139999999999997,0.16 25.139999999999997,0.1 25.13,0.05 25.13,-0.05 25.139999999999997,-0.1 25.139999999999997,-0.16 25.16,-0.26 25.18,-0.31 25.19,-0.36 25.21,-0.4 25.23,-0.44999999999999996 25.259999999999998,-0.49 25.28,-0.53 25.369999999999997,-0.65 25.4,-0.68 25.44,-0.71 25.470000000000002,-0.73 25.51,-0.76 25.55,-0.78 25.58,-0.8 25.7,-0.8300000000000001 25.75,-0.8400000000000001 25.830000000000002,-0.8400000000000001 25.990000000000002,-0.8 26.07,-0.76 26.099999999999998,-0.73 26.14,-0.71 26.17,-0.68 26.21,-0.65 26.269999999999996,-0.5700000000000001 26.29,-0.53 26.32,-0.49 26.34,-0.44999999999999996 26.36,-0.4 26.38,-0.36 26.400000000000002,-0.31 26.43,-0.16 26.44,-0.1 26.44,0.1"/>
<polygon class="l0d0" points="0.26,-0.36 0.28,-0.42999999999999994 0.31,-0.5 0.33,-0.56 0.36,-0.62 0.39,-0.6900000000000001 0.42999999999999994,-0.74 0.47,-0.8 0.55,-0.8999999999999999 0.6,-0.94 0.64,-0.98 0.6900000000000001,-1.02 0.74,-1.05 0.8,-1.08 0.8500000000000001,-1.11 0.9099999999999999,-1.1300000000000001 0.96,-1.1500000000000001 1.02,-1.1600000000000001 1.08,-1.1600000000000001 1.1300000000000001,-1.1700000000000002 1.19,-1.1600000000000001 1.25,-1.1600000000000001 1.3,-1.1500000000000001 1.42,-1.11 1.57,-1.02 1.6700000000000002,-0.94 1.7599999999999998,-0.8500000000000001 1.7999999999999998,-0.8 1.8399999999999999,-0.74 1.87,-0.6900000000000001 1.9,-0.62 1.96,-0.5 2.02,-0.29000000000000004 2.04,-0.15 2.04,-0.07 2.05,0.0 2.04,0.07 2.04,0.15 2.02,0.29000000000000004 1.96,0.5 1.9,0.62 1.87,0.6900000000000001 1.8399999999999999,0.74 1.7999999999999998,0.8 1.7599999999999998,0.8500000000000001 1.6700000000000002,0.94 1.57,1.02 1.42,1.11 1.3,1.1500000000000001 1.25,1.1600000000000001 1.19,1.1600000000000001 1.1300000000000001,1.1700000000000002 1.08,1.1600000000000001 1.02,1.1600000000000001 0.96,1.1500000000000001 0.9099999999999999,1.1300000000000001 0.8500000000000001,1.11 0.8,1.08 0.74,1.05 0.6900000000000001,1.02 0.64,0.98 0.6,0.94 0.55,0.8999999999999999 0.47,0.8 0.42999999999999994,0.74 0.39,0.6900000000000001 0.36,0.62 0.33,0.56 0.31,0.5 0.28,0.42999999999999994 0.26,0.36 0.22999999999999998,0.15 0.21999999999999997,0.07 0.21999999999999997,-0.07 0.22999999999999998,-0.15"/>
<polygon class="l0d0" points="7.22,-0.29000000000000004 7.279999999999999,-0.5 7.31,-0.56 7.33,-0.62 7.37,-0.6900000000000001 7.4,-0.74 7.4399999999999995,-0.8 7.52,-0.8999999999999999 7.67,-1.02 7.82,-1.11 7.880000000000001,-1.1300000000000001 7.930000000000001,-1.1500000000000001 7.99,-1.1600000000000001 8.05,-1.1600000000000001 8.110000000000001,-1.1700000000000002 8.16,-1.1600000000000001 8.219999999999999,-1.1600000000000001 8.28,-1.1500000000000001 8.33,-1.1300000000000001 8.39,-1.11 8.49,-1.05 8.55,-1.02 8.6,-0.98 8.64,-0.94 8.69,-0.8999999999999999 8.77,-0.8 8.81,-0.74 8.84,-0.6900000000000001 8.88,-0.62 8.91,-0.56 8.93,-0.5 8.99,-0.29000000000000004 9.01,-0.15 9.02,-0.07 9.02,0.07 9.01,0.15 8.99,0.29000000000000004 8.93,0.5 8.91,0.56 8.88,0.62 8.84,0.6900000000000001 8.81,0.74 8.77,0.8 8.69,0.8999999999999999 8.64,0.94 8.6,0.98 8.55,1.02 8.49,1.05 8.39,1.11 8.33,1.1300000000000001 8.28,1.1500000000000001 8.219999999999999,1.1600000000000001 8.16,1.1600000000000001 8.110000000000001,1.1700000000000002 8.05,1.1600000000000001 7.99,1.1600000000000001 7.930000000000001,1.1500000000000001 7.880000000000001,1.1300000000000001 7.82,1.11 7.67,1.02 7.52,0.8999999999999999 7.4399999999999995,0.8 7.4,0.74 7.37,0.6900000000000001 7.33,0.62 7.31,0.56 7.279999999999999,0.5 7.22,0.29000000000000004 7.199999999999999,0.15 7.1899999999999995,0.07 7.1899999999999995,-0.07 7.199999999999999,-0.15"/>
<polygon class="l0d0" points="6.630000000000001,0.15 6.61,0.29000000000000004 6.550000000000001,0.5 6.53,0.56 6.5,0.62 6.46,0.6900000000000001 6.43,0.74 6.390000000000001,0.8 6.3100000000000005,0.8999999999999999 6.26,0.94 6.22,0.98 6.17,1.02 6.109999999999999,1.05 6.01,1.11 5.949999999999999,1.1300000000000001 5.8999999999999995,1.1500000000000001 5.84,1.1600000000000001 5.779999999999999,1.1600000000000001 5.7299999999999995,1.1700000000000002 5.67,1.1600000000000001 5.61,1.1600000000000001 5.550000000000001,1.1500000000000001 5.5,1.1300000000000001 5.44,1.11 5.29,1.02 5.140000000000001,0.8999999999999999 5.0600000000000005,0.8 5.02,0.74 4.99,0.6900000000000001 4.95,0.62 4.93,0.56 4.9,0.5 4.84,0.29000000000000004 4.82,0.15 4.81,0.07 4.81,-0.07 4.82,-0.15 4.84,-0.29000000000000004 4.9,-0.5 4.93,-0.56 4.95,-0.62 4.99,-0.6900000000000001 5.02,-0.74 5.0600000000000005,-0.8 5.140000000000001,-0.8999999999999999 5.29,-1.02 5.44,-1.11 5.5,-1.1300000000000001 5.550000000000001,-1.1500000000000001 5.61,-1.1600000000000001 5.67,-1.1600000000000001 5.7299999999999995,-1.1700000000000002 5.779999999999999,-1.1600000000000001 5.84,-1.1600000000000001 5.8999999999999995,-1.1500000000000001 5.949999999999999,-1.1300000000000001 6.01,-1.11 6.109999999999999,-1.05 6.17,-1.02 6.22,-0.98 6.26,-0.94 6.3100000000000005,-0.8999999999999999 6.390000000000001,-0.8 6.43,-0.74 6.46,-0.6900000000000001 6.5,-0.62 6.53,-0.56 6.550000000000001,-0.5 6.61,-0.29000000000000004 6.630000000000001,-0.15 6.640000000000001,-0.07 6.640000000000001,0.07"/>
<polygon class="l0d0" points="-24.759999999999998,-0.36 -24.740000000000002,-0.42999999999999994 -24.71,-0.5 -24.689999999999998,-0.56 -24.660000000000004,-0.62 -24.630000000000003,-0.6900000000000001 -24.59,-0.74 -24.55,-0.8 -24.47,-0.8999999999999999 -24.42,-0.94 -24.380000000000003,-0.98 -24.33,-1.02 -24.28,-1.05 -24.220000000000002,-1.08 -24.169999999999998,-1.11 -24.11,-1.1300000000000001 -24.060000000000002,-1.1500000000000001 -24.0,-1.1600000000000001 -23.94,-1.1600000000000001 -23.889999999999997,-1.1700000000000002 -23.83,-1.1600000000000001 -23.769999999999996,-1.1600000000000001 -23.72,-1.1500000000000001 -23.599999999999998,-1.11 -23.450000000000003,-1.02 -23.35,-0.94 -23.26,-0.8500000000000001 -23.22,-0.8 -23.18,-0.74 -23.15,-0.6900000000000001 -23.119999999999997,-0.62 -23.060000000000002,-0.5 -23.0,-0.29000000000000004 -22.98,-0.15 -22.98,-0.07 -22.970000000000002,0.0 -22.98,0.07 -22.98,0.15 -23.0,0.29000000000000004 -23.060000000000002,0.5 -23.119999999999997,0.62 -23.15,0.6900000000000001 -23.18,0.74 -23.22,0.8 -23.26,0.8500000000000001 -23.35,0.94 -23.450000000000003,1.02 -23.599999999999998,1.11 -23.72,1.1500000000000001 -23.769999999999996,1.1600000000000001 -23.83,1.1600000000000001 -23.889999999999997,1.1700000000000002 -23.94,1.1600000000000001 -24.0,1.1600000000000001 -24.060000000000002,1.1500000000000001 -24.11,1.1300000000000001 -24.169999999999998,1.11 -24.220000000000002,1.08 -24.28,1.05 -24.33,1.02 -24.380000000000003,0.98 -24.42,0.94 -24.47,0.8999999999999999 -24.55,0.8 -24.59,0.74 -24.630000000000003,0.6900000000000001 -24.660000000000004,0.62 -24.689999999999998,0.56 -24.71,0.5 -24.740000000000002,0.42999999999999994 -24.759999999999998,0.36 -24.79,0.15 -24.8,0.07 -24.8,-0.07 -24.79,-0.15"/>
<polygon class="l0d0" points="-4.84,0.15 -4.859999999999999,0.29000000000000004 -4.92,0.5 -4.9399999999999995,0.56 -4.97,0.62 -5.01,0.6900000000000001 -5.04,0.74 -5.08,0.8 -5.16,0.8999999999999999 -5.26,0.98 -5.300000000000001,1.02 -5.36,1.05 -5.460000000000001,1.11 -5.5200000000000005,1.1300000000000001 -5.57,1.1500000000000001 -5.629999999999999,1.1600000000000001 -5.6899999999999995,1.1600000000000001 -5.739999999999999,1.1700000000000002 -5.8,1.1600000000000001 -5.859999999999999,1.1600000000000001 -5.92,1.1500000000000001 -5.97,1.1300000000000001 -6.029999999999999,1.11 -6.18,1.02 -6.33,0.8999999999999999 -6.41,0.8 -6.45,0.74 -6.48,0.6900000000000001 -6.5200000000000005,0.62 -6.54,0.56 -6.57,0.5 -6.630000000000001,0.29000000000000004 -6.65,0.15 -6.66,0.07 -6.66,-0.07 -6.65,-0.15 -6.630000000000001,-0.29000000000000004 -6.57,-0.5 -6.54,-0.56 -6.5200000000000005,-0.62 -6.48,-0.6900000000000001 -6.45,-0.74 -6.41,-0.8 -6.33,-0.8999999999999999 -6.18,-1.02 -6.029999999999999,-1.11 -5.97,-1.1300000000000001 -5.92,-1.1500000000000001 -5.859999999999999,-1.1600000000000001 -5.8,-1.1600000000000001 -5.739999999999999,-1.1700000000000002 -5.6899999999999995,-1.1600000000000001 -5.629999999999999,-1.1600000000000001 -5.57,-1.1500000000000001 -5.5200000000000005,-1.1300000000000001 -5.460000000000001,-1.11 -5.36,-1.05 -5.300000000000001,-1.02 -5.26,-0.98 -5.16,-0.8999999999999999 -5.08,-0.8 -5.04,-0.74 -5.01,-0.6900000000000001 -4.97,-0.62 -4.9399999999999995,-0.56 -4.92,-0.5 -4.859999999999999,-0.29000000000000004 -4.84,-0.15 -4.83,-0.07 -4.83,0.07"/>
<polygon class="l0d0" points="12.190000000000001,-0.29000000000000004 12.25,-0.5 12.270000000000001,-0.56 12.3,-0.62 12.34,-0.6900000000000001 12.370000000000001,-0.74 12.41,-0.8 12.490000000000002,-0.8999999999999999 12.59,-0.98 12.629999999999999,-1.02 12.69,-1.05 12.79,-1.11 12.85,-1.1300000000000001 12.9,-1.1500000000000001 12.96,-1.1600000000000001 13.02,-1.1600000000000001 13.07,-1.1700000000000002 13.129999999999999,-1.1600000000000001 13.19,-1.1600000000000001 13.25,-1.1500000000000001 13.3,-1.1300000000000001 13.360000000000001,-1.11 13.51,-1.02 13.66,-0.8999999999999999 13.740000000000002,-0.8 13.78,-0.74 13.81,-0.6900000000000001 13.85,-0.62 13.870000000000001,-0.56 13.899999999999999,-0.5 13.959999999999999,-0.29000000000000004 13.979999999999999,-0.15 13.99,-0.07 13.99,0.07 13.979999999999999,0.15 13.959999999999999,0.29000000000000004 13.899999999999999,0.5 13.870000000000001,0.56 13.85,0.62 13.81,0.6900000000000001 13.78,0.74 13.740000000000002,0.8 13.66,0.8999999999999999 13.51,1.02 13.360000000000001,1.11 13.3,1.1300000000000001 13.25,1.1500000000000001 13.19,1.1600000000000001 13.129999999999999,1.1600000000000001 13.07,1.1700000000000002 13.02,1.1600000000000001 12.96,1.1600000000000001 12.9,1.1500000000000001 12.85,1.1300000000000001 12.79,1.11 12.69,1.05 12.629999999999999,1.02 12.59,0.98 12.490000000000002,0.8999999999999999 12.41,0.8 12.370000000000001,0.74 12.34,0.6900000000000001 12.3,0.62 12.270000000000001,0.56 12.25,0.5 12.190000000000001,0.29000000000000004 12.170000000000002,0.15 12.16,0.07 12.16,-0.07 12.170000000000002,-0.15"/>
<polygon class="l0d0" points="-30.09,-0.29000000000000004 -30.07,-0.36 -30.06,-0.42999999999999994 -30.03,-0.5 -30.009999999999998,-0.56 -29.980000000000004,-0.62 -29.94,-0.6900000000000001 -29.91,-0.74 -29.87,-0.8 -29.79,-0.8999999999999999 -29.740000000000002,-0.94 -29.700000000000003,-0.98 -29.65,-1.02 -29.59,-1.05 -29.49,-1.11 -29.43,-1.1300000000000001 -29.380000000000003,-1.1500000000000001 -29.32,-1.1600000000000001 -29.26,-1.1600000000000001 -29.209999999999997,-1.1700000000000002 -29.15,-1.1600000000000001 -29.089999999999996,-1.1600000000000001 -29.03,-1.1500000000000001 -28.98,-1.1300000000000001 -28.919999999999998,-1.11 -28.769999999999996,-1.02 -28.62,-0.8999999999999999 -28.54,-0.8 -28.5,-0.74 -28.47,-0.6900000000000001 -28.439999999999998,-0.62 -28.380000000000003,-0.5 -28.32,-0.29000000000000004 -28.3,-0.15 -28.290000000000003,-0.07 -28.290000000000003,0.07 -28.3,0.15 -28.32,0.29000000000000004 -28.380000000000003,0.5 -28.439999999999998,0.62 -28.47,0.6900000000000001 -28.5,0.74 -28.54,0.8 -28.62,0.8999999999999999 -28.769999999999996,1.02 -28.919999999999998,1.11 -28.98,1.1300000000000001 -29.03,1.1500000000000001 -29.089999999999996,1.1600000000000001 -29.15,1.1600000000000001 -29.209999999999997,1.1700000000000002 -29.26,1.1600000000000001 -29.32,1.1600000000000001 -29.380000000000003,1.1500000000000001 -29.43,1.1300000000000001 -29.49,1.11 -29.59,1.05 -29.65,1.02 -29.700000000000003,0.98 -29.740000000000002,0.94 -29.79,0.8999999999999999 -29.87,0.8 -29.91,0.74 -29.94,0.6900000000000001 -29.980000000000004,0.62 -30.009999999999998,0.56 -30.03,0.5 -30.06,0.42999999999999994 -30.07,0.36 -30.09,0.29000000000000004 -30.11,0.15 -30.12,0.07 -30.12,-0.07 -30.11,-0.15"/>
<polygon class="l0d0" points="-12.350000000000001,0.07 -12.36,0.15 -12.379999999999999,0.29000000000000004 -12.4,0.36 -12.41,0.42999999999999994 -12.44,0.5 -12.46,0.56 -12.490000000000002,0.62 -12.53,0.6900000000000001 -12.56,0.74 -12.6,0.8 -12.68,0.8999999999999999 -12.729999999999999,0.94 -12.77,0.98 -12.82,1.02 -12.88,1.05 -12.98,1.11 -13.040000000000001,1.1300000000000001 -13.09,1.1500000000000001 -13.149999999999999,1.1600000000000001 -13.209999999999999,1.1600000000000001 -13.260000000000002,1.1700000000000002 -13.32,1.1600000000000001 -13.38,1.1600000000000001 -13.440000000000001,1.1500000000000001 -13.49,1.1300000000000001 -13.55,1.11 -13.700000000000001,1.02 -13.85,0.8999999999999999 -13.93,0.8 -13.97,0.74 -14.0,0.6900000000000001 -14.0,0.68 -14.09,0.5 -14.15,0.29000000000000004 -14.17,0.15 -14.18,0.07 -14.18,-0.07 -14.17,-0.15 -14.15,-0.29000000000000004 -14.09,-0.5 -14.030000000000001,-0.62 -14.0,-0.6900000000000001 -13.97,-0.74 -13.93,-0.8 -13.85,-0.8999999999999999 -13.700000000000001,-1.02 -13.55,-1.11 -13.49,-1.1300000000000001 -13.440000000000001,-1.1500000000000001 -13.38,-1.1600000000000001 -13.32,-1.1600000000000001 -13.260000000000002,-1.1700000000000002 -13.209999999999999,-1.1600000000000001 -13.149999999999999,-1.1600000000000001 -13.09,-1.1500000000000001 -13.040000000000001,-1.1300000000000001 -12.98,-1.11 -12.88,-1.05 -12.82,-1.02 -12.77,-0.98 -12.729999999999999,-0.94 -12.68,-0.8999999999999999 -12.6,-0.8 -12.56,-0.74 -12.53,-0.6900000000000001 -12.490000000000002,-0.62 -12.46,-0.56 -12.44,-0.5 -12.41,-0.42999999999999994 -12.4,-0.36 -12.379999999999999,-0.29000000000000004 -12.36,-0.15 -12.350000000000001,-0.07"/>
<polygon class="l0d0" points="-40.730000000000004,-0.29000000000000004 -40.67,-0.5 -40.61,-0.62 -40.58,-0.6900000000000001 -40.55,-0.74 -40.510000000000005,-0.8 -40.43,-0.8999999999999999 -40.279999999999994,-1.02 -40.129999999999995,-1.11 -40.010000000000005,-1.1500000000000001 -39.96,-1.1600000000000001 -39.900000000000006,-1.1600000000000001 -39.84,-1.1700000000000002 -39.79,-1.1600000000000001 -39.73,-1.1600000000000001 -39.67,-1.1500000000000001 -39.620000000000005,-1.1300000000000001 -39.56,-1.11 -39.46,-1.05 -39.4,-1.02 -39.35,-0.98 -39.31,-0.94 -39.260000000000005,-0.8999999999999999 -39.18,-0.8 -39.14,-0.74 -39.11,-0.6900000000000001 -39.07,-0.62 -39.04,-0.56 -39.02,-0.5 -38.99,-0.42999999999999994 -38.980000000000004,-0.36 -38.96,-0.29000000000000004 -38.94,-0.15 -38.93,-0.07 -38.93,0.07 -38.94,0.15 -38.96,0.29000000000000004 -38.980000000000004,0.36 -38.99,0.42999999999999994 -39.02,0.5 -39.04,0.56 -39.07,0.62 -39.11,0.6900000000000001 -39.14,0.74 -39.18,0.8 -39.260000000000005,0.8999999999999999 -39.31,0.94 -39.35,0.98 -39.4,1.02 -39.46,1.05 -39.56,1.11 -39.620000000000005,1.1300000000000001 -39.67,1.1500000000000001 -39.73,1.1600000000000001 -39.79,1.1600000000000001 -39.84,1.1700000000000002 -39.900000000000006,1.1600000000000001 -39.96,1.1600000000000001 -40.010000000000005,1.1500000000000001 -40.129999999999995,1.11 -40.279999999999994,1.02 -40.43,0.8999999999999999 -40.510000000000005,0.8 -40.55,0.74 -40.58,0.6900000000000001 -40.61,0.62 -40.67,0.5 -40.730000000000004,0.29000000000000004 -40.75,0.15 -40.76,0.07 -40.76,-0.07 -40.75,-0.15"/>
<polygon class="l0d0" points="-38.07,-0.29000000000000004 -38.010000000000005,-0.5 -37.980000000000004,-0.56 -37.96,-0.62 -37.92,-0.6900000000000001 -37.89,-0.74 -37.85,-0.8 -37.77,-0.8999999999999999 -37.62,-1.02 -37.47,-1.11 -37.410000000000004,-1.1300000000000001 -37.36,-1.1500000000000001 -37.3,-1.1600000000000001 -37.24,-1.1600000000000001 -37.18,-1.1700000000000002 -37.13,-1.1600000000000001 -37.07,-1.1600000000000001 -37.01,-1.1500000000000001 -36.96,-1.1300000000000001 -36.9,-1.11 -36.800000000000004,-1.05 -36.74,-1.02 -36.7,-0.98 -36.6,-0.8999999999999999 -36.52,-0.8 -36.480000000000004,-0.74 -36.45,-0.6900000000000001 -36.41,-0.62 -36.379999999999995,-0.56 -36.36,-0.5 -36.3,-0.29000000000000004 -36.28,-0.15 -36.269999999999996,-0.07 -36.269999999999996,0.07 -36.28,0.15 -36.3,0.29000000000000004 -36.36,0.5 -36.379999999999995,0.56 -36.41,0.62 -36.45,0.6900000000000001 -36.480000000000004,0.74 -36.52,0.8 -36.6,0.8999999999999999 -36.7,0.98 -36.74,1.02 -36.800000000000004,1.05 -36.9,1.11 -36.96,1.1300000000000001 -37.01,1.1500000000000001 -37.07,1.1600000000000001 -37.13,1.1600000000000001 -37.18,1.1700000000000002 -37.24,1.1600000000000001 -37.3,1.1600000000000001 -37.36,1.1500000000000001 -37.410000000000004,1.1300000000000001 -37.47,1.11 -37.62,1.02 -37.77,0.8999999999999999 -37.85,0.8 -37.89,0.74 -37.92,0.6900000000000001 -37.96,0.62 -37.980000000000004,0.56 -38.010000000000005,0.5 -38.07,0.29000000000000004 -38.09,0.15 -38.1,0.07 -38.1,-0.07 -38.09,-0.15"/>
<polygon class="l0d0" points="-30.96,0.15 -30.979999999999997,0.29000000000000004 -31.04,0.5 -31.07,0.56 -31.09,0.62 -31.13,0.6900000000000001 -31.16,0.74 -31.200000000000003,0.8 -31.28,0.8999999999999999 -31.43,1.02 -31.58,1.11 -31.64,1.1300000000000001 -31.69,1.1500000000000001 -31.75,1.1600000000000001 -31.810000000000002,1.1600000000000001 -31.869999999999997,1.1700000000000002 -31.92,1.1600000000000001 -31.98,1.1600000000000001 -32.04,1.1500000000000001 -32.09,1.1300000000000001 -32.15,1.11 -32.25,1.05 -32.31,1.02 -32.35,0.98 -32.45,0.8999999999999999 -32.53,0.8 -32.57,0.74 -32.599999999999994,0.6900000000000001 -32.64,0.62 -32.67,0.56 -32.69,0.5 -32.75,0.29000000000000004 -32.77,0.15 -32.78,0.07 -32.78,-0.07 -32.77,-0.15 -32.75,-0.29000000000000004 -32.69,-0.5 -32.67,-0.56 -32.64,-0.62 -32.599999999999994,-0.6900000000000001 -32.57,-0.74 -32.53,-0.8 -32.45,-0.8999999999999999 -32.35,-0.98 -32.31,-1.02 -32.25,-1.05 -32.15,-1.11 -32.09,-1.1300000000000001 -32.04,-1.1500000000000001 -31.98,-1.1600000000000001 -31.92,-1.1600000000000001 -31.869999999999997,-1.1700000000000002 -31.810000000000002,-1.1600000000000001 -31.75,-1.1600000000000001 -31.69,-1.1500000000000001 -31.64,-1.1300000000000001 -31.58,-1.11 -31.43,-1.02 -31.28,-0.8999999999999999 -31.200000000000003,-0.8 -31.16,-0.74 -31.13,-0.6900000000000001 -31.09,-0.62 -31.07,-0.56 -31.04,-0.5 -30.979999999999997,-0.29000000000000004 -30.96,-0.15 -30.950000000000003,-0.07 -30.950000000000003,0.07"/>
<polygon class="l0d0" points="19.89,-0.36 19.91,-0.42999999999999994 19.94,-0.5 19.96,-0.56 19.990000000000002,-0.62 20.019999999999996,-0.6900000000000001 20.06,-0.74 20.099999999999998,-0.8 20.18,-0.8999999999999999 20.23,-0.94 20.270000000000003,-0.98 20.32,-1.02 20.369999999999997,-1.05 20.43,-1.08 20.48,-1.11 20.54,-1.1300000000000001 20.590000000000003,-1.1500000000000001 20.65,-1.1600000000000001 20.7,-1.1600000000000001 20.76,-1.1700000000000002 20.82,-1.1600000000000001 20.880000000000003,-1.1600000000000001 20.93,-1.1500000000000001 20.990000000000002,-1.1300000000000001 21.04,-1.11 21.099999999999998,-1.08 21.200000000000003,-1.02 21.299999999999997,-0.94 21.389999999999997,-0.8500000000000001 21.43,-0.8 21.47,-0.74 21.5,-0.6900000000000001 21.53,-0.62 21.589999999999996,-0.5 21.65,-0.29000000000000004 21.669999999999998,-0.15 21.669999999999998,-0.07 21.68,0.0 21.669999999999998,0.07 21.669999999999998,0.15 21.65,0.29000000000000004 21.589999999999996,0.5 21.53,0.62 21.5,0.6900000000000001 21.47,0.74 21.43,0.8 21.389999999999997,0.8500000000000001 21.299999999999997,0.94 21.200000000000003,1.02 21.099999999999998,1.08 21.04,1.11 20.990000000000002,1.1300000000000001 20.93,1.1500000000000001 20.880000000000003,1.1600000000000001 20.82,1.1600000000000001 20.76,1.1700000000000002 20.7,1.1600000000000001 20.65,1.1600000000000001 20.590000000000003,1.1500000000000001 20.54,1.1300000000000001 20.48,1.11 20.43,1.08 20.369999999999997,1.05 20.32,1.02 20.270000000000003,0.98 20.23,0.94 20.18,0.8999999999999999 20.099999999999998,0.8 20.06,0.74 20.019999999999996,0.6900000000000001 19.990000000000002,0.62 19.96,0.56 19.94,0.5 19.91,0.42999999999999994 19.89,0.36 19.86,0.15 19.85,0.07 19.85,-0.07 19.86,-0.15"/>
<polygon class="l0d0" points="19.099999999999998,0.15 19.08,0.29000000000000004 19.02,0.5 19.0,0.56 18.97,0.62 18.93,0.6900000000000001 18.9,0.74 18.86,0.8 18.779999999999998,0.8999999999999999 18.73,0.94 18.69,0.98 18.64,1.02 18.580000000000002,1.05 18.48,1.11 18.42,1.1300000000000001 18.37,1.1500000000000001 18.31,1.1600000000000001 18.25,1.1600000000000001 18.2,1.1700000000000002 18.14,1.1600000000000001 18.080000000000002,1.1600000000000001 18.02,1.1500000000000001 17.97,1.1300000000000001 17.91,1.11 17.76,1.02 17.61,0.8999999999999999 17.529999999999998,0.8 17.490000000000002,0.74 17.46,0.6900000000000001 17.42,0.62 17.4,0.56 17.37,0.5 17.310000000000002,0.29000000000000004 17.29,0.15 17.28,0.07 17.28,-0.07 17.29,-0.15 17.310000000000002,-0.29000000000000004 17.37,-0.5 17.4,-0.56 17.42,-0.62 17.46,-0.6900000000000001 17.490000000000002,-0.74 17.529999999999998,-0.8 17.61,-0.8999999999999999 17.76,-1.02 17.91,-1.11 17.97,-1.1300000000000001 18.02,-1.1500000000000001 18.080000000000002,-1.1600000000000001 18.14,-1.1600000000000001 18.2,-1.1700000000000002 18.25,-1.1600000000000001 18.31,-1.1600000000000001 18.37,-1.1500000000000001 18.42,-1.1300000000000001 18.48,-1.11 18.580000000000002,-1.05 18.64,-1.02 18.69,-0.98 18.73,-0.94 18.779999999999998,-0.8999999999999999 18.86,-0.8 18.9,-0.74 18.93,-0.6900000000000001 18.97,-0.62 19.0,-0.56 19.02,-0.5 19.08,-0.29000000000000004 19.099999999999998,-0.15 19.11,-0.07 19.11,0.07"/>
<polygon class="l0d0" points="-19.47,-0.21999999999999997 -19.45,-0.29000000000000004 -19.439999999999998,-0.36 -19.419999999999998,-0.42999999999999994 -19.39,-0.5 -19.37,-0.56 -19.34,-0.62 -19.310000000000002,-0.6900000000000001 -19.27,-0.74 -19.23,-0.8 -19.15,-0.8999999999999999 -19.099999999999998,-0.94 -19.06,-0.98 -19.01,-1.02 -18.96,-1.05 -18.9,-1.08 -18.85,-1.11 -18.799999999999997,-1.1300000000000001 -18.740000000000002,-1.1500000000000001 -18.68,-1.1600000000000001 -18.63,-1.1600000000000001 -18.57,-1.1700000000000002 -18.509999999999998,-1.1600000000000001 -18.45,-1.1600000000000001 -18.400000000000002,-1.1500000000000001 -18.34,-1.1300000000000001 -18.29,-1.11 -18.23,-1.08 -18.13,-1.02 -18.03,-0.94 -17.94,-0.8500000000000001 -17.9,-0.8 -17.86,-0.74 -17.83,-0.6900000000000001 -17.8,-0.62 -17.740000000000002,-0.5 -17.68,-0.29000000000000004 -17.66,-0.15 -17.66,0.15 -17.68,0.29000000000000004 -17.740000000000002,0.5 -17.8,0.62 -17.83,0.6900000000000001 -17.86,0.74 -17.9,0.8 -17.94,0.8500000000000001 -18.03,0.94 -18.13,1.02 -18.23,1.08 -18.29,1.11 -18.34,1.1300000000000001 -18.400000000000002,1.1500000000000001 -18.45,1.1600000000000001 -18.509999999999998,1.1600000000000001 -18.57,1.1700000000000002 -18.63,1.1600000000000001 -18.68,1.1600000000000001 -18.740000000000002,1.1500000000000001 -18.799999999999997,1.1300000000000001 -18.85,1.11 -18.9,1.08 -18.96,1.05 -19.01,1.02 -19.06,0.98 -19.099999999999998,0.94 -19.15,0.8999999999999999 -19.23,0.8 -19.27,0.74 -19.310000000000002,0.6900000000000001 -19.34,0.62 -19.37,0.56 -19.39,0.5 -19.419999999999998,0.42999999999999994 -19.439999999999998,0.36 -19.45,0.29000000000000004 -19.47,0.21999999999999997 -19.47,0.15 -19.48,0.07 -19.48,-0.07 -19.47,-0.15"/>
<polygon class="l0d0" points="-16.810000000000002,-0.21999999999999997 -16.79,-0.29000000000000004 -16.78,-0.36 -16.74,-0.5 -16.68,-0.62 -16.65,-0.6900000000000001 -16.61,-0.74 -16.57,-0.8 -16.490000000000002,-0.8999999999999999 -16.45,-0.94 -16.35,-1.02 -16.299999999999997,-1.05 -16.240000000000002,-1.08 -16.19,-1.11 -16.14,-1.1300000000000001 -16.080000000000002,-1.1500000000000001 -16.02,-1.1600000000000001 -15.969999999999999,-1.1600000000000001 -15.91,-1.1700000000000002 -15.85,-1.1600000000000001 -15.79,-1.1600000000000001 -15.74,-1.1500000000000001 -15.68,-1.1300000000000001 -15.629999999999999,-1.11 -15.57,-1.08 -15.469999999999999,-1.02 -15.37,-0.94 -15.280000000000001,-0.8500000000000001 -15.24,-0.8 -15.209999999999999,-0.74 -15.169999999999998,-0.6900000000000001 -15.14,-0.62 -15.08,-0.5 -15.02,-0.29000000000000004 -15.0,-0.15 -15.0,0.15 -15.02,0.29000000000000004 -15.08,0.5 -15.169999999999998,0.68 -15.169999999999998,0.6900000000000001 -15.209999999999999,0.74 -15.24,0.8 -15.280000000000001,0.8500000000000001 -15.37,0.94 -15.469999999999999,1.02 -15.57,1.08 -15.629999999999999,1.11 -15.68,1.1300000000000001 -15.74,1.1500000000000001 -15.79,1.1600000000000001 -15.85,1.1600000000000001 -15.91,1.1700000000000002 -15.969999999999999,1.1600000000000001 -16.02,1.1600000000000001 -16.080000000000002,1.1500000000000001 -16.14,1.1300000000000001 -16.19,1.11 -16.240000000000002,1.08 -16.299999999999997,1.05 -16.35,1.02 -16.45,0.94 -16.490000000000002,0.8999999999999999 -16.57,0.8 -16.61,0.74 -16.65,0.6900000000000001 -16.68,0.62 -16.74,0.5 -16.78,0.36 -16.79,0.29000000000000004 -16.810000000000002,0.21999999999999997 -16.810000000000002,0.15 -16.82,0.07 -16.82,-0.07 -16.810000000000002,-0.15"/>
<polygon class="l0d0" points="-11.55,-0.29000000000000004 -11.54,-0.36 -11.5,-0.5 -11.44,-0.62 -11.41,-0.6900000000000001 -11.370000000000001,-0.74 -11.34,-0.8 -11.299999999999999,-0.8500000000000001 -11.21,-0.94 -11.11,-1.02 -11.01,-1.08 -10.95,-1.11 -10.9,-1.1300000000000001 -10.84,-1.1500000000000001 -10.780000000000001,-1.1600000000000001 -10.73,-1.1600000000000001 -10.67,-1.1700000000000002 -10.61,-1.1600000000000001 -10.56,-1.1600000000000001 -10.5,-1.1500000000000001 -10.440000000000001,-1.1300000000000001 -10.389999999999999,-1.11 -10.329999999999998,-1.08 -10.229999999999999,-1.02 -10.129999999999999,-0.94 -10.09,-0.8999999999999999 -10.049999999999999,-0.8500000000000001 -10.0,-0.8 -9.97,-0.74 -9.93,-0.6900000000000001 -9.9,-0.62 -9.84,-0.5 -9.8,-0.36 -9.79,-0.29000000000000004 -9.77,-0.21999999999999997 -9.76,-0.15 -9.76,0.15 -9.77,0.21999999999999997 -9.79,0.29000000000000004 -9.8,0.36 -9.84,0.5 -9.9,0.62 -9.93,0.6900000000000001 -9.97,0.74 -10.0,0.8 -10.049999999999999,0.8500000000000001 -10.09,0.8999999999999999 -10.129999999999999,0.94 -10.229999999999999,1.02 -10.329999999999998,1.08 -10.389999999999999,1.11 -10.440000000000001,1.1300000000000001 -10.5,1.1500000000000001 -10.56,1.1600000000000001 -10.61,1.1600000000000001 -10.67,1.1700000000000002 -10.73,1.1600000000000001 -10.780000000000001,1.1600000000000001 -10.84,1.1500000000000001 -10.9,1.1300000000000001 -10.95,1.11 -11.01,1.08 -11.11,1.02 -11.21,0.94 -11.299999999999999,0.8500000000000001 -11.34,0.8 -11.370000000000001,0.74 -11.41,0.6900000000000001 -11.44,0.62 -11.5,0.5 -11.54,0.36 -11.55,0.29000000000000004 -11.57,0.21999999999999997 -11.579999999999998,0.15 -11.579999999999998,-0.15 -11.57,-0.21999999999999997"/>
<polygon class="l0d0" points="-0.22999999999999998,0.15 -0.26,0.36 -0.28,0.42999999999999994 -0.31,0.5 -0.33,0.56 -0.36,0.62 -0.39,0.6900000000000001 -0.42999999999999994,0.74 -0.47,0.8 -0.55,0.8999999999999999 -0.6,0.94 -0.64,0.98 -0.6900000000000001,1.02 -0.74,1.05 -0.8,1.08 -0.8500000000000001,1.11 -0.9099999999999999,1.1300000000000001 -0.96,1.1500000000000001 -1.02,1.1600000000000001 -1.08,1.1600000000000001 -1.1300000000000001,1.1700000000000002 -1.19,1.1600000000000001 -1.25,1.1600000000000001 -1.3,1.1500000000000001 -1.42,1.11 -1.57,1.02 -1.6700000000000002,0.94 -1.7599999999999998,0.8500000000000001 -1.7999999999999998,0.8 -1.8399999999999999,0.74 -1.87,0.6900000000000001 -1.9,0.62 -1.96,0.5 -2.02,0.29000000000000004 -2.04,0.15 -2.04,0.07 -2.05,0.0 -2.04,-0.07 -2.04,-0.15 -2.02,-0.29000000000000004 -1.96,-0.5 -1.9,-0.62 -1.87,-0.6900000000000001 -1.8399999999999999,-0.74 -1.7999999999999998,-0.8 -1.7599999999999998,-0.8500000000000001 -1.6700000000000002,-0.94 -1.57,-1.02 -1.42,-1.11 -1.3,-1.1500000000000001 -1.25,-1.1600000000000001 -1.19,-1.1600000000000001 -1.1300000000000001,-1.1700000000000002 -1.08,-1.1600000000000001 -1.02,-1.1600000000000001 -0.96,-1.1500000000000001 -0.9099999999999999,-1.1300000000000001 -0.8500000000000001,-1.11 -0.8,-1.08 -0.74,-1.05 -0.6900000000000001,-1.02 -0.64,-0.98 -0.6,-0.94 -0.55,-0.8999999999999999 -0.47,-0.8 -0.42999999999999994,-0.74 -0.39,-0.6900000000000001 -0.36,-0.62 -0.33,-0.56 -0.31,-0.5 -0.28,-0.42999999999999994 -0.26,-0.36 -0.22999999999999998,-0.15 -0.21999999999999997,-0.07 -0.21999999999999997,0.07"/>
<polygon class="l0d0" points="24.23,0.15 24.209999999999997,0.29000000000000004 24.15,0.5 24.119999999999997,0.56 24.1,0.62 24.060000000000002,0.6900000000000001 24.03,0.74 23.990000000000002,0.8 23.91,0.8999999999999999 23.759999999999998,1.02 23.610000000000003,1.11 23.55,1.1300000000000001 23.5,1.1500000000000001 23.439999999999998,1.1600000000000001 23.380000000000003,1.1600000000000001 23.32,1.1700000000000002 23.27,1.1600000000000001 23.21,1.1600000000000001 23.15,1.1500000000000001 23.1,1.1300000000000001 23.04,1.11 22.94,1.05 22.88,1.02 22.83,0.98 22.79,0.94 22.740000000000002,0.8999999999999999 22.66,0.8 22.62,0.74 22.59,0.6900000000000001 22.549999999999997,0.62 22.519999999999996,0.56 22.5,0.5 22.44,0.29000000000000004 22.42,0.15 22.41,0.07 22.41,-0.07 22.42,-0.15 22.44,-0.29000000000000004 22.5,-0.5 22.519999999999996,-0.56 22.549999999999997,-0.62 22.59,-0.6900000000000001 22.62,-0.74 22.66,-0.8 22.740000000000002,-0.8999999999999999 22.79,-0.94 22.83,-0.98 22.88,-1.02 22.94,-1.05 23.04,-1.11 23.1,-1.1300000000000001 23.15,-1.1500000000000001 23.21,-1.1600000000000001 23.27,-1.1600000000000001 23.32,-1.1700000000000002 23.380000000000003,-1.1600000000000001 23.439999999999998,-1.1600000000000001 23.5,-1.1500000000000001 23.55,-1.1300000000000001 23.610000000000003,-1.11 23.759999999999998,-1.02 23.91,-0.8999999999999999 23.990000000000002,-0.8 24.03,-0.74 24.060000000000002,-0.6900000000000001 24.1,-0.62 24.119999999999997,-0.56 24.15,-0.5 24.209999999999997,-0.29000000000000004 24.23,-0.15 24.24,-0.07 24.24,0.07"/>
<polygon class="l0d0" points="11.459999999999999,0.15 11.43,0.36 11.41,0.42999999999999994 11.379999999999999,0.5 11.36,0.56 11.33,0.62 11.299999999999999,0.6900000000000001 11.259999999999998,0.74 11.22,0.8 11.14,0.8999999999999999 11.09,0.94 11.05,0.98 11.0,1.02 10.95,1.05 10.89,1.08 10.84,1.11 10.79,1.1300000000000001 10.73,1.1500000000000001 10.67,1.1600000000000001 10.620000000000001,1.1600000000000001 10.56,1.1700000000000002 10.5,1.1600000000000001 10.440000000000001,1.1600000000000001 10.389999999999999,1.1500000000000001 10.329999999999998,1.1300000000000001 10.280000000000001,1.11 10.22,1.08 10.120000000000001,1.02 10.02,0.94 9.93,0.8500000000000001 9.89,0.8 9.85,0.74 9.82,0.6900000000000001 9.79,0.62 9.73,0.5 9.67,0.29000000000000004 9.65,0.15 9.65,0.07 9.64,0.0 9.65,-0.07 9.65,-0.15 9.67,-0.29000000000000004 9.73,-0.5 9.79,-0.62 9.82,-0.6900000000000001 9.85,-0.74 9.89,-0.8 9.93,-0.8500000000000001 10.02,-0.94 10.120000000000001,-1.02 10.22,-1.08 10.280000000000001,-1.11 10.329999999999998,-1.1300000000000001 10.389999999999999,-1.1500000000000001 10.440000000000001,-1.1600000000000001 10.5,-1.1600000000000001 10.56,-1.1700000000000002 10.620000000000001,-1.1600000000000001 10.67,-1.1600000000000001 10.73,-1.1500000000000001 10.79,-1.1300000000000001 10.84,-1.11 10.89,-1.08 10.95,-1.05 11.0,-1.02 11.05,-0.98 11.09,-0.94 11.14,-0.8999999999999999 11.22,-0.8 11.259999999999998,-0.74 11.299999999999999,-0.6900000000000001 11.33,-0.62 11.36,-0.56 11.379999999999999,-0.5 11.41,-0.42999999999999994 11.43,-0.36 11.459999999999999,-0.15 11.47,-0.07 11.47,0.07"/>
<polygon class="l0d0" points="-25.64,0.07 -25.64,0.15 -25.659999999999997,0.29000000000000004 -25.72,0.5 -25.779999999999998,0.62 -25.81,0.6900000000000001 -25.84,0.74 -25.880000000000003,0.8 -25.96,0.8999999999999999 -26.110000000000003,1.02 -26.259999999999998,1.11 -26.38,1.1500000000000001 -26.43,1.1600000000000001 -26.490000000000002,1.1600000000000001 -26.549999999999997,1.1700000000000002 -26.6,1.1600000000000001 -26.66,1.1600000000000001 -26.720000000000002,1.1500000000000001 -26.77,1.1300000000000001 -26.83,1.11 -26.880000000000003,1.08 -26.939999999999998,1.05 -26.99,1.02 -27.040000000000003,0.98 -27.080000000000002,0.94 -27.130000000000003,0.8999999999999999 -27.21,0.8 -27.25,0.74 -27.29,0.6900000000000001 -27.32,0.62 -27.349999999999998,0.56 -27.37,0.5 -27.400000000000002,0.42999999999999994 -27.42,0.36 -27.450000000000003,0.15 -27.46,0.07 -27.46,-0.07 -27.450000000000003,-0.15 -27.42,-0.36 -27.400000000000002,-0.42999999999999994 -27.37,-0.5 -27.349999999999998,-0.56 -27.32,-0.62 -27.29,-0.6900000000000001 -27.25,-0.74 -27.21,-0.8 -27.130000000000003,-0.8999999999999999 -27.080000000000002,-0.94 -27.040000000000003,-0.98 -26.99,-1.02 -26.939999999999998,-1.05 -26.880000000000003,-1.08 -26.83,-1.11 -26.77,-1.1300000000000001 -26.720000000000002,-1.1500000000000001 -26.66,-1.1600000000000001 -26.6,-1.1600000000000001 -26.549999999999997,-1.1700000000000002 -26.490000000000002,-1.1600000000000001 -26.43,-1.1600000000000001 -26.38,-1.1500000000000001 -26.259999999999998,-1.11 -26.110000000000003,-1.02 -25.96,-0.8999999999999999 -25.880000000000003,-0.8 -25.84,-0.74 -25.81,-0.6900000000000001 -25.779999999999998,-0.62 -25.72,-0.5 -25.659999999999997,-0.29000000000000004 -25.64,-0.15 -25.64,-0.07 -25.630000000000003,0.0"/>
<polygon class="l0d0" points="171.5,4.997 171.515,4.997 172.525,4.99 173.535,4.981 174.545,4.969 175.55599999999998,4.954 176.566,4.936 177.576,4.915 178.58599999999998,4.891 179.59599999999998,4.864 180.606,4.834 181.61599999999999,4.8020000000000005 182.62599999999998,4.766 183.63600000000002,4.729 184.64600000000002,4.688 185.65699999999998,4.646 186.66699999999997,4.6000000000000005 187.67700000000002,4.553 188.687,4.503 189.697,4.451 190.707,4.396 191.717,4.34 192.727,4.282 193.737,4.222 194.74699999999999,4.1610000000000005 195.758,4.098 196.768,4.0329999999999995 197.778,3.967 199.798,3.831 200.808,3.761 202.82800000000003,3.6189999999999998 204.848,3.473 205.85899999999998,3.4000000000000004 206.86900000000003,3.326 212.929,2.8760000000000003 213.939,2.802 214.949,2.727 215.96,2.6529999999999996 216.97,2.579 217.98,2.506 218.064,2.5 220.0,2.5 520.0,0.6 520.0,-0.6 220.0,-2.5 218.064,-2.5 217.98,-2.506 216.97,-2.579 215.96,-2.6529999999999996 214.949,-2.727 213.939,-2.802 212.929,-2.8760000000000003 206.86900000000003,-3.326 205.85899999999998,-3.4000000000000004 204.848,-3.473 202.82800000000003,-3.6189999999999998 200.808,-3.761 199.798,-3.831 197.778,-3.967 196.768,-4.0329999999999995 195.758,-4.098 194.74699999999999,-4.1610000000000005 193.737,-4.222 192.727,-4.282 191.717,-4.34 190.707,-4.396 189.697,-4.451 188.687,-4.503 187.67700000000002,-4.553 186.66699999999997,-4.6000000000000005 185.65699999999998,-4.646 184.64600000000002,-4.688 183.63600000000002,-4.729 182.62599999999998,-4.766 181.61599999999999,-4.8020000000000005 180.606,-4.834 179.59599999999998,-4.864 178.58599999999998,-4.891 177.576,-4.915 176.566,-4.936 175.55599999999998,-4.954 174.545,-4.969 173.535,-4.981 172.525,-4.99 171.515,-4.997 171.5,-4.997 171.5,-18.0 180.0,-30.0 670.0,-30.0 670.0,30.0 180.0,30.0 171.5,18.0"/>
<polygon class="l0d0" points="-100.0,-30.0 160.0,-30.0 168.5,-18.0 168.5,-4.997 168.485,-4.997 167.475,-4.99 166.465,-4.981 165.455,-4.969 164.44400000000002,-4.954 163.434,-4.936 162.424,-4.915 161.41400000000002,-4.891 160.40400000000002,-4.864 159.394,-4.834 158.38400000000001,-4.8020000000000005 157.374,-4.766 156.364,-4.729 155.35399999999998,-4.688 154.34300000000002,-4.646 153.333,-4.6000000000000005 152.323,-4.553 151.313,-4.503 150.303,-4.451 149.293,-4.396 148.28300000000002,-4.34 147.273,-4.282 146.263,-4.222 145.253,-4.1610000000000005 144.24200000000002,-4.098 143.232,-4.0329999999999995 142.222,-3.967 140.202,-3.831 139.192,-3.761 137.172,-3.6189999999999998 135.152,-3.473 134.141,-3.4000000000000004 133.131,-3.326 127.071,-2.8760000000000003 126.06099999999999,-2.802 125.051,-2.727 124.03999999999999,-2.6529999999999996 123.03,-2.579 122.02,-2.506 121.936,-2.5 -100.0,-2.5"/>
</g>
</svg>